G04 #@! TF.FileFunction,Copper,L1,Top,Signal*
%FSLAX46Y46*%
G04 Gerber Fmt 4.6, Leading zero omitted, Abs format (unit mm)*
G04 Created by KiCad (PCBNEW 4.0.5) date 04/17/17 17:33:10*
%MOMM*%
%LPD*%
G01*
G04 APERTURE LIST*
%ADD10C,0.100000*%
%ADD11R,1.700000X1.700000*%
%ADD12O,1.700000X1.700000*%
%ADD13R,0.900000X1.700000*%
%ADD14C,0.254000*%
%ADD15R,6.000000X5.000000*%
%ADD16R,0.900000X1.910000*%
%ADD17R,0.900000X1.730000*%
%ADD18R,1.440000X2.110000*%
%ADD19C,0.250000*%
%ADD20C,0.254000*%
G04 APERTURE END LIST*
D10*
D11*
X142748000Y-92710000D03*
D12*
X145288000Y-92710000D03*
D11*
X145542000Y-143002000D03*
D12*
X143002000Y-143002000D03*
D13*
X139372000Y-142240000D03*
X136472000Y-142240000D03*
D14*
X136779000Y-110236000D03*
X136144000Y-110236000D03*
X136144000Y-110871000D03*
X136144000Y-111506000D03*
X138049000Y-110236000D03*
X138684000Y-110236000D03*
X138684000Y-110871000D03*
X138684000Y-111506000D03*
X136779000Y-110871000D03*
X136779000Y-111506000D03*
X138049000Y-110871000D03*
X138049000Y-111506000D03*
D15*
X134214000Y-109817000D03*
X140614000Y-109817000D03*
D14*
X136398000Y-114173000D03*
X136398000Y-113538000D03*
X136398000Y-112903000D03*
X136779000Y-117221000D03*
X136017000Y-117221000D03*
X136017000Y-116586000D03*
X136017000Y-115951000D03*
X136017000Y-115316000D03*
X138049000Y-117221000D03*
X138811000Y-117221000D03*
X138811000Y-116586000D03*
X138811000Y-115951000D03*
X138811000Y-115316000D03*
X138430000Y-114173000D03*
X138430000Y-113538000D03*
X138430000Y-112903000D03*
X136779000Y-116586000D03*
X136779000Y-115951000D03*
X136779000Y-115316000D03*
X138049000Y-116586000D03*
X138049000Y-115951000D03*
X138049000Y-115316000D03*
X137795000Y-114808000D03*
X137033000Y-114808000D03*
X137033000Y-114173000D03*
X137795000Y-114173000D03*
X137795000Y-113538000D03*
D16*
X138064000Y-115802000D03*
D17*
X136764000Y-111452000D03*
D18*
X137414000Y-113792000D03*
D16*
X136764000Y-115802000D03*
D14*
X137795000Y-112903000D03*
X137033000Y-112903000D03*
X137033000Y-113538000D03*
D17*
X138064000Y-111452000D03*
D15*
X140614000Y-115237000D03*
X134214000Y-115237000D03*
D14*
X136779000Y-121666000D03*
X136144000Y-121666000D03*
X136144000Y-122301000D03*
X136144000Y-122936000D03*
X138049000Y-121666000D03*
X138684000Y-121666000D03*
X138684000Y-122301000D03*
X138684000Y-122936000D03*
X136779000Y-122301000D03*
X136779000Y-122936000D03*
X138049000Y-122301000D03*
X138049000Y-122936000D03*
D15*
X134214000Y-121247000D03*
X140614000Y-121247000D03*
D14*
X136398000Y-125603000D03*
X136398000Y-124968000D03*
X136398000Y-124333000D03*
X136779000Y-128651000D03*
X136017000Y-128651000D03*
X136017000Y-128016000D03*
X136017000Y-127381000D03*
X136017000Y-126746000D03*
X138049000Y-128651000D03*
X138811000Y-128651000D03*
X138811000Y-128016000D03*
X138811000Y-127381000D03*
X138811000Y-126746000D03*
X138430000Y-125603000D03*
X138430000Y-124968000D03*
X138430000Y-124333000D03*
X136779000Y-128016000D03*
X136779000Y-127381000D03*
X136779000Y-126746000D03*
X138049000Y-128016000D03*
X138049000Y-127381000D03*
X138049000Y-126746000D03*
X137795000Y-126238000D03*
X137033000Y-126238000D03*
X137033000Y-125603000D03*
X137795000Y-125603000D03*
X137795000Y-124968000D03*
D16*
X138064000Y-127232000D03*
D17*
X136764000Y-122882000D03*
D18*
X137414000Y-125222000D03*
D16*
X136764000Y-127232000D03*
D14*
X137795000Y-124333000D03*
X137033000Y-124333000D03*
X137033000Y-124968000D03*
D17*
X138064000Y-122882000D03*
D15*
X140614000Y-126667000D03*
X134214000Y-126667000D03*
D14*
X136779000Y-133096000D03*
X136144000Y-133096000D03*
X136144000Y-133731000D03*
X136144000Y-134366000D03*
X138049000Y-133096000D03*
X138684000Y-133096000D03*
X138684000Y-133731000D03*
X138684000Y-134366000D03*
X136779000Y-133731000D03*
X136779000Y-134366000D03*
X138049000Y-133731000D03*
X138049000Y-134366000D03*
D15*
X134214000Y-132677000D03*
X140614000Y-132677000D03*
D14*
X136398000Y-137033000D03*
X136398000Y-136398000D03*
X136398000Y-135763000D03*
X136779000Y-140081000D03*
X136017000Y-140081000D03*
X136017000Y-139446000D03*
X136017000Y-138811000D03*
X136017000Y-138176000D03*
X138049000Y-140081000D03*
X138811000Y-140081000D03*
X138811000Y-139446000D03*
X138811000Y-138811000D03*
X138811000Y-138176000D03*
X138430000Y-137033000D03*
X138430000Y-136398000D03*
X138430000Y-135763000D03*
X136779000Y-139446000D03*
X136779000Y-138811000D03*
X136779000Y-138176000D03*
X138049000Y-139446000D03*
X138049000Y-138811000D03*
X138049000Y-138176000D03*
X137795000Y-137668000D03*
X137033000Y-137668000D03*
X137033000Y-137033000D03*
X137795000Y-137033000D03*
X137795000Y-136398000D03*
D16*
X138064000Y-138662000D03*
D17*
X136764000Y-134312000D03*
D18*
X137414000Y-136652000D03*
D16*
X136764000Y-138662000D03*
D14*
X137795000Y-135763000D03*
X137033000Y-135763000D03*
X137033000Y-136398000D03*
D17*
X138064000Y-134312000D03*
D15*
X140614000Y-138097000D03*
X134214000Y-138097000D03*
D14*
X136779000Y-98806000D03*
X136144000Y-98806000D03*
X136144000Y-99441000D03*
X136144000Y-100076000D03*
X138049000Y-98806000D03*
X138684000Y-98806000D03*
X138684000Y-99441000D03*
X138684000Y-100076000D03*
X136779000Y-99441000D03*
X136779000Y-100076000D03*
X138049000Y-99441000D03*
X138049000Y-100076000D03*
D15*
X134214000Y-98387000D03*
X140614000Y-98387000D03*
D14*
X136398000Y-102743000D03*
X136398000Y-102108000D03*
X136398000Y-101473000D03*
X136779000Y-105791000D03*
X136017000Y-105791000D03*
X136017000Y-105156000D03*
X136017000Y-104521000D03*
X136017000Y-103886000D03*
X138049000Y-105791000D03*
X138811000Y-105791000D03*
X138811000Y-105156000D03*
X138811000Y-104521000D03*
X138811000Y-103886000D03*
X138430000Y-102743000D03*
X138430000Y-102108000D03*
X138430000Y-101473000D03*
X136779000Y-105156000D03*
X136779000Y-104521000D03*
X136779000Y-103886000D03*
X138049000Y-105156000D03*
X138049000Y-104521000D03*
X138049000Y-103886000D03*
X137795000Y-103378000D03*
X137033000Y-103378000D03*
X137033000Y-102743000D03*
X137795000Y-102743000D03*
X137795000Y-102108000D03*
D16*
X138064000Y-104372000D03*
D17*
X136764000Y-100022000D03*
D18*
X137414000Y-102362000D03*
D16*
X136764000Y-104372000D03*
D14*
X137795000Y-101473000D03*
X137033000Y-101473000D03*
X137033000Y-102108000D03*
D17*
X138064000Y-100022000D03*
D15*
X140614000Y-103807000D03*
X134214000Y-103807000D03*
D14*
X150749000Y-98806000D03*
X150114000Y-98806000D03*
X150114000Y-99441000D03*
X150114000Y-100076000D03*
X152019000Y-98806000D03*
X152654000Y-98806000D03*
X152654000Y-99441000D03*
X152654000Y-100076000D03*
X150749000Y-99441000D03*
X150749000Y-100076000D03*
X152019000Y-99441000D03*
X152019000Y-100076000D03*
D15*
X148184000Y-98387000D03*
X154584000Y-98387000D03*
D14*
X150368000Y-102743000D03*
X150368000Y-102108000D03*
X150368000Y-101473000D03*
X150749000Y-105791000D03*
X149987000Y-105791000D03*
X149987000Y-105156000D03*
X149987000Y-104521000D03*
X149987000Y-103886000D03*
X152019000Y-105791000D03*
X152781000Y-105791000D03*
X152781000Y-105156000D03*
X152781000Y-104521000D03*
X152781000Y-103886000D03*
X152400000Y-102743000D03*
X152400000Y-102108000D03*
X152400000Y-101473000D03*
X150749000Y-105156000D03*
X150749000Y-104521000D03*
X150749000Y-103886000D03*
X152019000Y-105156000D03*
X152019000Y-104521000D03*
X152019000Y-103886000D03*
X151765000Y-103378000D03*
X151003000Y-103378000D03*
X151003000Y-102743000D03*
X151765000Y-102743000D03*
X151765000Y-102108000D03*
D16*
X152034000Y-104372000D03*
D17*
X150734000Y-100022000D03*
D18*
X151384000Y-102362000D03*
D16*
X150734000Y-104372000D03*
D14*
X151765000Y-101473000D03*
X151003000Y-101473000D03*
X151003000Y-102108000D03*
D17*
X152034000Y-100022000D03*
D15*
X154584000Y-103807000D03*
X148184000Y-103807000D03*
D14*
X150749000Y-110236000D03*
X150114000Y-110236000D03*
X150114000Y-110871000D03*
X150114000Y-111506000D03*
X152019000Y-110236000D03*
X152654000Y-110236000D03*
X152654000Y-110871000D03*
X152654000Y-111506000D03*
X150749000Y-110871000D03*
X150749000Y-111506000D03*
X152019000Y-110871000D03*
X152019000Y-111506000D03*
D15*
X148184000Y-109817000D03*
X154584000Y-109817000D03*
D14*
X150368000Y-114173000D03*
X150368000Y-113538000D03*
X150368000Y-112903000D03*
X150749000Y-117221000D03*
X149987000Y-117221000D03*
X149987000Y-116586000D03*
X149987000Y-115951000D03*
X149987000Y-115316000D03*
X152019000Y-117221000D03*
X152781000Y-117221000D03*
X152781000Y-116586000D03*
X152781000Y-115951000D03*
X152781000Y-115316000D03*
X152400000Y-114173000D03*
X152400000Y-113538000D03*
X152400000Y-112903000D03*
X150749000Y-116586000D03*
X150749000Y-115951000D03*
X150749000Y-115316000D03*
X152019000Y-116586000D03*
X152019000Y-115951000D03*
X152019000Y-115316000D03*
X151765000Y-114808000D03*
X151003000Y-114808000D03*
X151003000Y-114173000D03*
X151765000Y-114173000D03*
X151765000Y-113538000D03*
D16*
X152034000Y-115802000D03*
D17*
X150734000Y-111452000D03*
D18*
X151384000Y-113792000D03*
D16*
X150734000Y-115802000D03*
D14*
X151765000Y-112903000D03*
X151003000Y-112903000D03*
X151003000Y-113538000D03*
D17*
X152034000Y-111452000D03*
D15*
X154584000Y-115237000D03*
X148184000Y-115237000D03*
D14*
X150749000Y-121666000D03*
X150114000Y-121666000D03*
X150114000Y-122301000D03*
X150114000Y-122936000D03*
X152019000Y-121666000D03*
X152654000Y-121666000D03*
X152654000Y-122301000D03*
X152654000Y-122936000D03*
X150749000Y-122301000D03*
X150749000Y-122936000D03*
X152019000Y-122301000D03*
X152019000Y-122936000D03*
D15*
X148184000Y-121247000D03*
X154584000Y-121247000D03*
D14*
X150368000Y-125603000D03*
X150368000Y-124968000D03*
X150368000Y-124333000D03*
X150749000Y-128651000D03*
X149987000Y-128651000D03*
X149987000Y-128016000D03*
X149987000Y-127381000D03*
X149987000Y-126746000D03*
X152019000Y-128651000D03*
X152781000Y-128651000D03*
X152781000Y-128016000D03*
X152781000Y-127381000D03*
X152781000Y-126746000D03*
X152400000Y-125603000D03*
X152400000Y-124968000D03*
X152400000Y-124333000D03*
X150749000Y-128016000D03*
X150749000Y-127381000D03*
X150749000Y-126746000D03*
X152019000Y-128016000D03*
X152019000Y-127381000D03*
X152019000Y-126746000D03*
X151765000Y-126238000D03*
X151003000Y-126238000D03*
X151003000Y-125603000D03*
X151765000Y-125603000D03*
X151765000Y-124968000D03*
D16*
X152034000Y-127232000D03*
D17*
X150734000Y-122882000D03*
D18*
X151384000Y-125222000D03*
D16*
X150734000Y-127232000D03*
D14*
X151765000Y-124333000D03*
X151003000Y-124333000D03*
X151003000Y-124968000D03*
D17*
X152034000Y-122882000D03*
D15*
X154584000Y-126667000D03*
X148184000Y-126667000D03*
D14*
X150749000Y-133096000D03*
X150114000Y-133096000D03*
X150114000Y-133731000D03*
X150114000Y-134366000D03*
X152019000Y-133096000D03*
X152654000Y-133096000D03*
X152654000Y-133731000D03*
X152654000Y-134366000D03*
X150749000Y-133731000D03*
X150749000Y-134366000D03*
X152019000Y-133731000D03*
X152019000Y-134366000D03*
D15*
X148184000Y-132677000D03*
X154584000Y-132677000D03*
D14*
X150368000Y-137033000D03*
X150368000Y-136398000D03*
X150368000Y-135763000D03*
X150749000Y-140081000D03*
X149987000Y-140081000D03*
X149987000Y-139446000D03*
X149987000Y-138811000D03*
X149987000Y-138176000D03*
X152019000Y-140081000D03*
X152781000Y-140081000D03*
X152781000Y-139446000D03*
X152781000Y-138811000D03*
X152781000Y-138176000D03*
X152400000Y-137033000D03*
X152400000Y-136398000D03*
X152400000Y-135763000D03*
X150749000Y-139446000D03*
X150749000Y-138811000D03*
X150749000Y-138176000D03*
X152019000Y-139446000D03*
X152019000Y-138811000D03*
X152019000Y-138176000D03*
X151765000Y-137668000D03*
X151003000Y-137668000D03*
X151003000Y-137033000D03*
X151765000Y-137033000D03*
X151765000Y-136398000D03*
D16*
X152034000Y-138662000D03*
D17*
X150734000Y-134312000D03*
D18*
X151384000Y-136652000D03*
D16*
X150734000Y-138662000D03*
D14*
X151765000Y-135763000D03*
X151003000Y-135763000D03*
X151003000Y-136398000D03*
D17*
X152034000Y-134312000D03*
D15*
X154584000Y-138097000D03*
X148184000Y-138097000D03*
D19*
X143002000Y-143002000D02*
X141478000Y-143002000D01*
X141478000Y-92710000D02*
X142748000Y-92710000D01*
X140716000Y-91948000D02*
X141478000Y-92710000D01*
X130302000Y-91948000D02*
X140716000Y-91948000D01*
X130302000Y-144018000D02*
X130302000Y-91948000D01*
X140462000Y-144018000D02*
X130302000Y-144018000D01*
X141478000Y-143002000D02*
X140462000Y-144018000D01*
X142748000Y-92710000D02*
X142748000Y-95250000D01*
X148082000Y-95504000D02*
X148082000Y-98285000D01*
X147828000Y-95250000D02*
X148082000Y-95504000D01*
X142748000Y-95250000D02*
X147828000Y-95250000D01*
X148082000Y-98285000D02*
X148184000Y-98387000D01*
X136472000Y-142240000D02*
X135128000Y-142240000D01*
X134214000Y-141326000D02*
X134214000Y-138097000D01*
X135128000Y-142240000D02*
X134214000Y-141326000D01*
X134366000Y-138249000D02*
X134214000Y-138097000D01*
X134694000Y-136401000D02*
X135214000Y-135881000D01*
X145542000Y-143002000D02*
X147574000Y-143002000D01*
X146812000Y-92710000D02*
X145288000Y-92710000D01*
X147574000Y-91948000D02*
X146812000Y-92710000D01*
X158496000Y-91948000D02*
X147574000Y-91948000D01*
X158496000Y-144018000D02*
X158496000Y-91948000D01*
X148590000Y-144018000D02*
X158496000Y-144018000D01*
X147574000Y-143002000D02*
X148590000Y-144018000D01*
X145542000Y-143002000D02*
X145542000Y-141224000D01*
X140208000Y-142240000D02*
X139372000Y-142240000D01*
X141224000Y-141224000D02*
X140208000Y-142240000D01*
X145542000Y-141224000D02*
X141224000Y-141224000D01*
X140614000Y-132636000D02*
X140614000Y-126667000D01*
X136764000Y-125747000D02*
X135214000Y-124197000D01*
X140614000Y-109817000D02*
X140614000Y-103807000D01*
X140614000Y-121247000D02*
X140614000Y-115237000D01*
X140614000Y-98387000D02*
X144107000Y-98387000D01*
X144351000Y-138097000D02*
X148184000Y-138097000D01*
X144272000Y-138176000D02*
X144351000Y-138097000D01*
X144272000Y-98552000D02*
X144272000Y-138176000D01*
X144107000Y-98387000D02*
X144272000Y-98552000D01*
X152580000Y-136885000D02*
X153584000Y-135881000D01*
X154686000Y-138199000D02*
X154584000Y-138097000D01*
X148184000Y-109817000D02*
X148184000Y-103807000D01*
X148184000Y-121247000D02*
X148184000Y-115237000D01*
X152034000Y-125239000D02*
X153076000Y-124197000D01*
D20*
G36*
X141263000Y-92424250D02*
X141421750Y-92583000D01*
X142621000Y-92583000D01*
X142621000Y-92563000D01*
X142875000Y-92563000D01*
X142875000Y-92583000D01*
X142895000Y-92583000D01*
X142895000Y-92837000D01*
X142875000Y-92837000D01*
X142875000Y-94036250D01*
X143033750Y-94195000D01*
X143724310Y-94195000D01*
X143957699Y-94098327D01*
X144136327Y-93919698D01*
X144208597Y-93745223D01*
X144237946Y-93789147D01*
X144719715Y-94111054D01*
X145288000Y-94224093D01*
X145856285Y-94111054D01*
X146338054Y-93789147D01*
X146551301Y-93470000D01*
X146812000Y-93470000D01*
X147102839Y-93412148D01*
X147349401Y-93247401D01*
X147888802Y-92708000D01*
X157736000Y-92708000D01*
X157736000Y-95262641D01*
X157710310Y-95252000D01*
X154869750Y-95252000D01*
X154711000Y-95410750D01*
X154711000Y-98260000D01*
X154731000Y-98260000D01*
X154731000Y-98514000D01*
X154711000Y-98514000D01*
X154711000Y-98534000D01*
X154457000Y-98534000D01*
X154457000Y-98514000D01*
X154437000Y-98514000D01*
X154437000Y-98260000D01*
X154457000Y-98260000D01*
X154457000Y-95410750D01*
X154298250Y-95252000D01*
X151457690Y-95252000D01*
X151384000Y-95282523D01*
X151310310Y-95252000D01*
X148469750Y-95252000D01*
X148311000Y-95410750D01*
X148311000Y-98260000D01*
X148331000Y-98260000D01*
X148331000Y-98514000D01*
X148311000Y-98514000D01*
X148311000Y-98534000D01*
X148057000Y-98534000D01*
X148057000Y-98514000D01*
X148037000Y-98514000D01*
X148037000Y-98260000D01*
X148057000Y-98260000D01*
X148057000Y-95410750D01*
X147898250Y-95252000D01*
X145057690Y-95252000D01*
X144824301Y-95348673D01*
X144645673Y-95527302D01*
X144549000Y-95760691D01*
X144549000Y-97785854D01*
X144397839Y-97684852D01*
X144261440Y-97657720D01*
X144261440Y-95887000D01*
X144217162Y-95651683D01*
X144078090Y-95435559D01*
X143865890Y-95290569D01*
X143614000Y-95239560D01*
X137614000Y-95239560D01*
X137406658Y-95278574D01*
X137214000Y-95239560D01*
X131214000Y-95239560D01*
X130978683Y-95283838D01*
X130762559Y-95422910D01*
X130617569Y-95635110D01*
X130566560Y-95887000D01*
X130566560Y-100887000D01*
X130607525Y-101104709D01*
X130566560Y-101307000D01*
X130566560Y-106307000D01*
X130610838Y-106542317D01*
X130749910Y-106758441D01*
X130827248Y-106811284D01*
X130762559Y-106852910D01*
X130617569Y-107065110D01*
X130566560Y-107317000D01*
X130566560Y-112317000D01*
X130607525Y-112534709D01*
X130566560Y-112737000D01*
X130566560Y-117737000D01*
X130610838Y-117972317D01*
X130749910Y-118188441D01*
X130827248Y-118241284D01*
X130762559Y-118282910D01*
X130617569Y-118495110D01*
X130566560Y-118747000D01*
X130566560Y-123747000D01*
X130607525Y-123964709D01*
X130566560Y-124167000D01*
X130566560Y-129167000D01*
X130610838Y-129402317D01*
X130749910Y-129618441D01*
X130827248Y-129671284D01*
X130762559Y-129712910D01*
X130617569Y-129925110D01*
X130566560Y-130177000D01*
X130566560Y-135177000D01*
X130607525Y-135394709D01*
X130566560Y-135597000D01*
X130566560Y-140597000D01*
X130610838Y-140832317D01*
X130749910Y-141048441D01*
X130962110Y-141193431D01*
X131214000Y-141244440D01*
X133454000Y-141244440D01*
X133454000Y-141326000D01*
X133511852Y-141616839D01*
X133676599Y-141863401D01*
X134590599Y-142777401D01*
X134837160Y-142942148D01*
X135128000Y-143000000D01*
X135374560Y-143000000D01*
X135374560Y-143090000D01*
X135418838Y-143325317D01*
X135557910Y-143541441D01*
X135770110Y-143686431D01*
X136022000Y-143737440D01*
X136922000Y-143737440D01*
X137157317Y-143693162D01*
X137373441Y-143554090D01*
X137518431Y-143341890D01*
X137569440Y-143090000D01*
X137569440Y-141390000D01*
X137539201Y-141229293D01*
X137614000Y-141244440D01*
X138304037Y-141244440D01*
X138274560Y-141390000D01*
X138274560Y-143090000D01*
X138318838Y-143325317D01*
X138457910Y-143541441D01*
X138670110Y-143686431D01*
X138922000Y-143737440D01*
X139822000Y-143737440D01*
X140057317Y-143693162D01*
X140273441Y-143554090D01*
X140418431Y-143341890D01*
X140469440Y-143090000D01*
X140469440Y-142947996D01*
X140498839Y-142942148D01*
X140745401Y-142777401D01*
X141538802Y-141984000D01*
X141956753Y-141984000D01*
X141806817Y-142120642D01*
X141560514Y-142645108D01*
X141681181Y-142875000D01*
X142875000Y-142875000D01*
X142875000Y-142855000D01*
X143129000Y-142855000D01*
X143129000Y-142875000D01*
X143149000Y-142875000D01*
X143149000Y-143129000D01*
X143129000Y-143129000D01*
X143129000Y-143149000D01*
X142875000Y-143149000D01*
X142875000Y-143129000D01*
X141681181Y-143129000D01*
X141560514Y-143358892D01*
X141775184Y-143816000D01*
X130504000Y-143816000D01*
X130504000Y-92995750D01*
X141263000Y-92995750D01*
X141263000Y-93686309D01*
X141359673Y-93919698D01*
X141538301Y-94098327D01*
X141771690Y-94195000D01*
X142462250Y-94195000D01*
X142621000Y-94036250D01*
X142621000Y-92837000D01*
X141421750Y-92837000D01*
X141263000Y-92995750D01*
X130504000Y-92995750D01*
X130504000Y-92150000D01*
X141263000Y-92150000D01*
X141263000Y-92424250D01*
X141263000Y-92424250D01*
G37*
X141263000Y-92424250D02*
X141421750Y-92583000D01*
X142621000Y-92583000D01*
X142621000Y-92563000D01*
X142875000Y-92563000D01*
X142875000Y-92583000D01*
X142895000Y-92583000D01*
X142895000Y-92837000D01*
X142875000Y-92837000D01*
X142875000Y-94036250D01*
X143033750Y-94195000D01*
X143724310Y-94195000D01*
X143957699Y-94098327D01*
X144136327Y-93919698D01*
X144208597Y-93745223D01*
X144237946Y-93789147D01*
X144719715Y-94111054D01*
X145288000Y-94224093D01*
X145856285Y-94111054D01*
X146338054Y-93789147D01*
X146551301Y-93470000D01*
X146812000Y-93470000D01*
X147102839Y-93412148D01*
X147349401Y-93247401D01*
X147888802Y-92708000D01*
X157736000Y-92708000D01*
X157736000Y-95262641D01*
X157710310Y-95252000D01*
X154869750Y-95252000D01*
X154711000Y-95410750D01*
X154711000Y-98260000D01*
X154731000Y-98260000D01*
X154731000Y-98514000D01*
X154711000Y-98514000D01*
X154711000Y-98534000D01*
X154457000Y-98534000D01*
X154457000Y-98514000D01*
X154437000Y-98514000D01*
X154437000Y-98260000D01*
X154457000Y-98260000D01*
X154457000Y-95410750D01*
X154298250Y-95252000D01*
X151457690Y-95252000D01*
X151384000Y-95282523D01*
X151310310Y-95252000D01*
X148469750Y-95252000D01*
X148311000Y-95410750D01*
X148311000Y-98260000D01*
X148331000Y-98260000D01*
X148331000Y-98514000D01*
X148311000Y-98514000D01*
X148311000Y-98534000D01*
X148057000Y-98534000D01*
X148057000Y-98514000D01*
X148037000Y-98514000D01*
X148037000Y-98260000D01*
X148057000Y-98260000D01*
X148057000Y-95410750D01*
X147898250Y-95252000D01*
X145057690Y-95252000D01*
X144824301Y-95348673D01*
X144645673Y-95527302D01*
X144549000Y-95760691D01*
X144549000Y-97785854D01*
X144397839Y-97684852D01*
X144261440Y-97657720D01*
X144261440Y-95887000D01*
X144217162Y-95651683D01*
X144078090Y-95435559D01*
X143865890Y-95290569D01*
X143614000Y-95239560D01*
X137614000Y-95239560D01*
X137406658Y-95278574D01*
X137214000Y-95239560D01*
X131214000Y-95239560D01*
X130978683Y-95283838D01*
X130762559Y-95422910D01*
X130617569Y-95635110D01*
X130566560Y-95887000D01*
X130566560Y-100887000D01*
X130607525Y-101104709D01*
X130566560Y-101307000D01*
X130566560Y-106307000D01*
X130610838Y-106542317D01*
X130749910Y-106758441D01*
X130827248Y-106811284D01*
X130762559Y-106852910D01*
X130617569Y-107065110D01*
X130566560Y-107317000D01*
X130566560Y-112317000D01*
X130607525Y-112534709D01*
X130566560Y-112737000D01*
X130566560Y-117737000D01*
X130610838Y-117972317D01*
X130749910Y-118188441D01*
X130827248Y-118241284D01*
X130762559Y-118282910D01*
X130617569Y-118495110D01*
X130566560Y-118747000D01*
X130566560Y-123747000D01*
X130607525Y-123964709D01*
X130566560Y-124167000D01*
X130566560Y-129167000D01*
X130610838Y-129402317D01*
X130749910Y-129618441D01*
X130827248Y-129671284D01*
X130762559Y-129712910D01*
X130617569Y-129925110D01*
X130566560Y-130177000D01*
X130566560Y-135177000D01*
X130607525Y-135394709D01*
X130566560Y-135597000D01*
X130566560Y-140597000D01*
X130610838Y-140832317D01*
X130749910Y-141048441D01*
X130962110Y-141193431D01*
X131214000Y-141244440D01*
X133454000Y-141244440D01*
X133454000Y-141326000D01*
X133511852Y-141616839D01*
X133676599Y-141863401D01*
X134590599Y-142777401D01*
X134837160Y-142942148D01*
X135128000Y-143000000D01*
X135374560Y-143000000D01*
X135374560Y-143090000D01*
X135418838Y-143325317D01*
X135557910Y-143541441D01*
X135770110Y-143686431D01*
X136022000Y-143737440D01*
X136922000Y-143737440D01*
X137157317Y-143693162D01*
X137373441Y-143554090D01*
X137518431Y-143341890D01*
X137569440Y-143090000D01*
X137569440Y-141390000D01*
X137539201Y-141229293D01*
X137614000Y-141244440D01*
X138304037Y-141244440D01*
X138274560Y-141390000D01*
X138274560Y-143090000D01*
X138318838Y-143325317D01*
X138457910Y-143541441D01*
X138670110Y-143686431D01*
X138922000Y-143737440D01*
X139822000Y-143737440D01*
X140057317Y-143693162D01*
X140273441Y-143554090D01*
X140418431Y-143341890D01*
X140469440Y-143090000D01*
X140469440Y-142947996D01*
X140498839Y-142942148D01*
X140745401Y-142777401D01*
X141538802Y-141984000D01*
X141956753Y-141984000D01*
X141806817Y-142120642D01*
X141560514Y-142645108D01*
X141681181Y-142875000D01*
X142875000Y-142875000D01*
X142875000Y-142855000D01*
X143129000Y-142855000D01*
X143129000Y-142875000D01*
X143149000Y-142875000D01*
X143149000Y-143129000D01*
X143129000Y-143129000D01*
X143129000Y-143149000D01*
X142875000Y-143149000D01*
X142875000Y-143129000D01*
X141681181Y-143129000D01*
X141560514Y-143358892D01*
X141775184Y-143816000D01*
X130504000Y-143816000D01*
X130504000Y-92995750D01*
X141263000Y-92995750D01*
X141263000Y-93686309D01*
X141359673Y-93919698D01*
X141538301Y-94098327D01*
X141771690Y-94195000D01*
X142462250Y-94195000D01*
X142621000Y-94036250D01*
X142621000Y-92837000D01*
X141421750Y-92837000D01*
X141263000Y-92995750D01*
X130504000Y-92995750D01*
X130504000Y-92150000D01*
X141263000Y-92150000D01*
X141263000Y-92424250D01*
M02*
