G04 #@! TF.FileFunction,Copper,L2,Bot,Signal*
%FSLAX46Y46*%
G04 Gerber Fmt 4.6, Leading zero omitted, Abs format (unit mm)*
G04 Created by KiCad (PCBNEW 4.0.5) date 04/17/17 17:33:10*
%MOMM*%
%LPD*%
G01*
G04 APERTURE LIST*
%ADD10C,0.100000*%
%ADD11R,1.700000X1.700000*%
%ADD12O,1.700000X1.700000*%
%ADD13C,0.254000*%
%ADD14C,0.254000*%
G04 APERTURE END LIST*
D10*
D11*
X142748000Y-92710000D03*
D12*
X145288000Y-92710000D03*
D11*
X145542000Y-143002000D03*
D12*
X143002000Y-143002000D03*
D13*
X136779000Y-110236000D03*
X136144000Y-110236000D03*
X136144000Y-110871000D03*
X136144000Y-111506000D03*
X138049000Y-110236000D03*
X138684000Y-110236000D03*
X138684000Y-110871000D03*
X138684000Y-111506000D03*
X136779000Y-110871000D03*
X136779000Y-111506000D03*
X138049000Y-110871000D03*
X138049000Y-111506000D03*
X136398000Y-114173000D03*
X136398000Y-113538000D03*
X136398000Y-112903000D03*
X136779000Y-117221000D03*
X136017000Y-117221000D03*
X136017000Y-116586000D03*
X136017000Y-115951000D03*
X136017000Y-115316000D03*
X138049000Y-117221000D03*
X138811000Y-117221000D03*
X138811000Y-116586000D03*
X138811000Y-115951000D03*
X138811000Y-115316000D03*
X138430000Y-114173000D03*
X138430000Y-113538000D03*
X138430000Y-112903000D03*
X136779000Y-116586000D03*
X136779000Y-115951000D03*
X136779000Y-115316000D03*
X138049000Y-116586000D03*
X138049000Y-115951000D03*
X138049000Y-115316000D03*
X137795000Y-114808000D03*
X137033000Y-114808000D03*
X137033000Y-114173000D03*
X137795000Y-114173000D03*
X137795000Y-113538000D03*
X137795000Y-112903000D03*
X137033000Y-112903000D03*
X137033000Y-113538000D03*
X136779000Y-121666000D03*
X136144000Y-121666000D03*
X136144000Y-122301000D03*
X136144000Y-122936000D03*
X138049000Y-121666000D03*
X138684000Y-121666000D03*
X138684000Y-122301000D03*
X138684000Y-122936000D03*
X136779000Y-122301000D03*
X136779000Y-122936000D03*
X138049000Y-122301000D03*
X138049000Y-122936000D03*
X136398000Y-125603000D03*
X136398000Y-124968000D03*
X136398000Y-124333000D03*
X136779000Y-128651000D03*
X136017000Y-128651000D03*
X136017000Y-128016000D03*
X136017000Y-127381000D03*
X136017000Y-126746000D03*
X138049000Y-128651000D03*
X138811000Y-128651000D03*
X138811000Y-128016000D03*
X138811000Y-127381000D03*
X138811000Y-126746000D03*
X138430000Y-125603000D03*
X138430000Y-124968000D03*
X138430000Y-124333000D03*
X136779000Y-128016000D03*
X136779000Y-127381000D03*
X136779000Y-126746000D03*
X138049000Y-128016000D03*
X138049000Y-127381000D03*
X138049000Y-126746000D03*
X137795000Y-126238000D03*
X137033000Y-126238000D03*
X137033000Y-125603000D03*
X137795000Y-125603000D03*
X137795000Y-124968000D03*
X137795000Y-124333000D03*
X137033000Y-124333000D03*
X137033000Y-124968000D03*
X136779000Y-133096000D03*
X136144000Y-133096000D03*
X136144000Y-133731000D03*
X136144000Y-134366000D03*
X138049000Y-133096000D03*
X138684000Y-133096000D03*
X138684000Y-133731000D03*
X138684000Y-134366000D03*
X136779000Y-133731000D03*
X136779000Y-134366000D03*
X138049000Y-133731000D03*
X138049000Y-134366000D03*
X136398000Y-137033000D03*
X136398000Y-136398000D03*
X136398000Y-135763000D03*
X136779000Y-140081000D03*
X136017000Y-140081000D03*
X136017000Y-139446000D03*
X136017000Y-138811000D03*
X136017000Y-138176000D03*
X138049000Y-140081000D03*
X138811000Y-140081000D03*
X138811000Y-139446000D03*
X138811000Y-138811000D03*
X138811000Y-138176000D03*
X138430000Y-137033000D03*
X138430000Y-136398000D03*
X138430000Y-135763000D03*
X136779000Y-139446000D03*
X136779000Y-138811000D03*
X136779000Y-138176000D03*
X138049000Y-139446000D03*
X138049000Y-138811000D03*
X138049000Y-138176000D03*
X137795000Y-137668000D03*
X137033000Y-137668000D03*
X137033000Y-137033000D03*
X137795000Y-137033000D03*
X137795000Y-136398000D03*
X137795000Y-135763000D03*
X137033000Y-135763000D03*
X137033000Y-136398000D03*
X136779000Y-98806000D03*
X136144000Y-98806000D03*
X136144000Y-99441000D03*
X136144000Y-100076000D03*
X138049000Y-98806000D03*
X138684000Y-98806000D03*
X138684000Y-99441000D03*
X138684000Y-100076000D03*
X136779000Y-99441000D03*
X136779000Y-100076000D03*
X138049000Y-99441000D03*
X138049000Y-100076000D03*
X136398000Y-102743000D03*
X136398000Y-102108000D03*
X136398000Y-101473000D03*
X136779000Y-105791000D03*
X136017000Y-105791000D03*
X136017000Y-105156000D03*
X136017000Y-104521000D03*
X136017000Y-103886000D03*
X138049000Y-105791000D03*
X138811000Y-105791000D03*
X138811000Y-105156000D03*
X138811000Y-104521000D03*
X138811000Y-103886000D03*
X138430000Y-102743000D03*
X138430000Y-102108000D03*
X138430000Y-101473000D03*
X136779000Y-105156000D03*
X136779000Y-104521000D03*
X136779000Y-103886000D03*
X138049000Y-105156000D03*
X138049000Y-104521000D03*
X138049000Y-103886000D03*
X137795000Y-103378000D03*
X137033000Y-103378000D03*
X137033000Y-102743000D03*
X137795000Y-102743000D03*
X137795000Y-102108000D03*
X137795000Y-101473000D03*
X137033000Y-101473000D03*
X137033000Y-102108000D03*
X150749000Y-98806000D03*
X150114000Y-98806000D03*
X150114000Y-99441000D03*
X150114000Y-100076000D03*
X152019000Y-98806000D03*
X152654000Y-98806000D03*
X152654000Y-99441000D03*
X152654000Y-100076000D03*
X150749000Y-99441000D03*
X150749000Y-100076000D03*
X152019000Y-99441000D03*
X152019000Y-100076000D03*
X150368000Y-102743000D03*
X150368000Y-102108000D03*
X150368000Y-101473000D03*
X150749000Y-105791000D03*
X149987000Y-105791000D03*
X149987000Y-105156000D03*
X149987000Y-104521000D03*
X149987000Y-103886000D03*
X152019000Y-105791000D03*
X152781000Y-105791000D03*
X152781000Y-105156000D03*
X152781000Y-104521000D03*
X152781000Y-103886000D03*
X152400000Y-102743000D03*
X152400000Y-102108000D03*
X152400000Y-101473000D03*
X150749000Y-105156000D03*
X150749000Y-104521000D03*
X150749000Y-103886000D03*
X152019000Y-105156000D03*
X152019000Y-104521000D03*
X152019000Y-103886000D03*
X151765000Y-103378000D03*
X151003000Y-103378000D03*
X151003000Y-102743000D03*
X151765000Y-102743000D03*
X151765000Y-102108000D03*
X151765000Y-101473000D03*
X151003000Y-101473000D03*
X151003000Y-102108000D03*
X150749000Y-110236000D03*
X150114000Y-110236000D03*
X150114000Y-110871000D03*
X150114000Y-111506000D03*
X152019000Y-110236000D03*
X152654000Y-110236000D03*
X152654000Y-110871000D03*
X152654000Y-111506000D03*
X150749000Y-110871000D03*
X150749000Y-111506000D03*
X152019000Y-110871000D03*
X152019000Y-111506000D03*
X150368000Y-114173000D03*
X150368000Y-113538000D03*
X150368000Y-112903000D03*
X150749000Y-117221000D03*
X149987000Y-117221000D03*
X149987000Y-116586000D03*
X149987000Y-115951000D03*
X149987000Y-115316000D03*
X152019000Y-117221000D03*
X152781000Y-117221000D03*
X152781000Y-116586000D03*
X152781000Y-115951000D03*
X152781000Y-115316000D03*
X152400000Y-114173000D03*
X152400000Y-113538000D03*
X152400000Y-112903000D03*
X150749000Y-116586000D03*
X150749000Y-115951000D03*
X150749000Y-115316000D03*
X152019000Y-116586000D03*
X152019000Y-115951000D03*
X152019000Y-115316000D03*
X151765000Y-114808000D03*
X151003000Y-114808000D03*
X151003000Y-114173000D03*
X151765000Y-114173000D03*
X151765000Y-113538000D03*
X151765000Y-112903000D03*
X151003000Y-112903000D03*
X151003000Y-113538000D03*
X150749000Y-121666000D03*
X150114000Y-121666000D03*
X150114000Y-122301000D03*
X150114000Y-122936000D03*
X152019000Y-121666000D03*
X152654000Y-121666000D03*
X152654000Y-122301000D03*
X152654000Y-122936000D03*
X150749000Y-122301000D03*
X150749000Y-122936000D03*
X152019000Y-122301000D03*
X152019000Y-122936000D03*
X150368000Y-125603000D03*
X150368000Y-124968000D03*
X150368000Y-124333000D03*
X150749000Y-128651000D03*
X149987000Y-128651000D03*
X149987000Y-128016000D03*
X149987000Y-127381000D03*
X149987000Y-126746000D03*
X152019000Y-128651000D03*
X152781000Y-128651000D03*
X152781000Y-128016000D03*
X152781000Y-127381000D03*
X152781000Y-126746000D03*
X152400000Y-125603000D03*
X152400000Y-124968000D03*
X152400000Y-124333000D03*
X150749000Y-128016000D03*
X150749000Y-127381000D03*
X150749000Y-126746000D03*
X152019000Y-128016000D03*
X152019000Y-127381000D03*
X152019000Y-126746000D03*
X151765000Y-126238000D03*
X151003000Y-126238000D03*
X151003000Y-125603000D03*
X151765000Y-125603000D03*
X151765000Y-124968000D03*
X151765000Y-124333000D03*
X151003000Y-124333000D03*
X151003000Y-124968000D03*
X150749000Y-133096000D03*
X150114000Y-133096000D03*
X150114000Y-133731000D03*
X150114000Y-134366000D03*
X152019000Y-133096000D03*
X152654000Y-133096000D03*
X152654000Y-133731000D03*
X152654000Y-134366000D03*
X150749000Y-133731000D03*
X150749000Y-134366000D03*
X152019000Y-133731000D03*
X152019000Y-134366000D03*
X150368000Y-137033000D03*
X150368000Y-136398000D03*
X150368000Y-135763000D03*
X150749000Y-140081000D03*
X149987000Y-140081000D03*
X149987000Y-139446000D03*
X149987000Y-138811000D03*
X149987000Y-138176000D03*
X152019000Y-140081000D03*
X152781000Y-140081000D03*
X152781000Y-139446000D03*
X152781000Y-138811000D03*
X152781000Y-138176000D03*
X152400000Y-137033000D03*
X152400000Y-136398000D03*
X152400000Y-135763000D03*
X150749000Y-139446000D03*
X150749000Y-138811000D03*
X150749000Y-138176000D03*
X152019000Y-139446000D03*
X152019000Y-138811000D03*
X152019000Y-138176000D03*
X151765000Y-137668000D03*
X151003000Y-137668000D03*
X151003000Y-137033000D03*
X151765000Y-137033000D03*
X151765000Y-136398000D03*
X151765000Y-135763000D03*
X151003000Y-135763000D03*
X151003000Y-136398000D03*
D14*
G36*
X135636133Y-124180764D02*
X135636118Y-124197894D01*
X135630243Y-124213982D01*
X135635986Y-124348860D01*
X135635868Y-124483906D01*
X135642410Y-124499740D01*
X135643139Y-124516850D01*
X135700745Y-124655926D01*
X135687913Y-124691063D01*
X135636133Y-124815764D01*
X135636118Y-124832894D01*
X135630243Y-124848982D01*
X135635986Y-124983860D01*
X135635868Y-125118906D01*
X135642410Y-125134740D01*
X135643139Y-125151850D01*
X135700745Y-125290926D01*
X135687913Y-125326063D01*
X135636133Y-125450764D01*
X135636118Y-125467894D01*
X135630243Y-125483982D01*
X135635986Y-125618860D01*
X135635868Y-125753906D01*
X135642410Y-125769740D01*
X135643139Y-125786850D01*
X135734230Y-126006766D01*
X135740164Y-126006319D01*
X135748397Y-126026244D01*
X135613234Y-126082230D01*
X135613681Y-126088164D01*
X135585926Y-126099632D01*
X135371385Y-126313798D01*
X135359385Y-126342698D01*
X135353230Y-126342234D01*
X135306913Y-126469063D01*
X135255133Y-126593764D01*
X135255118Y-126610894D01*
X135249243Y-126626982D01*
X135254986Y-126761860D01*
X135254868Y-126896906D01*
X135261410Y-126912740D01*
X135262139Y-126929850D01*
X135319745Y-127068926D01*
X135306913Y-127104063D01*
X135255133Y-127228764D01*
X135255118Y-127245894D01*
X135249243Y-127261982D01*
X135254986Y-127396860D01*
X135254868Y-127531906D01*
X135261410Y-127547740D01*
X135262139Y-127564850D01*
X135319745Y-127703926D01*
X135306913Y-127739063D01*
X135255133Y-127863764D01*
X135255118Y-127880894D01*
X135249243Y-127896982D01*
X135254986Y-128031860D01*
X135254868Y-128166906D01*
X135261410Y-128182740D01*
X135262139Y-128199850D01*
X135319745Y-128338926D01*
X135306913Y-128374063D01*
X135255133Y-128498764D01*
X135255118Y-128515894D01*
X135249243Y-128531982D01*
X135254986Y-128666860D01*
X135254868Y-128801906D01*
X135261410Y-128817740D01*
X135262139Y-128834850D01*
X135353230Y-129054766D01*
X135359164Y-129054319D01*
X135370632Y-129082074D01*
X135584798Y-129296615D01*
X135613698Y-129308615D01*
X135613234Y-129314770D01*
X135740063Y-129361087D01*
X135864764Y-129412867D01*
X135881894Y-129412882D01*
X135882217Y-129413000D01*
X130937000Y-129413000D01*
X130937000Y-124079000D01*
X135678389Y-124079000D01*
X135636133Y-124180764D01*
X135636133Y-124180764D01*
G37*
X135636133Y-124180764D02*
X135636118Y-124197894D01*
X135630243Y-124213982D01*
X135635986Y-124348860D01*
X135635868Y-124483906D01*
X135642410Y-124499740D01*
X135643139Y-124516850D01*
X135700745Y-124655926D01*
X135687913Y-124691063D01*
X135636133Y-124815764D01*
X135636118Y-124832894D01*
X135630243Y-124848982D01*
X135635986Y-124983860D01*
X135635868Y-125118906D01*
X135642410Y-125134740D01*
X135643139Y-125151850D01*
X135700745Y-125290926D01*
X135687913Y-125326063D01*
X135636133Y-125450764D01*
X135636118Y-125467894D01*
X135630243Y-125483982D01*
X135635986Y-125618860D01*
X135635868Y-125753906D01*
X135642410Y-125769740D01*
X135643139Y-125786850D01*
X135734230Y-126006766D01*
X135740164Y-126006319D01*
X135748397Y-126026244D01*
X135613234Y-126082230D01*
X135613681Y-126088164D01*
X135585926Y-126099632D01*
X135371385Y-126313798D01*
X135359385Y-126342698D01*
X135353230Y-126342234D01*
X135306913Y-126469063D01*
X135255133Y-126593764D01*
X135255118Y-126610894D01*
X135249243Y-126626982D01*
X135254986Y-126761860D01*
X135254868Y-126896906D01*
X135261410Y-126912740D01*
X135262139Y-126929850D01*
X135319745Y-127068926D01*
X135306913Y-127104063D01*
X135255133Y-127228764D01*
X135255118Y-127245894D01*
X135249243Y-127261982D01*
X135254986Y-127396860D01*
X135254868Y-127531906D01*
X135261410Y-127547740D01*
X135262139Y-127564850D01*
X135319745Y-127703926D01*
X135306913Y-127739063D01*
X135255133Y-127863764D01*
X135255118Y-127880894D01*
X135249243Y-127896982D01*
X135254986Y-128031860D01*
X135254868Y-128166906D01*
X135261410Y-128182740D01*
X135262139Y-128199850D01*
X135319745Y-128338926D01*
X135306913Y-128374063D01*
X135255133Y-128498764D01*
X135255118Y-128515894D01*
X135249243Y-128531982D01*
X135254986Y-128666860D01*
X135254868Y-128801906D01*
X135261410Y-128817740D01*
X135262139Y-128834850D01*
X135353230Y-129054766D01*
X135359164Y-129054319D01*
X135370632Y-129082074D01*
X135584798Y-129296615D01*
X135613698Y-129308615D01*
X135613234Y-129314770D01*
X135740063Y-129361087D01*
X135864764Y-129412867D01*
X135881894Y-129412882D01*
X135882217Y-129413000D01*
X130937000Y-129413000D01*
X130937000Y-124079000D01*
X135678389Y-124079000D01*
X135636133Y-124180764D01*
G36*
X136502063Y-129361087D02*
X136626764Y-129412867D01*
X136643894Y-129412882D01*
X136644217Y-129413000D01*
X136168225Y-129413000D01*
X136183740Y-129406590D01*
X136200850Y-129405861D01*
X136399432Y-129323607D01*
X136502063Y-129361087D01*
X136502063Y-129361087D01*
G37*
X136502063Y-129361087D02*
X136626764Y-129412867D01*
X136643894Y-129412882D01*
X136644217Y-129413000D01*
X136168225Y-129413000D01*
X136183740Y-129406590D01*
X136200850Y-129405861D01*
X136399432Y-129323607D01*
X136502063Y-129361087D01*
G36*
X137616798Y-129296615D02*
X137645698Y-129308615D01*
X137645234Y-129314770D01*
X137772063Y-129361087D01*
X137896764Y-129412867D01*
X137913894Y-129412882D01*
X137914217Y-129413000D01*
X136930225Y-129413000D01*
X136945740Y-129406590D01*
X136962850Y-129405861D01*
X137182766Y-129314770D01*
X137182319Y-129308836D01*
X137210074Y-129297368D01*
X137414168Y-129093630D01*
X137616798Y-129296615D01*
X137616798Y-129296615D01*
G37*
X137616798Y-129296615D02*
X137645698Y-129308615D01*
X137645234Y-129314770D01*
X137772063Y-129361087D01*
X137896764Y-129412867D01*
X137913894Y-129412882D01*
X137914217Y-129413000D01*
X136930225Y-129413000D01*
X136945740Y-129406590D01*
X136962850Y-129405861D01*
X137182766Y-129314770D01*
X137182319Y-129308836D01*
X137210074Y-129297368D01*
X137414168Y-129093630D01*
X137616798Y-129296615D01*
G36*
X138534063Y-129361087D02*
X138658764Y-129412867D01*
X138675894Y-129412882D01*
X138676217Y-129413000D01*
X138200225Y-129413000D01*
X138215740Y-129406590D01*
X138232850Y-129405861D01*
X138431432Y-129323607D01*
X138534063Y-129361087D01*
X138534063Y-129361087D01*
G37*
X138534063Y-129361087D02*
X138658764Y-129412867D01*
X138675894Y-129412882D01*
X138676217Y-129413000D01*
X138200225Y-129413000D01*
X138215740Y-129406590D01*
X138232850Y-129405861D01*
X138431432Y-129323607D01*
X138534063Y-129361087D01*
G36*
X143891000Y-129413000D02*
X138962225Y-129413000D01*
X138977740Y-129406590D01*
X138994850Y-129405861D01*
X139214766Y-129314770D01*
X139214319Y-129308836D01*
X139242074Y-129297368D01*
X139456615Y-129083202D01*
X139468615Y-129054302D01*
X139474770Y-129054766D01*
X139521087Y-128927937D01*
X139572867Y-128803236D01*
X139572882Y-128786106D01*
X139578757Y-128770018D01*
X139573014Y-128635140D01*
X139573132Y-128500094D01*
X139566590Y-128484260D01*
X139565861Y-128467150D01*
X139508255Y-128328074D01*
X139521087Y-128292937D01*
X139572867Y-128168236D01*
X139572882Y-128151106D01*
X139578757Y-128135018D01*
X139573014Y-128000140D01*
X139573132Y-127865094D01*
X139566590Y-127849260D01*
X139565861Y-127832150D01*
X139508255Y-127693074D01*
X139521087Y-127657937D01*
X139572867Y-127533236D01*
X139572882Y-127516106D01*
X139578757Y-127500018D01*
X139573014Y-127365140D01*
X139573132Y-127230094D01*
X139566590Y-127214260D01*
X139565861Y-127197150D01*
X139508255Y-127058074D01*
X139521087Y-127022937D01*
X139572867Y-126898236D01*
X139572882Y-126881106D01*
X139578757Y-126865018D01*
X139573014Y-126730140D01*
X139573132Y-126595094D01*
X139566590Y-126579260D01*
X139565861Y-126562150D01*
X139474770Y-126342234D01*
X139468836Y-126342681D01*
X139457368Y-126314926D01*
X139243202Y-126100385D01*
X139214302Y-126088385D01*
X139214766Y-126082230D01*
X139087937Y-126035913D01*
X139077175Y-126031445D01*
X139087615Y-126006302D01*
X139093770Y-126006766D01*
X139140087Y-125879937D01*
X139191867Y-125755236D01*
X139191882Y-125738106D01*
X139197757Y-125722018D01*
X139192014Y-125587140D01*
X139192132Y-125452094D01*
X139185590Y-125436260D01*
X139184861Y-125419150D01*
X139127255Y-125280074D01*
X139140087Y-125244937D01*
X139191867Y-125120236D01*
X139191882Y-125103106D01*
X139197757Y-125087018D01*
X139192014Y-124952140D01*
X139192132Y-124817094D01*
X139185590Y-124801260D01*
X139184861Y-124784150D01*
X139127255Y-124645074D01*
X139140087Y-124609937D01*
X139191867Y-124485236D01*
X139191882Y-124468106D01*
X139197757Y-124452018D01*
X139192014Y-124317140D01*
X139192132Y-124182094D01*
X139185590Y-124166260D01*
X139184861Y-124149150D01*
X139155804Y-124079000D01*
X143891000Y-124079000D01*
X143891000Y-129413000D01*
X143891000Y-129413000D01*
G37*
X143891000Y-129413000D02*
X138962225Y-129413000D01*
X138977740Y-129406590D01*
X138994850Y-129405861D01*
X139214766Y-129314770D01*
X139214319Y-129308836D01*
X139242074Y-129297368D01*
X139456615Y-129083202D01*
X139468615Y-129054302D01*
X139474770Y-129054766D01*
X139521087Y-128927937D01*
X139572867Y-128803236D01*
X139572882Y-128786106D01*
X139578757Y-128770018D01*
X139573014Y-128635140D01*
X139573132Y-128500094D01*
X139566590Y-128484260D01*
X139565861Y-128467150D01*
X139508255Y-128328074D01*
X139521087Y-128292937D01*
X139572867Y-128168236D01*
X139572882Y-128151106D01*
X139578757Y-128135018D01*
X139573014Y-128000140D01*
X139573132Y-127865094D01*
X139566590Y-127849260D01*
X139565861Y-127832150D01*
X139508255Y-127693074D01*
X139521087Y-127657937D01*
X139572867Y-127533236D01*
X139572882Y-127516106D01*
X139578757Y-127500018D01*
X139573014Y-127365140D01*
X139573132Y-127230094D01*
X139566590Y-127214260D01*
X139565861Y-127197150D01*
X139508255Y-127058074D01*
X139521087Y-127022937D01*
X139572867Y-126898236D01*
X139572882Y-126881106D01*
X139578757Y-126865018D01*
X139573014Y-126730140D01*
X139573132Y-126595094D01*
X139566590Y-126579260D01*
X139565861Y-126562150D01*
X139474770Y-126342234D01*
X139468836Y-126342681D01*
X139457368Y-126314926D01*
X139243202Y-126100385D01*
X139214302Y-126088385D01*
X139214766Y-126082230D01*
X139087937Y-126035913D01*
X139077175Y-126031445D01*
X139087615Y-126006302D01*
X139093770Y-126006766D01*
X139140087Y-125879937D01*
X139191867Y-125755236D01*
X139191882Y-125738106D01*
X139197757Y-125722018D01*
X139192014Y-125587140D01*
X139192132Y-125452094D01*
X139185590Y-125436260D01*
X139184861Y-125419150D01*
X139127255Y-125280074D01*
X139140087Y-125244937D01*
X139191867Y-125120236D01*
X139191882Y-125103106D01*
X139197757Y-125087018D01*
X139192014Y-124952140D01*
X139192132Y-124817094D01*
X139185590Y-124801260D01*
X139184861Y-124784150D01*
X139127255Y-124645074D01*
X139140087Y-124609937D01*
X139191867Y-124485236D01*
X139191882Y-124468106D01*
X139197757Y-124452018D01*
X139192014Y-124317140D01*
X139192132Y-124182094D01*
X139185590Y-124166260D01*
X139184861Y-124149150D01*
X139155804Y-124079000D01*
X143891000Y-124079000D01*
X143891000Y-129413000D01*
G36*
X149606133Y-124180764D02*
X149606118Y-124197894D01*
X149600243Y-124213982D01*
X149605986Y-124348860D01*
X149605868Y-124483906D01*
X149612410Y-124499740D01*
X149613139Y-124516850D01*
X149670745Y-124655926D01*
X149657913Y-124691063D01*
X149606133Y-124815764D01*
X149606118Y-124832894D01*
X149600243Y-124848982D01*
X149605986Y-124983860D01*
X149605868Y-125118906D01*
X149612410Y-125134740D01*
X149613139Y-125151850D01*
X149670745Y-125290926D01*
X149657913Y-125326063D01*
X149606133Y-125450764D01*
X149606118Y-125467894D01*
X149600243Y-125483982D01*
X149605986Y-125618860D01*
X149605868Y-125753906D01*
X149612410Y-125769740D01*
X149613139Y-125786850D01*
X149704230Y-126006766D01*
X149710164Y-126006319D01*
X149718397Y-126026244D01*
X149583234Y-126082230D01*
X149583681Y-126088164D01*
X149555926Y-126099632D01*
X149341385Y-126313798D01*
X149329385Y-126342698D01*
X149323230Y-126342234D01*
X149276913Y-126469063D01*
X149225133Y-126593764D01*
X149225118Y-126610894D01*
X149219243Y-126626982D01*
X149224986Y-126761860D01*
X149224868Y-126896906D01*
X149231410Y-126912740D01*
X149232139Y-126929850D01*
X149289745Y-127068926D01*
X149276913Y-127104063D01*
X149225133Y-127228764D01*
X149225118Y-127245894D01*
X149219243Y-127261982D01*
X149224986Y-127396860D01*
X149224868Y-127531906D01*
X149231410Y-127547740D01*
X149232139Y-127564850D01*
X149289745Y-127703926D01*
X149276913Y-127739063D01*
X149225133Y-127863764D01*
X149225118Y-127880894D01*
X149219243Y-127896982D01*
X149224986Y-128031860D01*
X149224868Y-128166906D01*
X149231410Y-128182740D01*
X149232139Y-128199850D01*
X149289745Y-128338926D01*
X149276913Y-128374063D01*
X149225133Y-128498764D01*
X149225118Y-128515894D01*
X149219243Y-128531982D01*
X149224986Y-128666860D01*
X149224868Y-128801906D01*
X149231410Y-128817740D01*
X149232139Y-128834850D01*
X149323230Y-129054766D01*
X149329164Y-129054319D01*
X149340632Y-129082074D01*
X149554798Y-129296615D01*
X149583698Y-129308615D01*
X149583234Y-129314770D01*
X149710063Y-129361087D01*
X149834764Y-129412867D01*
X149851894Y-129412882D01*
X149852217Y-129413000D01*
X144907000Y-129413000D01*
X144907000Y-124079000D01*
X149648389Y-124079000D01*
X149606133Y-124180764D01*
X149606133Y-124180764D01*
G37*
X149606133Y-124180764D02*
X149606118Y-124197894D01*
X149600243Y-124213982D01*
X149605986Y-124348860D01*
X149605868Y-124483906D01*
X149612410Y-124499740D01*
X149613139Y-124516850D01*
X149670745Y-124655926D01*
X149657913Y-124691063D01*
X149606133Y-124815764D01*
X149606118Y-124832894D01*
X149600243Y-124848982D01*
X149605986Y-124983860D01*
X149605868Y-125118906D01*
X149612410Y-125134740D01*
X149613139Y-125151850D01*
X149670745Y-125290926D01*
X149657913Y-125326063D01*
X149606133Y-125450764D01*
X149606118Y-125467894D01*
X149600243Y-125483982D01*
X149605986Y-125618860D01*
X149605868Y-125753906D01*
X149612410Y-125769740D01*
X149613139Y-125786850D01*
X149704230Y-126006766D01*
X149710164Y-126006319D01*
X149718397Y-126026244D01*
X149583234Y-126082230D01*
X149583681Y-126088164D01*
X149555926Y-126099632D01*
X149341385Y-126313798D01*
X149329385Y-126342698D01*
X149323230Y-126342234D01*
X149276913Y-126469063D01*
X149225133Y-126593764D01*
X149225118Y-126610894D01*
X149219243Y-126626982D01*
X149224986Y-126761860D01*
X149224868Y-126896906D01*
X149231410Y-126912740D01*
X149232139Y-126929850D01*
X149289745Y-127068926D01*
X149276913Y-127104063D01*
X149225133Y-127228764D01*
X149225118Y-127245894D01*
X149219243Y-127261982D01*
X149224986Y-127396860D01*
X149224868Y-127531906D01*
X149231410Y-127547740D01*
X149232139Y-127564850D01*
X149289745Y-127703926D01*
X149276913Y-127739063D01*
X149225133Y-127863764D01*
X149225118Y-127880894D01*
X149219243Y-127896982D01*
X149224986Y-128031860D01*
X149224868Y-128166906D01*
X149231410Y-128182740D01*
X149232139Y-128199850D01*
X149289745Y-128338926D01*
X149276913Y-128374063D01*
X149225133Y-128498764D01*
X149225118Y-128515894D01*
X149219243Y-128531982D01*
X149224986Y-128666860D01*
X149224868Y-128801906D01*
X149231410Y-128817740D01*
X149232139Y-128834850D01*
X149323230Y-129054766D01*
X149329164Y-129054319D01*
X149340632Y-129082074D01*
X149554798Y-129296615D01*
X149583698Y-129308615D01*
X149583234Y-129314770D01*
X149710063Y-129361087D01*
X149834764Y-129412867D01*
X149851894Y-129412882D01*
X149852217Y-129413000D01*
X144907000Y-129413000D01*
X144907000Y-124079000D01*
X149648389Y-124079000D01*
X149606133Y-124180764D01*
G36*
X150472063Y-129361087D02*
X150596764Y-129412867D01*
X150613894Y-129412882D01*
X150614217Y-129413000D01*
X150138225Y-129413000D01*
X150153740Y-129406590D01*
X150170850Y-129405861D01*
X150369432Y-129323607D01*
X150472063Y-129361087D01*
X150472063Y-129361087D01*
G37*
X150472063Y-129361087D02*
X150596764Y-129412867D01*
X150613894Y-129412882D01*
X150614217Y-129413000D01*
X150138225Y-129413000D01*
X150153740Y-129406590D01*
X150170850Y-129405861D01*
X150369432Y-129323607D01*
X150472063Y-129361087D01*
G36*
X151586798Y-129296615D02*
X151615698Y-129308615D01*
X151615234Y-129314770D01*
X151742063Y-129361087D01*
X151866764Y-129412867D01*
X151883894Y-129412882D01*
X151884217Y-129413000D01*
X150900225Y-129413000D01*
X150915740Y-129406590D01*
X150932850Y-129405861D01*
X151152766Y-129314770D01*
X151152319Y-129308836D01*
X151180074Y-129297368D01*
X151384168Y-129093630D01*
X151586798Y-129296615D01*
X151586798Y-129296615D01*
G37*
X151586798Y-129296615D02*
X151615698Y-129308615D01*
X151615234Y-129314770D01*
X151742063Y-129361087D01*
X151866764Y-129412867D01*
X151883894Y-129412882D01*
X151884217Y-129413000D01*
X150900225Y-129413000D01*
X150915740Y-129406590D01*
X150932850Y-129405861D01*
X151152766Y-129314770D01*
X151152319Y-129308836D01*
X151180074Y-129297368D01*
X151384168Y-129093630D01*
X151586798Y-129296615D01*
G36*
X152504063Y-129361087D02*
X152628764Y-129412867D01*
X152645894Y-129412882D01*
X152646217Y-129413000D01*
X152170225Y-129413000D01*
X152185740Y-129406590D01*
X152202850Y-129405861D01*
X152401432Y-129323607D01*
X152504063Y-129361087D01*
X152504063Y-129361087D01*
G37*
X152504063Y-129361087D02*
X152628764Y-129412867D01*
X152645894Y-129412882D01*
X152646217Y-129413000D01*
X152170225Y-129413000D01*
X152185740Y-129406590D01*
X152202850Y-129405861D01*
X152401432Y-129323607D01*
X152504063Y-129361087D01*
G36*
X157861000Y-129413000D02*
X152932225Y-129413000D01*
X152947740Y-129406590D01*
X152964850Y-129405861D01*
X153184766Y-129314770D01*
X153184319Y-129308836D01*
X153212074Y-129297368D01*
X153426615Y-129083202D01*
X153438615Y-129054302D01*
X153444770Y-129054766D01*
X153491087Y-128927937D01*
X153542867Y-128803236D01*
X153542882Y-128786106D01*
X153548757Y-128770018D01*
X153543014Y-128635140D01*
X153543132Y-128500094D01*
X153536590Y-128484260D01*
X153535861Y-128467150D01*
X153478255Y-128328074D01*
X153491087Y-128292937D01*
X153542867Y-128168236D01*
X153542882Y-128151106D01*
X153548757Y-128135018D01*
X153543014Y-128000140D01*
X153543132Y-127865094D01*
X153536590Y-127849260D01*
X153535861Y-127832150D01*
X153478255Y-127693074D01*
X153491087Y-127657937D01*
X153542867Y-127533236D01*
X153542882Y-127516106D01*
X153548757Y-127500018D01*
X153543014Y-127365140D01*
X153543132Y-127230094D01*
X153536590Y-127214260D01*
X153535861Y-127197150D01*
X153478255Y-127058074D01*
X153491087Y-127022937D01*
X153542867Y-126898236D01*
X153542882Y-126881106D01*
X153548757Y-126865018D01*
X153543014Y-126730140D01*
X153543132Y-126595094D01*
X153536590Y-126579260D01*
X153535861Y-126562150D01*
X153444770Y-126342234D01*
X153438836Y-126342681D01*
X153427368Y-126314926D01*
X153213202Y-126100385D01*
X153184302Y-126088385D01*
X153184766Y-126082230D01*
X153057937Y-126035913D01*
X153047175Y-126031445D01*
X153057615Y-126006302D01*
X153063770Y-126006766D01*
X153110087Y-125879937D01*
X153161867Y-125755236D01*
X153161882Y-125738106D01*
X153167757Y-125722018D01*
X153162014Y-125587140D01*
X153162132Y-125452094D01*
X153155590Y-125436260D01*
X153154861Y-125419150D01*
X153097255Y-125280074D01*
X153110087Y-125244937D01*
X153161867Y-125120236D01*
X153161882Y-125103106D01*
X153167757Y-125087018D01*
X153162014Y-124952140D01*
X153162132Y-124817094D01*
X153155590Y-124801260D01*
X153154861Y-124784150D01*
X153097255Y-124645074D01*
X153110087Y-124609937D01*
X153161867Y-124485236D01*
X153161882Y-124468106D01*
X153167757Y-124452018D01*
X153162014Y-124317140D01*
X153162132Y-124182094D01*
X153155590Y-124166260D01*
X153154861Y-124149150D01*
X153125804Y-124079000D01*
X157861000Y-124079000D01*
X157861000Y-129413000D01*
X157861000Y-129413000D01*
G37*
X157861000Y-129413000D02*
X152932225Y-129413000D01*
X152947740Y-129406590D01*
X152964850Y-129405861D01*
X153184766Y-129314770D01*
X153184319Y-129308836D01*
X153212074Y-129297368D01*
X153426615Y-129083202D01*
X153438615Y-129054302D01*
X153444770Y-129054766D01*
X153491087Y-128927937D01*
X153542867Y-128803236D01*
X153542882Y-128786106D01*
X153548757Y-128770018D01*
X153543014Y-128635140D01*
X153543132Y-128500094D01*
X153536590Y-128484260D01*
X153535861Y-128467150D01*
X153478255Y-128328074D01*
X153491087Y-128292937D01*
X153542867Y-128168236D01*
X153542882Y-128151106D01*
X153548757Y-128135018D01*
X153543014Y-128000140D01*
X153543132Y-127865094D01*
X153536590Y-127849260D01*
X153535861Y-127832150D01*
X153478255Y-127693074D01*
X153491087Y-127657937D01*
X153542867Y-127533236D01*
X153542882Y-127516106D01*
X153548757Y-127500018D01*
X153543014Y-127365140D01*
X153543132Y-127230094D01*
X153536590Y-127214260D01*
X153535861Y-127197150D01*
X153478255Y-127058074D01*
X153491087Y-127022937D01*
X153542867Y-126898236D01*
X153542882Y-126881106D01*
X153548757Y-126865018D01*
X153543014Y-126730140D01*
X153543132Y-126595094D01*
X153536590Y-126579260D01*
X153535861Y-126562150D01*
X153444770Y-126342234D01*
X153438836Y-126342681D01*
X153427368Y-126314926D01*
X153213202Y-126100385D01*
X153184302Y-126088385D01*
X153184766Y-126082230D01*
X153057937Y-126035913D01*
X153047175Y-126031445D01*
X153057615Y-126006302D01*
X153063770Y-126006766D01*
X153110087Y-125879937D01*
X153161867Y-125755236D01*
X153161882Y-125738106D01*
X153167757Y-125722018D01*
X153162014Y-125587140D01*
X153162132Y-125452094D01*
X153155590Y-125436260D01*
X153154861Y-125419150D01*
X153097255Y-125280074D01*
X153110087Y-125244937D01*
X153161867Y-125120236D01*
X153161882Y-125103106D01*
X153167757Y-125087018D01*
X153162014Y-124952140D01*
X153162132Y-124817094D01*
X153155590Y-124801260D01*
X153154861Y-124784150D01*
X153097255Y-124645074D01*
X153110087Y-124609937D01*
X153161867Y-124485236D01*
X153161882Y-124468106D01*
X153167757Y-124452018D01*
X153162014Y-124317140D01*
X153162132Y-124182094D01*
X153155590Y-124166260D01*
X153154861Y-124149150D01*
X153125804Y-124079000D01*
X157861000Y-124079000D01*
X157861000Y-129413000D01*
G36*
X149606133Y-135610764D02*
X149606118Y-135627894D01*
X149600243Y-135643982D01*
X149605986Y-135778860D01*
X149605868Y-135913906D01*
X149612410Y-135929740D01*
X149613139Y-135946850D01*
X149670745Y-136085926D01*
X149657913Y-136121063D01*
X149606133Y-136245764D01*
X149606118Y-136262894D01*
X149600243Y-136278982D01*
X149605986Y-136413860D01*
X149605868Y-136548906D01*
X149612410Y-136564740D01*
X149613139Y-136581850D01*
X149670745Y-136720926D01*
X149657913Y-136756063D01*
X149606133Y-136880764D01*
X149606118Y-136897894D01*
X149600243Y-136913982D01*
X149605986Y-137048860D01*
X149605868Y-137183906D01*
X149612410Y-137199740D01*
X149613139Y-137216850D01*
X149704230Y-137436766D01*
X149710164Y-137436319D01*
X149718397Y-137456244D01*
X149583234Y-137512230D01*
X149583681Y-137518164D01*
X149555926Y-137529632D01*
X149341385Y-137743798D01*
X149329385Y-137772698D01*
X149323230Y-137772234D01*
X149276913Y-137899063D01*
X149225133Y-138023764D01*
X149225118Y-138040894D01*
X149219243Y-138056982D01*
X149224986Y-138191860D01*
X149224868Y-138326906D01*
X149231410Y-138342740D01*
X149232139Y-138359850D01*
X149289745Y-138498926D01*
X149276913Y-138534063D01*
X149225133Y-138658764D01*
X149225118Y-138675894D01*
X149219243Y-138691982D01*
X149224986Y-138826860D01*
X149224868Y-138961906D01*
X149231410Y-138977740D01*
X149232139Y-138994850D01*
X149289745Y-139133926D01*
X149276913Y-139169063D01*
X149225133Y-139293764D01*
X149225118Y-139310894D01*
X149219243Y-139326982D01*
X149224986Y-139461860D01*
X149224868Y-139596906D01*
X149231410Y-139612740D01*
X149232139Y-139629850D01*
X149289745Y-139768926D01*
X149276913Y-139804063D01*
X149225133Y-139928764D01*
X149225118Y-139945894D01*
X149219243Y-139961982D01*
X149224986Y-140096860D01*
X149224868Y-140231906D01*
X149231410Y-140247740D01*
X149232139Y-140264850D01*
X149323230Y-140484766D01*
X149329164Y-140484319D01*
X149340632Y-140512074D01*
X149554798Y-140726615D01*
X149583698Y-140738615D01*
X149583234Y-140744770D01*
X149710063Y-140791087D01*
X149834764Y-140842867D01*
X149851894Y-140842882D01*
X149852217Y-140843000D01*
X144907000Y-140843000D01*
X144907000Y-135509000D01*
X149648389Y-135509000D01*
X149606133Y-135610764D01*
X149606133Y-135610764D01*
G37*
X149606133Y-135610764D02*
X149606118Y-135627894D01*
X149600243Y-135643982D01*
X149605986Y-135778860D01*
X149605868Y-135913906D01*
X149612410Y-135929740D01*
X149613139Y-135946850D01*
X149670745Y-136085926D01*
X149657913Y-136121063D01*
X149606133Y-136245764D01*
X149606118Y-136262894D01*
X149600243Y-136278982D01*
X149605986Y-136413860D01*
X149605868Y-136548906D01*
X149612410Y-136564740D01*
X149613139Y-136581850D01*
X149670745Y-136720926D01*
X149657913Y-136756063D01*
X149606133Y-136880764D01*
X149606118Y-136897894D01*
X149600243Y-136913982D01*
X149605986Y-137048860D01*
X149605868Y-137183906D01*
X149612410Y-137199740D01*
X149613139Y-137216850D01*
X149704230Y-137436766D01*
X149710164Y-137436319D01*
X149718397Y-137456244D01*
X149583234Y-137512230D01*
X149583681Y-137518164D01*
X149555926Y-137529632D01*
X149341385Y-137743798D01*
X149329385Y-137772698D01*
X149323230Y-137772234D01*
X149276913Y-137899063D01*
X149225133Y-138023764D01*
X149225118Y-138040894D01*
X149219243Y-138056982D01*
X149224986Y-138191860D01*
X149224868Y-138326906D01*
X149231410Y-138342740D01*
X149232139Y-138359850D01*
X149289745Y-138498926D01*
X149276913Y-138534063D01*
X149225133Y-138658764D01*
X149225118Y-138675894D01*
X149219243Y-138691982D01*
X149224986Y-138826860D01*
X149224868Y-138961906D01*
X149231410Y-138977740D01*
X149232139Y-138994850D01*
X149289745Y-139133926D01*
X149276913Y-139169063D01*
X149225133Y-139293764D01*
X149225118Y-139310894D01*
X149219243Y-139326982D01*
X149224986Y-139461860D01*
X149224868Y-139596906D01*
X149231410Y-139612740D01*
X149232139Y-139629850D01*
X149289745Y-139768926D01*
X149276913Y-139804063D01*
X149225133Y-139928764D01*
X149225118Y-139945894D01*
X149219243Y-139961982D01*
X149224986Y-140096860D01*
X149224868Y-140231906D01*
X149231410Y-140247740D01*
X149232139Y-140264850D01*
X149323230Y-140484766D01*
X149329164Y-140484319D01*
X149340632Y-140512074D01*
X149554798Y-140726615D01*
X149583698Y-140738615D01*
X149583234Y-140744770D01*
X149710063Y-140791087D01*
X149834764Y-140842867D01*
X149851894Y-140842882D01*
X149852217Y-140843000D01*
X144907000Y-140843000D01*
X144907000Y-135509000D01*
X149648389Y-135509000D01*
X149606133Y-135610764D01*
G36*
X150472063Y-140791087D02*
X150596764Y-140842867D01*
X150613894Y-140842882D01*
X150614217Y-140843000D01*
X150138225Y-140843000D01*
X150153740Y-140836590D01*
X150170850Y-140835861D01*
X150369432Y-140753607D01*
X150472063Y-140791087D01*
X150472063Y-140791087D01*
G37*
X150472063Y-140791087D02*
X150596764Y-140842867D01*
X150613894Y-140842882D01*
X150614217Y-140843000D01*
X150138225Y-140843000D01*
X150153740Y-140836590D01*
X150170850Y-140835861D01*
X150369432Y-140753607D01*
X150472063Y-140791087D01*
G36*
X151586798Y-140726615D02*
X151615698Y-140738615D01*
X151615234Y-140744770D01*
X151742063Y-140791087D01*
X151866764Y-140842867D01*
X151883894Y-140842882D01*
X151884217Y-140843000D01*
X150900225Y-140843000D01*
X150915740Y-140836590D01*
X150932850Y-140835861D01*
X151152766Y-140744770D01*
X151152319Y-140738836D01*
X151180074Y-140727368D01*
X151384168Y-140523630D01*
X151586798Y-140726615D01*
X151586798Y-140726615D01*
G37*
X151586798Y-140726615D02*
X151615698Y-140738615D01*
X151615234Y-140744770D01*
X151742063Y-140791087D01*
X151866764Y-140842867D01*
X151883894Y-140842882D01*
X151884217Y-140843000D01*
X150900225Y-140843000D01*
X150915740Y-140836590D01*
X150932850Y-140835861D01*
X151152766Y-140744770D01*
X151152319Y-140738836D01*
X151180074Y-140727368D01*
X151384168Y-140523630D01*
X151586798Y-140726615D01*
G36*
X152504063Y-140791087D02*
X152628764Y-140842867D01*
X152645894Y-140842882D01*
X152646217Y-140843000D01*
X152170225Y-140843000D01*
X152185740Y-140836590D01*
X152202850Y-140835861D01*
X152401432Y-140753607D01*
X152504063Y-140791087D01*
X152504063Y-140791087D01*
G37*
X152504063Y-140791087D02*
X152628764Y-140842867D01*
X152645894Y-140842882D01*
X152646217Y-140843000D01*
X152170225Y-140843000D01*
X152185740Y-140836590D01*
X152202850Y-140835861D01*
X152401432Y-140753607D01*
X152504063Y-140791087D01*
G36*
X157861000Y-140843000D02*
X152932225Y-140843000D01*
X152947740Y-140836590D01*
X152964850Y-140835861D01*
X153184766Y-140744770D01*
X153184319Y-140738836D01*
X153212074Y-140727368D01*
X153426615Y-140513202D01*
X153438615Y-140484302D01*
X153444770Y-140484766D01*
X153491087Y-140357937D01*
X153542867Y-140233236D01*
X153542882Y-140216106D01*
X153548757Y-140200018D01*
X153543014Y-140065140D01*
X153543132Y-139930094D01*
X153536590Y-139914260D01*
X153535861Y-139897150D01*
X153478255Y-139758074D01*
X153491087Y-139722937D01*
X153542867Y-139598236D01*
X153542882Y-139581106D01*
X153548757Y-139565018D01*
X153543014Y-139430140D01*
X153543132Y-139295094D01*
X153536590Y-139279260D01*
X153535861Y-139262150D01*
X153478255Y-139123074D01*
X153491087Y-139087937D01*
X153542867Y-138963236D01*
X153542882Y-138946106D01*
X153548757Y-138930018D01*
X153543014Y-138795140D01*
X153543132Y-138660094D01*
X153536590Y-138644260D01*
X153535861Y-138627150D01*
X153478255Y-138488074D01*
X153491087Y-138452937D01*
X153542867Y-138328236D01*
X153542882Y-138311106D01*
X153548757Y-138295018D01*
X153543014Y-138160140D01*
X153543132Y-138025094D01*
X153536590Y-138009260D01*
X153535861Y-137992150D01*
X153444770Y-137772234D01*
X153438836Y-137772681D01*
X153427368Y-137744926D01*
X153213202Y-137530385D01*
X153184302Y-137518385D01*
X153184766Y-137512230D01*
X153057937Y-137465913D01*
X153047175Y-137461445D01*
X153057615Y-137436302D01*
X153063770Y-137436766D01*
X153110087Y-137309937D01*
X153161867Y-137185236D01*
X153161882Y-137168106D01*
X153167757Y-137152018D01*
X153162014Y-137017140D01*
X153162132Y-136882094D01*
X153155590Y-136866260D01*
X153154861Y-136849150D01*
X153097255Y-136710074D01*
X153110087Y-136674937D01*
X153161867Y-136550236D01*
X153161882Y-136533106D01*
X153167757Y-136517018D01*
X153162014Y-136382140D01*
X153162132Y-136247094D01*
X153155590Y-136231260D01*
X153154861Y-136214150D01*
X153097255Y-136075074D01*
X153110087Y-136039937D01*
X153161867Y-135915236D01*
X153161882Y-135898106D01*
X153167757Y-135882018D01*
X153162014Y-135747140D01*
X153162132Y-135612094D01*
X153155590Y-135596260D01*
X153154861Y-135579150D01*
X153125804Y-135509000D01*
X157861000Y-135509000D01*
X157861000Y-140843000D01*
X157861000Y-140843000D01*
G37*
X157861000Y-140843000D02*
X152932225Y-140843000D01*
X152947740Y-140836590D01*
X152964850Y-140835861D01*
X153184766Y-140744770D01*
X153184319Y-140738836D01*
X153212074Y-140727368D01*
X153426615Y-140513202D01*
X153438615Y-140484302D01*
X153444770Y-140484766D01*
X153491087Y-140357937D01*
X153542867Y-140233236D01*
X153542882Y-140216106D01*
X153548757Y-140200018D01*
X153543014Y-140065140D01*
X153543132Y-139930094D01*
X153536590Y-139914260D01*
X153535861Y-139897150D01*
X153478255Y-139758074D01*
X153491087Y-139722937D01*
X153542867Y-139598236D01*
X153542882Y-139581106D01*
X153548757Y-139565018D01*
X153543014Y-139430140D01*
X153543132Y-139295094D01*
X153536590Y-139279260D01*
X153535861Y-139262150D01*
X153478255Y-139123074D01*
X153491087Y-139087937D01*
X153542867Y-138963236D01*
X153542882Y-138946106D01*
X153548757Y-138930018D01*
X153543014Y-138795140D01*
X153543132Y-138660094D01*
X153536590Y-138644260D01*
X153535861Y-138627150D01*
X153478255Y-138488074D01*
X153491087Y-138452937D01*
X153542867Y-138328236D01*
X153542882Y-138311106D01*
X153548757Y-138295018D01*
X153543014Y-138160140D01*
X153543132Y-138025094D01*
X153536590Y-138009260D01*
X153535861Y-137992150D01*
X153444770Y-137772234D01*
X153438836Y-137772681D01*
X153427368Y-137744926D01*
X153213202Y-137530385D01*
X153184302Y-137518385D01*
X153184766Y-137512230D01*
X153057937Y-137465913D01*
X153047175Y-137461445D01*
X153057615Y-137436302D01*
X153063770Y-137436766D01*
X153110087Y-137309937D01*
X153161867Y-137185236D01*
X153161882Y-137168106D01*
X153167757Y-137152018D01*
X153162014Y-137017140D01*
X153162132Y-136882094D01*
X153155590Y-136866260D01*
X153154861Y-136849150D01*
X153097255Y-136710074D01*
X153110087Y-136674937D01*
X153161867Y-136550236D01*
X153161882Y-136533106D01*
X153167757Y-136517018D01*
X153162014Y-136382140D01*
X153162132Y-136247094D01*
X153155590Y-136231260D01*
X153154861Y-136214150D01*
X153097255Y-136075074D01*
X153110087Y-136039937D01*
X153161867Y-135915236D01*
X153161882Y-135898106D01*
X153167757Y-135882018D01*
X153162014Y-135747140D01*
X153162132Y-135612094D01*
X153155590Y-135596260D01*
X153154861Y-135579150D01*
X153125804Y-135509000D01*
X157861000Y-135509000D01*
X157861000Y-140843000D01*
G36*
X135636133Y-135610764D02*
X135636118Y-135627894D01*
X135630243Y-135643982D01*
X135635986Y-135778860D01*
X135635868Y-135913906D01*
X135642410Y-135929740D01*
X135643139Y-135946850D01*
X135700745Y-136085926D01*
X135687913Y-136121063D01*
X135636133Y-136245764D01*
X135636118Y-136262894D01*
X135630243Y-136278982D01*
X135635986Y-136413860D01*
X135635868Y-136548906D01*
X135642410Y-136564740D01*
X135643139Y-136581850D01*
X135700745Y-136720926D01*
X135687913Y-136756063D01*
X135636133Y-136880764D01*
X135636118Y-136897894D01*
X135630243Y-136913982D01*
X135635986Y-137048860D01*
X135635868Y-137183906D01*
X135642410Y-137199740D01*
X135643139Y-137216850D01*
X135734230Y-137436766D01*
X135740164Y-137436319D01*
X135748397Y-137456244D01*
X135613234Y-137512230D01*
X135613681Y-137518164D01*
X135585926Y-137529632D01*
X135371385Y-137743798D01*
X135359385Y-137772698D01*
X135353230Y-137772234D01*
X135306913Y-137899063D01*
X135255133Y-138023764D01*
X135255118Y-138040894D01*
X135249243Y-138056982D01*
X135254986Y-138191860D01*
X135254868Y-138326906D01*
X135261410Y-138342740D01*
X135262139Y-138359850D01*
X135319745Y-138498926D01*
X135306913Y-138534063D01*
X135255133Y-138658764D01*
X135255118Y-138675894D01*
X135249243Y-138691982D01*
X135254986Y-138826860D01*
X135254868Y-138961906D01*
X135261410Y-138977740D01*
X135262139Y-138994850D01*
X135319745Y-139133926D01*
X135306913Y-139169063D01*
X135255133Y-139293764D01*
X135255118Y-139310894D01*
X135249243Y-139326982D01*
X135254986Y-139461860D01*
X135254868Y-139596906D01*
X135261410Y-139612740D01*
X135262139Y-139629850D01*
X135319745Y-139768926D01*
X135306913Y-139804063D01*
X135255133Y-139928764D01*
X135255118Y-139945894D01*
X135249243Y-139961982D01*
X135254986Y-140096860D01*
X135254868Y-140231906D01*
X135261410Y-140247740D01*
X135262139Y-140264850D01*
X135353230Y-140484766D01*
X135359164Y-140484319D01*
X135370632Y-140512074D01*
X135584798Y-140726615D01*
X135613698Y-140738615D01*
X135613234Y-140744770D01*
X135740063Y-140791087D01*
X135864764Y-140842867D01*
X135881894Y-140842882D01*
X135882217Y-140843000D01*
X130937000Y-140843000D01*
X130937000Y-135509000D01*
X135678389Y-135509000D01*
X135636133Y-135610764D01*
X135636133Y-135610764D01*
G37*
X135636133Y-135610764D02*
X135636118Y-135627894D01*
X135630243Y-135643982D01*
X135635986Y-135778860D01*
X135635868Y-135913906D01*
X135642410Y-135929740D01*
X135643139Y-135946850D01*
X135700745Y-136085926D01*
X135687913Y-136121063D01*
X135636133Y-136245764D01*
X135636118Y-136262894D01*
X135630243Y-136278982D01*
X135635986Y-136413860D01*
X135635868Y-136548906D01*
X135642410Y-136564740D01*
X135643139Y-136581850D01*
X135700745Y-136720926D01*
X135687913Y-136756063D01*
X135636133Y-136880764D01*
X135636118Y-136897894D01*
X135630243Y-136913982D01*
X135635986Y-137048860D01*
X135635868Y-137183906D01*
X135642410Y-137199740D01*
X135643139Y-137216850D01*
X135734230Y-137436766D01*
X135740164Y-137436319D01*
X135748397Y-137456244D01*
X135613234Y-137512230D01*
X135613681Y-137518164D01*
X135585926Y-137529632D01*
X135371385Y-137743798D01*
X135359385Y-137772698D01*
X135353230Y-137772234D01*
X135306913Y-137899063D01*
X135255133Y-138023764D01*
X135255118Y-138040894D01*
X135249243Y-138056982D01*
X135254986Y-138191860D01*
X135254868Y-138326906D01*
X135261410Y-138342740D01*
X135262139Y-138359850D01*
X135319745Y-138498926D01*
X135306913Y-138534063D01*
X135255133Y-138658764D01*
X135255118Y-138675894D01*
X135249243Y-138691982D01*
X135254986Y-138826860D01*
X135254868Y-138961906D01*
X135261410Y-138977740D01*
X135262139Y-138994850D01*
X135319745Y-139133926D01*
X135306913Y-139169063D01*
X135255133Y-139293764D01*
X135255118Y-139310894D01*
X135249243Y-139326982D01*
X135254986Y-139461860D01*
X135254868Y-139596906D01*
X135261410Y-139612740D01*
X135262139Y-139629850D01*
X135319745Y-139768926D01*
X135306913Y-139804063D01*
X135255133Y-139928764D01*
X135255118Y-139945894D01*
X135249243Y-139961982D01*
X135254986Y-140096860D01*
X135254868Y-140231906D01*
X135261410Y-140247740D01*
X135262139Y-140264850D01*
X135353230Y-140484766D01*
X135359164Y-140484319D01*
X135370632Y-140512074D01*
X135584798Y-140726615D01*
X135613698Y-140738615D01*
X135613234Y-140744770D01*
X135740063Y-140791087D01*
X135864764Y-140842867D01*
X135881894Y-140842882D01*
X135882217Y-140843000D01*
X130937000Y-140843000D01*
X130937000Y-135509000D01*
X135678389Y-135509000D01*
X135636133Y-135610764D01*
G36*
X136502063Y-140791087D02*
X136626764Y-140842867D01*
X136643894Y-140842882D01*
X136644217Y-140843000D01*
X136168225Y-140843000D01*
X136183740Y-140836590D01*
X136200850Y-140835861D01*
X136399432Y-140753607D01*
X136502063Y-140791087D01*
X136502063Y-140791087D01*
G37*
X136502063Y-140791087D02*
X136626764Y-140842867D01*
X136643894Y-140842882D01*
X136644217Y-140843000D01*
X136168225Y-140843000D01*
X136183740Y-140836590D01*
X136200850Y-140835861D01*
X136399432Y-140753607D01*
X136502063Y-140791087D01*
G36*
X137616798Y-140726615D02*
X137645698Y-140738615D01*
X137645234Y-140744770D01*
X137772063Y-140791087D01*
X137896764Y-140842867D01*
X137913894Y-140842882D01*
X137914217Y-140843000D01*
X136930225Y-140843000D01*
X136945740Y-140836590D01*
X136962850Y-140835861D01*
X137182766Y-140744770D01*
X137182319Y-140738836D01*
X137210074Y-140727368D01*
X137414168Y-140523630D01*
X137616798Y-140726615D01*
X137616798Y-140726615D01*
G37*
X137616798Y-140726615D02*
X137645698Y-140738615D01*
X137645234Y-140744770D01*
X137772063Y-140791087D01*
X137896764Y-140842867D01*
X137913894Y-140842882D01*
X137914217Y-140843000D01*
X136930225Y-140843000D01*
X136945740Y-140836590D01*
X136962850Y-140835861D01*
X137182766Y-140744770D01*
X137182319Y-140738836D01*
X137210074Y-140727368D01*
X137414168Y-140523630D01*
X137616798Y-140726615D01*
G36*
X138534063Y-140791087D02*
X138658764Y-140842867D01*
X138675894Y-140842882D01*
X138676217Y-140843000D01*
X138200225Y-140843000D01*
X138215740Y-140836590D01*
X138232850Y-140835861D01*
X138431432Y-140753607D01*
X138534063Y-140791087D01*
X138534063Y-140791087D01*
G37*
X138534063Y-140791087D02*
X138658764Y-140842867D01*
X138675894Y-140842882D01*
X138676217Y-140843000D01*
X138200225Y-140843000D01*
X138215740Y-140836590D01*
X138232850Y-140835861D01*
X138431432Y-140753607D01*
X138534063Y-140791087D01*
G36*
X143891000Y-140843000D02*
X138962225Y-140843000D01*
X138977740Y-140836590D01*
X138994850Y-140835861D01*
X139214766Y-140744770D01*
X139214319Y-140738836D01*
X139242074Y-140727368D01*
X139456615Y-140513202D01*
X139468615Y-140484302D01*
X139474770Y-140484766D01*
X139521087Y-140357937D01*
X139572867Y-140233236D01*
X139572882Y-140216106D01*
X139578757Y-140200018D01*
X139573014Y-140065140D01*
X139573132Y-139930094D01*
X139566590Y-139914260D01*
X139565861Y-139897150D01*
X139508255Y-139758074D01*
X139521087Y-139722937D01*
X139572867Y-139598236D01*
X139572882Y-139581106D01*
X139578757Y-139565018D01*
X139573014Y-139430140D01*
X139573132Y-139295094D01*
X139566590Y-139279260D01*
X139565861Y-139262150D01*
X139508255Y-139123074D01*
X139521087Y-139087937D01*
X139572867Y-138963236D01*
X139572882Y-138946106D01*
X139578757Y-138930018D01*
X139573014Y-138795140D01*
X139573132Y-138660094D01*
X139566590Y-138644260D01*
X139565861Y-138627150D01*
X139508255Y-138488074D01*
X139521087Y-138452937D01*
X139572867Y-138328236D01*
X139572882Y-138311106D01*
X139578757Y-138295018D01*
X139573014Y-138160140D01*
X139573132Y-138025094D01*
X139566590Y-138009260D01*
X139565861Y-137992150D01*
X139474770Y-137772234D01*
X139468836Y-137772681D01*
X139457368Y-137744926D01*
X139243202Y-137530385D01*
X139214302Y-137518385D01*
X139214766Y-137512230D01*
X139087937Y-137465913D01*
X139077175Y-137461445D01*
X139087615Y-137436302D01*
X139093770Y-137436766D01*
X139140087Y-137309937D01*
X139191867Y-137185236D01*
X139191882Y-137168106D01*
X139197757Y-137152018D01*
X139192014Y-137017140D01*
X139192132Y-136882094D01*
X139185590Y-136866260D01*
X139184861Y-136849150D01*
X139127255Y-136710074D01*
X139140087Y-136674937D01*
X139191867Y-136550236D01*
X139191882Y-136533106D01*
X139197757Y-136517018D01*
X139192014Y-136382140D01*
X139192132Y-136247094D01*
X139185590Y-136231260D01*
X139184861Y-136214150D01*
X139127255Y-136075074D01*
X139140087Y-136039937D01*
X139191867Y-135915236D01*
X139191882Y-135898106D01*
X139197757Y-135882018D01*
X139192014Y-135747140D01*
X139192132Y-135612094D01*
X139185590Y-135596260D01*
X139184861Y-135579150D01*
X139155804Y-135509000D01*
X143891000Y-135509000D01*
X143891000Y-140843000D01*
X143891000Y-140843000D01*
G37*
X143891000Y-140843000D02*
X138962225Y-140843000D01*
X138977740Y-140836590D01*
X138994850Y-140835861D01*
X139214766Y-140744770D01*
X139214319Y-140738836D01*
X139242074Y-140727368D01*
X139456615Y-140513202D01*
X139468615Y-140484302D01*
X139474770Y-140484766D01*
X139521087Y-140357937D01*
X139572867Y-140233236D01*
X139572882Y-140216106D01*
X139578757Y-140200018D01*
X139573014Y-140065140D01*
X139573132Y-139930094D01*
X139566590Y-139914260D01*
X139565861Y-139897150D01*
X139508255Y-139758074D01*
X139521087Y-139722937D01*
X139572867Y-139598236D01*
X139572882Y-139581106D01*
X139578757Y-139565018D01*
X139573014Y-139430140D01*
X139573132Y-139295094D01*
X139566590Y-139279260D01*
X139565861Y-139262150D01*
X139508255Y-139123074D01*
X139521087Y-139087937D01*
X139572867Y-138963236D01*
X139572882Y-138946106D01*
X139578757Y-138930018D01*
X139573014Y-138795140D01*
X139573132Y-138660094D01*
X139566590Y-138644260D01*
X139565861Y-138627150D01*
X139508255Y-138488074D01*
X139521087Y-138452937D01*
X139572867Y-138328236D01*
X139572882Y-138311106D01*
X139578757Y-138295018D01*
X139573014Y-138160140D01*
X139573132Y-138025094D01*
X139566590Y-138009260D01*
X139565861Y-137992150D01*
X139474770Y-137772234D01*
X139468836Y-137772681D01*
X139457368Y-137744926D01*
X139243202Y-137530385D01*
X139214302Y-137518385D01*
X139214766Y-137512230D01*
X139087937Y-137465913D01*
X139077175Y-137461445D01*
X139087615Y-137436302D01*
X139093770Y-137436766D01*
X139140087Y-137309937D01*
X139191867Y-137185236D01*
X139191882Y-137168106D01*
X139197757Y-137152018D01*
X139192014Y-137017140D01*
X139192132Y-136882094D01*
X139185590Y-136866260D01*
X139184861Y-136849150D01*
X139127255Y-136710074D01*
X139140087Y-136674937D01*
X139191867Y-136550236D01*
X139191882Y-136533106D01*
X139197757Y-136517018D01*
X139192014Y-136382140D01*
X139192132Y-136247094D01*
X139185590Y-136231260D01*
X139184861Y-136214150D01*
X139127255Y-136075074D01*
X139140087Y-136039937D01*
X139191867Y-135915236D01*
X139191882Y-135898106D01*
X139197757Y-135882018D01*
X139192014Y-135747140D01*
X139192132Y-135612094D01*
X139185590Y-135596260D01*
X139184861Y-135579150D01*
X139155804Y-135509000D01*
X143891000Y-135509000D01*
X143891000Y-140843000D01*
G36*
X157861000Y-135001000D02*
X153096462Y-135001000D01*
X153299615Y-134798202D01*
X153311615Y-134769302D01*
X153317770Y-134769766D01*
X153364087Y-134642937D01*
X153415867Y-134518236D01*
X153415882Y-134501106D01*
X153421757Y-134485018D01*
X153416014Y-134350140D01*
X153416132Y-134215094D01*
X153409590Y-134199260D01*
X153408861Y-134182150D01*
X153351255Y-134043074D01*
X153364087Y-134007937D01*
X153415867Y-133883236D01*
X153415882Y-133866106D01*
X153421757Y-133850018D01*
X153416014Y-133715140D01*
X153416132Y-133580094D01*
X153409590Y-133564260D01*
X153408861Y-133547150D01*
X153351255Y-133408074D01*
X153364087Y-133372937D01*
X153415867Y-133248236D01*
X153415882Y-133231106D01*
X153421757Y-133215018D01*
X153416014Y-133080140D01*
X153416132Y-132945094D01*
X153409590Y-132929260D01*
X153408861Y-132912150D01*
X153317770Y-132692234D01*
X153311836Y-132692681D01*
X153300368Y-132664926D01*
X153086202Y-132450385D01*
X153057302Y-132438385D01*
X153057766Y-132432230D01*
X152930937Y-132385913D01*
X152806236Y-132334133D01*
X152789106Y-132334118D01*
X152773018Y-132328243D01*
X152638140Y-132333986D01*
X152503094Y-132333868D01*
X152487260Y-132340410D01*
X152470150Y-132341139D01*
X152331074Y-132398745D01*
X152295937Y-132385913D01*
X152171236Y-132334133D01*
X152154106Y-132334118D01*
X152138018Y-132328243D01*
X152003140Y-132333986D01*
X151868094Y-132333868D01*
X151852260Y-132340410D01*
X151835150Y-132341139D01*
X151615234Y-132432230D01*
X151615681Y-132438164D01*
X151587926Y-132449632D01*
X151383832Y-132653370D01*
X151181202Y-132450385D01*
X151152302Y-132438385D01*
X151152766Y-132432230D01*
X151025937Y-132385913D01*
X150901236Y-132334133D01*
X150884106Y-132334118D01*
X150868018Y-132328243D01*
X150733140Y-132333986D01*
X150598094Y-132333868D01*
X150582260Y-132340410D01*
X150565150Y-132341139D01*
X150426074Y-132398745D01*
X150390937Y-132385913D01*
X150266236Y-132334133D01*
X150249106Y-132334118D01*
X150233018Y-132328243D01*
X150098140Y-132333986D01*
X149963094Y-132333868D01*
X149947260Y-132340410D01*
X149930150Y-132341139D01*
X149710234Y-132432230D01*
X149710681Y-132438164D01*
X149682926Y-132449632D01*
X149468385Y-132663798D01*
X149456385Y-132692698D01*
X149450230Y-132692234D01*
X149403913Y-132819063D01*
X149352133Y-132943764D01*
X149352118Y-132960894D01*
X149346243Y-132976982D01*
X149351986Y-133111860D01*
X149351868Y-133246906D01*
X149358410Y-133262740D01*
X149359139Y-133279850D01*
X149416745Y-133418926D01*
X149403913Y-133454063D01*
X149352133Y-133578764D01*
X149352118Y-133595894D01*
X149346243Y-133611982D01*
X149351986Y-133746860D01*
X149351868Y-133881906D01*
X149358410Y-133897740D01*
X149359139Y-133914850D01*
X149416745Y-134053926D01*
X149403913Y-134089063D01*
X149352133Y-134213764D01*
X149352118Y-134230894D01*
X149346243Y-134246982D01*
X149351986Y-134381860D01*
X149351868Y-134516906D01*
X149358410Y-134532740D01*
X149359139Y-134549850D01*
X149450230Y-134769766D01*
X149456164Y-134769319D01*
X149467632Y-134797074D01*
X149671202Y-135001000D01*
X144907000Y-135001000D01*
X144907000Y-129921000D01*
X157861000Y-129921000D01*
X157861000Y-135001000D01*
X157861000Y-135001000D01*
G37*
X157861000Y-135001000D02*
X153096462Y-135001000D01*
X153299615Y-134798202D01*
X153311615Y-134769302D01*
X153317770Y-134769766D01*
X153364087Y-134642937D01*
X153415867Y-134518236D01*
X153415882Y-134501106D01*
X153421757Y-134485018D01*
X153416014Y-134350140D01*
X153416132Y-134215094D01*
X153409590Y-134199260D01*
X153408861Y-134182150D01*
X153351255Y-134043074D01*
X153364087Y-134007937D01*
X153415867Y-133883236D01*
X153415882Y-133866106D01*
X153421757Y-133850018D01*
X153416014Y-133715140D01*
X153416132Y-133580094D01*
X153409590Y-133564260D01*
X153408861Y-133547150D01*
X153351255Y-133408074D01*
X153364087Y-133372937D01*
X153415867Y-133248236D01*
X153415882Y-133231106D01*
X153421757Y-133215018D01*
X153416014Y-133080140D01*
X153416132Y-132945094D01*
X153409590Y-132929260D01*
X153408861Y-132912150D01*
X153317770Y-132692234D01*
X153311836Y-132692681D01*
X153300368Y-132664926D01*
X153086202Y-132450385D01*
X153057302Y-132438385D01*
X153057766Y-132432230D01*
X152930937Y-132385913D01*
X152806236Y-132334133D01*
X152789106Y-132334118D01*
X152773018Y-132328243D01*
X152638140Y-132333986D01*
X152503094Y-132333868D01*
X152487260Y-132340410D01*
X152470150Y-132341139D01*
X152331074Y-132398745D01*
X152295937Y-132385913D01*
X152171236Y-132334133D01*
X152154106Y-132334118D01*
X152138018Y-132328243D01*
X152003140Y-132333986D01*
X151868094Y-132333868D01*
X151852260Y-132340410D01*
X151835150Y-132341139D01*
X151615234Y-132432230D01*
X151615681Y-132438164D01*
X151587926Y-132449632D01*
X151383832Y-132653370D01*
X151181202Y-132450385D01*
X151152302Y-132438385D01*
X151152766Y-132432230D01*
X151025937Y-132385913D01*
X150901236Y-132334133D01*
X150884106Y-132334118D01*
X150868018Y-132328243D01*
X150733140Y-132333986D01*
X150598094Y-132333868D01*
X150582260Y-132340410D01*
X150565150Y-132341139D01*
X150426074Y-132398745D01*
X150390937Y-132385913D01*
X150266236Y-132334133D01*
X150249106Y-132334118D01*
X150233018Y-132328243D01*
X150098140Y-132333986D01*
X149963094Y-132333868D01*
X149947260Y-132340410D01*
X149930150Y-132341139D01*
X149710234Y-132432230D01*
X149710681Y-132438164D01*
X149682926Y-132449632D01*
X149468385Y-132663798D01*
X149456385Y-132692698D01*
X149450230Y-132692234D01*
X149403913Y-132819063D01*
X149352133Y-132943764D01*
X149352118Y-132960894D01*
X149346243Y-132976982D01*
X149351986Y-133111860D01*
X149351868Y-133246906D01*
X149358410Y-133262740D01*
X149359139Y-133279850D01*
X149416745Y-133418926D01*
X149403913Y-133454063D01*
X149352133Y-133578764D01*
X149352118Y-133595894D01*
X149346243Y-133611982D01*
X149351986Y-133746860D01*
X149351868Y-133881906D01*
X149358410Y-133897740D01*
X149359139Y-133914850D01*
X149416745Y-134053926D01*
X149403913Y-134089063D01*
X149352133Y-134213764D01*
X149352118Y-134230894D01*
X149346243Y-134246982D01*
X149351986Y-134381860D01*
X149351868Y-134516906D01*
X149358410Y-134532740D01*
X149359139Y-134549850D01*
X149450230Y-134769766D01*
X149456164Y-134769319D01*
X149467632Y-134797074D01*
X149671202Y-135001000D01*
X144907000Y-135001000D01*
X144907000Y-129921000D01*
X157861000Y-129921000D01*
X157861000Y-135001000D01*
G36*
X151576201Y-135001000D02*
X151191462Y-135001000D01*
X151384168Y-134808630D01*
X151576201Y-135001000D01*
X151576201Y-135001000D01*
G37*
X151576201Y-135001000D02*
X151191462Y-135001000D01*
X151384168Y-134808630D01*
X151576201Y-135001000D01*
G36*
X143891000Y-135001000D02*
X139126462Y-135001000D01*
X139329615Y-134798202D01*
X139341615Y-134769302D01*
X139347770Y-134769766D01*
X139394087Y-134642937D01*
X139445867Y-134518236D01*
X139445882Y-134501106D01*
X139451757Y-134485018D01*
X139446014Y-134350140D01*
X139446132Y-134215094D01*
X139439590Y-134199260D01*
X139438861Y-134182150D01*
X139381255Y-134043074D01*
X139394087Y-134007937D01*
X139445867Y-133883236D01*
X139445882Y-133866106D01*
X139451757Y-133850018D01*
X139446014Y-133715140D01*
X139446132Y-133580094D01*
X139439590Y-133564260D01*
X139438861Y-133547150D01*
X139381255Y-133408074D01*
X139394087Y-133372937D01*
X139445867Y-133248236D01*
X139445882Y-133231106D01*
X139451757Y-133215018D01*
X139446014Y-133080140D01*
X139446132Y-132945094D01*
X139439590Y-132929260D01*
X139438861Y-132912150D01*
X139347770Y-132692234D01*
X139341836Y-132692681D01*
X139330368Y-132664926D01*
X139116202Y-132450385D01*
X139087302Y-132438385D01*
X139087766Y-132432230D01*
X138960937Y-132385913D01*
X138836236Y-132334133D01*
X138819106Y-132334118D01*
X138803018Y-132328243D01*
X138668140Y-132333986D01*
X138533094Y-132333868D01*
X138517260Y-132340410D01*
X138500150Y-132341139D01*
X138361074Y-132398745D01*
X138325937Y-132385913D01*
X138201236Y-132334133D01*
X138184106Y-132334118D01*
X138168018Y-132328243D01*
X138033140Y-132333986D01*
X137898094Y-132333868D01*
X137882260Y-132340410D01*
X137865150Y-132341139D01*
X137645234Y-132432230D01*
X137645681Y-132438164D01*
X137617926Y-132449632D01*
X137413832Y-132653370D01*
X137211202Y-132450385D01*
X137182302Y-132438385D01*
X137182766Y-132432230D01*
X137055937Y-132385913D01*
X136931236Y-132334133D01*
X136914106Y-132334118D01*
X136898018Y-132328243D01*
X136763140Y-132333986D01*
X136628094Y-132333868D01*
X136612260Y-132340410D01*
X136595150Y-132341139D01*
X136456074Y-132398745D01*
X136420937Y-132385913D01*
X136296236Y-132334133D01*
X136279106Y-132334118D01*
X136263018Y-132328243D01*
X136128140Y-132333986D01*
X135993094Y-132333868D01*
X135977260Y-132340410D01*
X135960150Y-132341139D01*
X135740234Y-132432230D01*
X135740681Y-132438164D01*
X135712926Y-132449632D01*
X135498385Y-132663798D01*
X135486385Y-132692698D01*
X135480230Y-132692234D01*
X135433913Y-132819063D01*
X135382133Y-132943764D01*
X135382118Y-132960894D01*
X135376243Y-132976982D01*
X135381986Y-133111860D01*
X135381868Y-133246906D01*
X135388410Y-133262740D01*
X135389139Y-133279850D01*
X135446745Y-133418926D01*
X135433913Y-133454063D01*
X135382133Y-133578764D01*
X135382118Y-133595894D01*
X135376243Y-133611982D01*
X135381986Y-133746860D01*
X135381868Y-133881906D01*
X135388410Y-133897740D01*
X135389139Y-133914850D01*
X135446745Y-134053926D01*
X135433913Y-134089063D01*
X135382133Y-134213764D01*
X135382118Y-134230894D01*
X135376243Y-134246982D01*
X135381986Y-134381860D01*
X135381868Y-134516906D01*
X135388410Y-134532740D01*
X135389139Y-134549850D01*
X135480230Y-134769766D01*
X135486164Y-134769319D01*
X135497632Y-134797074D01*
X135701202Y-135001000D01*
X130937000Y-135001000D01*
X130937000Y-129921000D01*
X143891000Y-129921000D01*
X143891000Y-135001000D01*
X143891000Y-135001000D01*
G37*
X143891000Y-135001000D02*
X139126462Y-135001000D01*
X139329615Y-134798202D01*
X139341615Y-134769302D01*
X139347770Y-134769766D01*
X139394087Y-134642937D01*
X139445867Y-134518236D01*
X139445882Y-134501106D01*
X139451757Y-134485018D01*
X139446014Y-134350140D01*
X139446132Y-134215094D01*
X139439590Y-134199260D01*
X139438861Y-134182150D01*
X139381255Y-134043074D01*
X139394087Y-134007937D01*
X139445867Y-133883236D01*
X139445882Y-133866106D01*
X139451757Y-133850018D01*
X139446014Y-133715140D01*
X139446132Y-133580094D01*
X139439590Y-133564260D01*
X139438861Y-133547150D01*
X139381255Y-133408074D01*
X139394087Y-133372937D01*
X139445867Y-133248236D01*
X139445882Y-133231106D01*
X139451757Y-133215018D01*
X139446014Y-133080140D01*
X139446132Y-132945094D01*
X139439590Y-132929260D01*
X139438861Y-132912150D01*
X139347770Y-132692234D01*
X139341836Y-132692681D01*
X139330368Y-132664926D01*
X139116202Y-132450385D01*
X139087302Y-132438385D01*
X139087766Y-132432230D01*
X138960937Y-132385913D01*
X138836236Y-132334133D01*
X138819106Y-132334118D01*
X138803018Y-132328243D01*
X138668140Y-132333986D01*
X138533094Y-132333868D01*
X138517260Y-132340410D01*
X138500150Y-132341139D01*
X138361074Y-132398745D01*
X138325937Y-132385913D01*
X138201236Y-132334133D01*
X138184106Y-132334118D01*
X138168018Y-132328243D01*
X138033140Y-132333986D01*
X137898094Y-132333868D01*
X137882260Y-132340410D01*
X137865150Y-132341139D01*
X137645234Y-132432230D01*
X137645681Y-132438164D01*
X137617926Y-132449632D01*
X137413832Y-132653370D01*
X137211202Y-132450385D01*
X137182302Y-132438385D01*
X137182766Y-132432230D01*
X137055937Y-132385913D01*
X136931236Y-132334133D01*
X136914106Y-132334118D01*
X136898018Y-132328243D01*
X136763140Y-132333986D01*
X136628094Y-132333868D01*
X136612260Y-132340410D01*
X136595150Y-132341139D01*
X136456074Y-132398745D01*
X136420937Y-132385913D01*
X136296236Y-132334133D01*
X136279106Y-132334118D01*
X136263018Y-132328243D01*
X136128140Y-132333986D01*
X135993094Y-132333868D01*
X135977260Y-132340410D01*
X135960150Y-132341139D01*
X135740234Y-132432230D01*
X135740681Y-132438164D01*
X135712926Y-132449632D01*
X135498385Y-132663798D01*
X135486385Y-132692698D01*
X135480230Y-132692234D01*
X135433913Y-132819063D01*
X135382133Y-132943764D01*
X135382118Y-132960894D01*
X135376243Y-132976982D01*
X135381986Y-133111860D01*
X135381868Y-133246906D01*
X135388410Y-133262740D01*
X135389139Y-133279850D01*
X135446745Y-133418926D01*
X135433913Y-133454063D01*
X135382133Y-133578764D01*
X135382118Y-133595894D01*
X135376243Y-133611982D01*
X135381986Y-133746860D01*
X135381868Y-133881906D01*
X135388410Y-133897740D01*
X135389139Y-133914850D01*
X135446745Y-134053926D01*
X135433913Y-134089063D01*
X135382133Y-134213764D01*
X135382118Y-134230894D01*
X135376243Y-134246982D01*
X135381986Y-134381860D01*
X135381868Y-134516906D01*
X135388410Y-134532740D01*
X135389139Y-134549850D01*
X135480230Y-134769766D01*
X135486164Y-134769319D01*
X135497632Y-134797074D01*
X135701202Y-135001000D01*
X130937000Y-135001000D01*
X130937000Y-129921000D01*
X143891000Y-129921000D01*
X143891000Y-135001000D01*
G36*
X137606201Y-135001000D02*
X137221462Y-135001000D01*
X137414168Y-134808630D01*
X137606201Y-135001000D01*
X137606201Y-135001000D01*
G37*
X137606201Y-135001000D02*
X137221462Y-135001000D01*
X137414168Y-134808630D01*
X137606201Y-135001000D01*
G36*
X143891000Y-123571000D02*
X139126462Y-123571000D01*
X139329615Y-123368202D01*
X139341615Y-123339302D01*
X139347770Y-123339766D01*
X139394087Y-123212937D01*
X139445867Y-123088236D01*
X139445882Y-123071106D01*
X139451757Y-123055018D01*
X139446014Y-122920140D01*
X139446132Y-122785094D01*
X139439590Y-122769260D01*
X139438861Y-122752150D01*
X139381255Y-122613074D01*
X139394087Y-122577937D01*
X139445867Y-122453236D01*
X139445882Y-122436106D01*
X139451757Y-122420018D01*
X139446014Y-122285140D01*
X139446132Y-122150094D01*
X139439590Y-122134260D01*
X139438861Y-122117150D01*
X139381255Y-121978074D01*
X139394087Y-121942937D01*
X139445867Y-121818236D01*
X139445882Y-121801106D01*
X139451757Y-121785018D01*
X139446014Y-121650140D01*
X139446132Y-121515094D01*
X139439590Y-121499260D01*
X139438861Y-121482150D01*
X139347770Y-121262234D01*
X139341836Y-121262681D01*
X139330368Y-121234926D01*
X139116202Y-121020385D01*
X139087302Y-121008385D01*
X139087766Y-121002230D01*
X138960937Y-120955913D01*
X138836236Y-120904133D01*
X138819106Y-120904118D01*
X138803018Y-120898243D01*
X138668140Y-120903986D01*
X138533094Y-120903868D01*
X138517260Y-120910410D01*
X138500150Y-120911139D01*
X138361074Y-120968745D01*
X138325937Y-120955913D01*
X138201236Y-120904133D01*
X138184106Y-120904118D01*
X138168018Y-120898243D01*
X138033140Y-120903986D01*
X137898094Y-120903868D01*
X137882260Y-120910410D01*
X137865150Y-120911139D01*
X137645234Y-121002230D01*
X137645681Y-121008164D01*
X137617926Y-121019632D01*
X137413832Y-121223370D01*
X137211202Y-121020385D01*
X137182302Y-121008385D01*
X137182766Y-121002230D01*
X137055937Y-120955913D01*
X136931236Y-120904133D01*
X136914106Y-120904118D01*
X136898018Y-120898243D01*
X136763140Y-120903986D01*
X136628094Y-120903868D01*
X136612260Y-120910410D01*
X136595150Y-120911139D01*
X136456074Y-120968745D01*
X136420937Y-120955913D01*
X136296236Y-120904133D01*
X136279106Y-120904118D01*
X136263018Y-120898243D01*
X136128140Y-120903986D01*
X135993094Y-120903868D01*
X135977260Y-120910410D01*
X135960150Y-120911139D01*
X135740234Y-121002230D01*
X135740681Y-121008164D01*
X135712926Y-121019632D01*
X135498385Y-121233798D01*
X135486385Y-121262698D01*
X135480230Y-121262234D01*
X135433913Y-121389063D01*
X135382133Y-121513764D01*
X135382118Y-121530894D01*
X135376243Y-121546982D01*
X135381986Y-121681860D01*
X135381868Y-121816906D01*
X135388410Y-121832740D01*
X135389139Y-121849850D01*
X135446745Y-121988926D01*
X135433913Y-122024063D01*
X135382133Y-122148764D01*
X135382118Y-122165894D01*
X135376243Y-122181982D01*
X135381986Y-122316860D01*
X135381868Y-122451906D01*
X135388410Y-122467740D01*
X135389139Y-122484850D01*
X135446745Y-122623926D01*
X135433913Y-122659063D01*
X135382133Y-122783764D01*
X135382118Y-122800894D01*
X135376243Y-122816982D01*
X135381986Y-122951860D01*
X135381868Y-123086906D01*
X135388410Y-123102740D01*
X135389139Y-123119850D01*
X135480230Y-123339766D01*
X135486164Y-123339319D01*
X135497632Y-123367074D01*
X135701202Y-123571000D01*
X130937000Y-123571000D01*
X130937000Y-118491000D01*
X143891000Y-118491000D01*
X143891000Y-123571000D01*
X143891000Y-123571000D01*
G37*
X143891000Y-123571000D02*
X139126462Y-123571000D01*
X139329615Y-123368202D01*
X139341615Y-123339302D01*
X139347770Y-123339766D01*
X139394087Y-123212937D01*
X139445867Y-123088236D01*
X139445882Y-123071106D01*
X139451757Y-123055018D01*
X139446014Y-122920140D01*
X139446132Y-122785094D01*
X139439590Y-122769260D01*
X139438861Y-122752150D01*
X139381255Y-122613074D01*
X139394087Y-122577937D01*
X139445867Y-122453236D01*
X139445882Y-122436106D01*
X139451757Y-122420018D01*
X139446014Y-122285140D01*
X139446132Y-122150094D01*
X139439590Y-122134260D01*
X139438861Y-122117150D01*
X139381255Y-121978074D01*
X139394087Y-121942937D01*
X139445867Y-121818236D01*
X139445882Y-121801106D01*
X139451757Y-121785018D01*
X139446014Y-121650140D01*
X139446132Y-121515094D01*
X139439590Y-121499260D01*
X139438861Y-121482150D01*
X139347770Y-121262234D01*
X139341836Y-121262681D01*
X139330368Y-121234926D01*
X139116202Y-121020385D01*
X139087302Y-121008385D01*
X139087766Y-121002230D01*
X138960937Y-120955913D01*
X138836236Y-120904133D01*
X138819106Y-120904118D01*
X138803018Y-120898243D01*
X138668140Y-120903986D01*
X138533094Y-120903868D01*
X138517260Y-120910410D01*
X138500150Y-120911139D01*
X138361074Y-120968745D01*
X138325937Y-120955913D01*
X138201236Y-120904133D01*
X138184106Y-120904118D01*
X138168018Y-120898243D01*
X138033140Y-120903986D01*
X137898094Y-120903868D01*
X137882260Y-120910410D01*
X137865150Y-120911139D01*
X137645234Y-121002230D01*
X137645681Y-121008164D01*
X137617926Y-121019632D01*
X137413832Y-121223370D01*
X137211202Y-121020385D01*
X137182302Y-121008385D01*
X137182766Y-121002230D01*
X137055937Y-120955913D01*
X136931236Y-120904133D01*
X136914106Y-120904118D01*
X136898018Y-120898243D01*
X136763140Y-120903986D01*
X136628094Y-120903868D01*
X136612260Y-120910410D01*
X136595150Y-120911139D01*
X136456074Y-120968745D01*
X136420937Y-120955913D01*
X136296236Y-120904133D01*
X136279106Y-120904118D01*
X136263018Y-120898243D01*
X136128140Y-120903986D01*
X135993094Y-120903868D01*
X135977260Y-120910410D01*
X135960150Y-120911139D01*
X135740234Y-121002230D01*
X135740681Y-121008164D01*
X135712926Y-121019632D01*
X135498385Y-121233798D01*
X135486385Y-121262698D01*
X135480230Y-121262234D01*
X135433913Y-121389063D01*
X135382133Y-121513764D01*
X135382118Y-121530894D01*
X135376243Y-121546982D01*
X135381986Y-121681860D01*
X135381868Y-121816906D01*
X135388410Y-121832740D01*
X135389139Y-121849850D01*
X135446745Y-121988926D01*
X135433913Y-122024063D01*
X135382133Y-122148764D01*
X135382118Y-122165894D01*
X135376243Y-122181982D01*
X135381986Y-122316860D01*
X135381868Y-122451906D01*
X135388410Y-122467740D01*
X135389139Y-122484850D01*
X135446745Y-122623926D01*
X135433913Y-122659063D01*
X135382133Y-122783764D01*
X135382118Y-122800894D01*
X135376243Y-122816982D01*
X135381986Y-122951860D01*
X135381868Y-123086906D01*
X135388410Y-123102740D01*
X135389139Y-123119850D01*
X135480230Y-123339766D01*
X135486164Y-123339319D01*
X135497632Y-123367074D01*
X135701202Y-123571000D01*
X130937000Y-123571000D01*
X130937000Y-118491000D01*
X143891000Y-118491000D01*
X143891000Y-123571000D01*
G36*
X137606201Y-123571000D02*
X137221462Y-123571000D01*
X137414168Y-123378630D01*
X137606201Y-123571000D01*
X137606201Y-123571000D01*
G37*
X137606201Y-123571000D02*
X137221462Y-123571000D01*
X137414168Y-123378630D01*
X137606201Y-123571000D01*
G36*
X157861000Y-123571000D02*
X153096462Y-123571000D01*
X153299615Y-123368202D01*
X153311615Y-123339302D01*
X153317770Y-123339766D01*
X153364087Y-123212937D01*
X153415867Y-123088236D01*
X153415882Y-123071106D01*
X153421757Y-123055018D01*
X153416014Y-122920140D01*
X153416132Y-122785094D01*
X153409590Y-122769260D01*
X153408861Y-122752150D01*
X153351255Y-122613074D01*
X153364087Y-122577937D01*
X153415867Y-122453236D01*
X153415882Y-122436106D01*
X153421757Y-122420018D01*
X153416014Y-122285140D01*
X153416132Y-122150094D01*
X153409590Y-122134260D01*
X153408861Y-122117150D01*
X153351255Y-121978074D01*
X153364087Y-121942937D01*
X153415867Y-121818236D01*
X153415882Y-121801106D01*
X153421757Y-121785018D01*
X153416014Y-121650140D01*
X153416132Y-121515094D01*
X153409590Y-121499260D01*
X153408861Y-121482150D01*
X153317770Y-121262234D01*
X153311836Y-121262681D01*
X153300368Y-121234926D01*
X153086202Y-121020385D01*
X153057302Y-121008385D01*
X153057766Y-121002230D01*
X152930937Y-120955913D01*
X152806236Y-120904133D01*
X152789106Y-120904118D01*
X152773018Y-120898243D01*
X152638140Y-120903986D01*
X152503094Y-120903868D01*
X152487260Y-120910410D01*
X152470150Y-120911139D01*
X152331074Y-120968745D01*
X152295937Y-120955913D01*
X152171236Y-120904133D01*
X152154106Y-120904118D01*
X152138018Y-120898243D01*
X152003140Y-120903986D01*
X151868094Y-120903868D01*
X151852260Y-120910410D01*
X151835150Y-120911139D01*
X151615234Y-121002230D01*
X151615681Y-121008164D01*
X151587926Y-121019632D01*
X151383832Y-121223370D01*
X151181202Y-121020385D01*
X151152302Y-121008385D01*
X151152766Y-121002230D01*
X151025937Y-120955913D01*
X150901236Y-120904133D01*
X150884106Y-120904118D01*
X150868018Y-120898243D01*
X150733140Y-120903986D01*
X150598094Y-120903868D01*
X150582260Y-120910410D01*
X150565150Y-120911139D01*
X150426074Y-120968745D01*
X150390937Y-120955913D01*
X150266236Y-120904133D01*
X150249106Y-120904118D01*
X150233018Y-120898243D01*
X150098140Y-120903986D01*
X149963094Y-120903868D01*
X149947260Y-120910410D01*
X149930150Y-120911139D01*
X149710234Y-121002230D01*
X149710681Y-121008164D01*
X149682926Y-121019632D01*
X149468385Y-121233798D01*
X149456385Y-121262698D01*
X149450230Y-121262234D01*
X149403913Y-121389063D01*
X149352133Y-121513764D01*
X149352118Y-121530894D01*
X149346243Y-121546982D01*
X149351986Y-121681860D01*
X149351868Y-121816906D01*
X149358410Y-121832740D01*
X149359139Y-121849850D01*
X149416745Y-121988926D01*
X149403913Y-122024063D01*
X149352133Y-122148764D01*
X149352118Y-122165894D01*
X149346243Y-122181982D01*
X149351986Y-122316860D01*
X149351868Y-122451906D01*
X149358410Y-122467740D01*
X149359139Y-122484850D01*
X149416745Y-122623926D01*
X149403913Y-122659063D01*
X149352133Y-122783764D01*
X149352118Y-122800894D01*
X149346243Y-122816982D01*
X149351986Y-122951860D01*
X149351868Y-123086906D01*
X149358410Y-123102740D01*
X149359139Y-123119850D01*
X149450230Y-123339766D01*
X149456164Y-123339319D01*
X149467632Y-123367074D01*
X149671202Y-123571000D01*
X144907000Y-123571000D01*
X144907000Y-118491000D01*
X157861000Y-118491000D01*
X157861000Y-123571000D01*
X157861000Y-123571000D01*
G37*
X157861000Y-123571000D02*
X153096462Y-123571000D01*
X153299615Y-123368202D01*
X153311615Y-123339302D01*
X153317770Y-123339766D01*
X153364087Y-123212937D01*
X153415867Y-123088236D01*
X153415882Y-123071106D01*
X153421757Y-123055018D01*
X153416014Y-122920140D01*
X153416132Y-122785094D01*
X153409590Y-122769260D01*
X153408861Y-122752150D01*
X153351255Y-122613074D01*
X153364087Y-122577937D01*
X153415867Y-122453236D01*
X153415882Y-122436106D01*
X153421757Y-122420018D01*
X153416014Y-122285140D01*
X153416132Y-122150094D01*
X153409590Y-122134260D01*
X153408861Y-122117150D01*
X153351255Y-121978074D01*
X153364087Y-121942937D01*
X153415867Y-121818236D01*
X153415882Y-121801106D01*
X153421757Y-121785018D01*
X153416014Y-121650140D01*
X153416132Y-121515094D01*
X153409590Y-121499260D01*
X153408861Y-121482150D01*
X153317770Y-121262234D01*
X153311836Y-121262681D01*
X153300368Y-121234926D01*
X153086202Y-121020385D01*
X153057302Y-121008385D01*
X153057766Y-121002230D01*
X152930937Y-120955913D01*
X152806236Y-120904133D01*
X152789106Y-120904118D01*
X152773018Y-120898243D01*
X152638140Y-120903986D01*
X152503094Y-120903868D01*
X152487260Y-120910410D01*
X152470150Y-120911139D01*
X152331074Y-120968745D01*
X152295937Y-120955913D01*
X152171236Y-120904133D01*
X152154106Y-120904118D01*
X152138018Y-120898243D01*
X152003140Y-120903986D01*
X151868094Y-120903868D01*
X151852260Y-120910410D01*
X151835150Y-120911139D01*
X151615234Y-121002230D01*
X151615681Y-121008164D01*
X151587926Y-121019632D01*
X151383832Y-121223370D01*
X151181202Y-121020385D01*
X151152302Y-121008385D01*
X151152766Y-121002230D01*
X151025937Y-120955913D01*
X150901236Y-120904133D01*
X150884106Y-120904118D01*
X150868018Y-120898243D01*
X150733140Y-120903986D01*
X150598094Y-120903868D01*
X150582260Y-120910410D01*
X150565150Y-120911139D01*
X150426074Y-120968745D01*
X150390937Y-120955913D01*
X150266236Y-120904133D01*
X150249106Y-120904118D01*
X150233018Y-120898243D01*
X150098140Y-120903986D01*
X149963094Y-120903868D01*
X149947260Y-120910410D01*
X149930150Y-120911139D01*
X149710234Y-121002230D01*
X149710681Y-121008164D01*
X149682926Y-121019632D01*
X149468385Y-121233798D01*
X149456385Y-121262698D01*
X149450230Y-121262234D01*
X149403913Y-121389063D01*
X149352133Y-121513764D01*
X149352118Y-121530894D01*
X149346243Y-121546982D01*
X149351986Y-121681860D01*
X149351868Y-121816906D01*
X149358410Y-121832740D01*
X149359139Y-121849850D01*
X149416745Y-121988926D01*
X149403913Y-122024063D01*
X149352133Y-122148764D01*
X149352118Y-122165894D01*
X149346243Y-122181982D01*
X149351986Y-122316860D01*
X149351868Y-122451906D01*
X149358410Y-122467740D01*
X149359139Y-122484850D01*
X149416745Y-122623926D01*
X149403913Y-122659063D01*
X149352133Y-122783764D01*
X149352118Y-122800894D01*
X149346243Y-122816982D01*
X149351986Y-122951860D01*
X149351868Y-123086906D01*
X149358410Y-123102740D01*
X149359139Y-123119850D01*
X149450230Y-123339766D01*
X149456164Y-123339319D01*
X149467632Y-123367074D01*
X149671202Y-123571000D01*
X144907000Y-123571000D01*
X144907000Y-118491000D01*
X157861000Y-118491000D01*
X157861000Y-123571000D01*
G36*
X151576201Y-123571000D02*
X151191462Y-123571000D01*
X151384168Y-123378630D01*
X151576201Y-123571000D01*
X151576201Y-123571000D01*
G37*
X151576201Y-123571000D02*
X151191462Y-123571000D01*
X151384168Y-123378630D01*
X151576201Y-123571000D01*
G36*
X149606133Y-112750764D02*
X149606118Y-112767894D01*
X149600243Y-112783982D01*
X149605986Y-112918860D01*
X149605868Y-113053906D01*
X149612410Y-113069740D01*
X149613139Y-113086850D01*
X149670745Y-113225926D01*
X149657913Y-113261063D01*
X149606133Y-113385764D01*
X149606118Y-113402894D01*
X149600243Y-113418982D01*
X149605986Y-113553860D01*
X149605868Y-113688906D01*
X149612410Y-113704740D01*
X149613139Y-113721850D01*
X149670745Y-113860926D01*
X149657913Y-113896063D01*
X149606133Y-114020764D01*
X149606118Y-114037894D01*
X149600243Y-114053982D01*
X149605986Y-114188860D01*
X149605868Y-114323906D01*
X149612410Y-114339740D01*
X149613139Y-114356850D01*
X149704230Y-114576766D01*
X149710164Y-114576319D01*
X149718397Y-114596244D01*
X149583234Y-114652230D01*
X149583681Y-114658164D01*
X149555926Y-114669632D01*
X149341385Y-114883798D01*
X149329385Y-114912698D01*
X149323230Y-114912234D01*
X149276913Y-115039063D01*
X149225133Y-115163764D01*
X149225118Y-115180894D01*
X149219243Y-115196982D01*
X149224986Y-115331860D01*
X149224868Y-115466906D01*
X149231410Y-115482740D01*
X149232139Y-115499850D01*
X149289745Y-115638926D01*
X149276913Y-115674063D01*
X149225133Y-115798764D01*
X149225118Y-115815894D01*
X149219243Y-115831982D01*
X149224986Y-115966860D01*
X149224868Y-116101906D01*
X149231410Y-116117740D01*
X149232139Y-116134850D01*
X149289745Y-116273926D01*
X149276913Y-116309063D01*
X149225133Y-116433764D01*
X149225118Y-116450894D01*
X149219243Y-116466982D01*
X149224986Y-116601860D01*
X149224868Y-116736906D01*
X149231410Y-116752740D01*
X149232139Y-116769850D01*
X149289745Y-116908926D01*
X149276913Y-116944063D01*
X149225133Y-117068764D01*
X149225118Y-117085894D01*
X149219243Y-117101982D01*
X149224986Y-117236860D01*
X149224868Y-117371906D01*
X149231410Y-117387740D01*
X149232139Y-117404850D01*
X149323230Y-117624766D01*
X149329164Y-117624319D01*
X149340632Y-117652074D01*
X149554798Y-117866615D01*
X149583698Y-117878615D01*
X149583234Y-117884770D01*
X149710063Y-117931087D01*
X149834764Y-117982867D01*
X149851894Y-117982882D01*
X149852217Y-117983000D01*
X144907000Y-117983000D01*
X144907000Y-112649000D01*
X149648389Y-112649000D01*
X149606133Y-112750764D01*
X149606133Y-112750764D01*
G37*
X149606133Y-112750764D02*
X149606118Y-112767894D01*
X149600243Y-112783982D01*
X149605986Y-112918860D01*
X149605868Y-113053906D01*
X149612410Y-113069740D01*
X149613139Y-113086850D01*
X149670745Y-113225926D01*
X149657913Y-113261063D01*
X149606133Y-113385764D01*
X149606118Y-113402894D01*
X149600243Y-113418982D01*
X149605986Y-113553860D01*
X149605868Y-113688906D01*
X149612410Y-113704740D01*
X149613139Y-113721850D01*
X149670745Y-113860926D01*
X149657913Y-113896063D01*
X149606133Y-114020764D01*
X149606118Y-114037894D01*
X149600243Y-114053982D01*
X149605986Y-114188860D01*
X149605868Y-114323906D01*
X149612410Y-114339740D01*
X149613139Y-114356850D01*
X149704230Y-114576766D01*
X149710164Y-114576319D01*
X149718397Y-114596244D01*
X149583234Y-114652230D01*
X149583681Y-114658164D01*
X149555926Y-114669632D01*
X149341385Y-114883798D01*
X149329385Y-114912698D01*
X149323230Y-114912234D01*
X149276913Y-115039063D01*
X149225133Y-115163764D01*
X149225118Y-115180894D01*
X149219243Y-115196982D01*
X149224986Y-115331860D01*
X149224868Y-115466906D01*
X149231410Y-115482740D01*
X149232139Y-115499850D01*
X149289745Y-115638926D01*
X149276913Y-115674063D01*
X149225133Y-115798764D01*
X149225118Y-115815894D01*
X149219243Y-115831982D01*
X149224986Y-115966860D01*
X149224868Y-116101906D01*
X149231410Y-116117740D01*
X149232139Y-116134850D01*
X149289745Y-116273926D01*
X149276913Y-116309063D01*
X149225133Y-116433764D01*
X149225118Y-116450894D01*
X149219243Y-116466982D01*
X149224986Y-116601860D01*
X149224868Y-116736906D01*
X149231410Y-116752740D01*
X149232139Y-116769850D01*
X149289745Y-116908926D01*
X149276913Y-116944063D01*
X149225133Y-117068764D01*
X149225118Y-117085894D01*
X149219243Y-117101982D01*
X149224986Y-117236860D01*
X149224868Y-117371906D01*
X149231410Y-117387740D01*
X149232139Y-117404850D01*
X149323230Y-117624766D01*
X149329164Y-117624319D01*
X149340632Y-117652074D01*
X149554798Y-117866615D01*
X149583698Y-117878615D01*
X149583234Y-117884770D01*
X149710063Y-117931087D01*
X149834764Y-117982867D01*
X149851894Y-117982882D01*
X149852217Y-117983000D01*
X144907000Y-117983000D01*
X144907000Y-112649000D01*
X149648389Y-112649000D01*
X149606133Y-112750764D01*
G36*
X150472063Y-117931087D02*
X150596764Y-117982867D01*
X150613894Y-117982882D01*
X150614217Y-117983000D01*
X150138225Y-117983000D01*
X150153740Y-117976590D01*
X150170850Y-117975861D01*
X150369432Y-117893607D01*
X150472063Y-117931087D01*
X150472063Y-117931087D01*
G37*
X150472063Y-117931087D02*
X150596764Y-117982867D01*
X150613894Y-117982882D01*
X150614217Y-117983000D01*
X150138225Y-117983000D01*
X150153740Y-117976590D01*
X150170850Y-117975861D01*
X150369432Y-117893607D01*
X150472063Y-117931087D01*
G36*
X151586798Y-117866615D02*
X151615698Y-117878615D01*
X151615234Y-117884770D01*
X151742063Y-117931087D01*
X151866764Y-117982867D01*
X151883894Y-117982882D01*
X151884217Y-117983000D01*
X150900225Y-117983000D01*
X150915740Y-117976590D01*
X150932850Y-117975861D01*
X151152766Y-117884770D01*
X151152319Y-117878836D01*
X151180074Y-117867368D01*
X151384168Y-117663630D01*
X151586798Y-117866615D01*
X151586798Y-117866615D01*
G37*
X151586798Y-117866615D02*
X151615698Y-117878615D01*
X151615234Y-117884770D01*
X151742063Y-117931087D01*
X151866764Y-117982867D01*
X151883894Y-117982882D01*
X151884217Y-117983000D01*
X150900225Y-117983000D01*
X150915740Y-117976590D01*
X150932850Y-117975861D01*
X151152766Y-117884770D01*
X151152319Y-117878836D01*
X151180074Y-117867368D01*
X151384168Y-117663630D01*
X151586798Y-117866615D01*
G36*
X152504063Y-117931087D02*
X152628764Y-117982867D01*
X152645894Y-117982882D01*
X152646217Y-117983000D01*
X152170225Y-117983000D01*
X152185740Y-117976590D01*
X152202850Y-117975861D01*
X152401432Y-117893607D01*
X152504063Y-117931087D01*
X152504063Y-117931087D01*
G37*
X152504063Y-117931087D02*
X152628764Y-117982867D01*
X152645894Y-117982882D01*
X152646217Y-117983000D01*
X152170225Y-117983000D01*
X152185740Y-117976590D01*
X152202850Y-117975861D01*
X152401432Y-117893607D01*
X152504063Y-117931087D01*
G36*
X157861000Y-117983000D02*
X152932225Y-117983000D01*
X152947740Y-117976590D01*
X152964850Y-117975861D01*
X153184766Y-117884770D01*
X153184319Y-117878836D01*
X153212074Y-117867368D01*
X153426615Y-117653202D01*
X153438615Y-117624302D01*
X153444770Y-117624766D01*
X153491087Y-117497937D01*
X153542867Y-117373236D01*
X153542882Y-117356106D01*
X153548757Y-117340018D01*
X153543014Y-117205140D01*
X153543132Y-117070094D01*
X153536590Y-117054260D01*
X153535861Y-117037150D01*
X153478255Y-116898074D01*
X153491087Y-116862937D01*
X153542867Y-116738236D01*
X153542882Y-116721106D01*
X153548757Y-116705018D01*
X153543014Y-116570140D01*
X153543132Y-116435094D01*
X153536590Y-116419260D01*
X153535861Y-116402150D01*
X153478255Y-116263074D01*
X153491087Y-116227937D01*
X153542867Y-116103236D01*
X153542882Y-116086106D01*
X153548757Y-116070018D01*
X153543014Y-115935140D01*
X153543132Y-115800094D01*
X153536590Y-115784260D01*
X153535861Y-115767150D01*
X153478255Y-115628074D01*
X153491087Y-115592937D01*
X153542867Y-115468236D01*
X153542882Y-115451106D01*
X153548757Y-115435018D01*
X153543014Y-115300140D01*
X153543132Y-115165094D01*
X153536590Y-115149260D01*
X153535861Y-115132150D01*
X153444770Y-114912234D01*
X153438836Y-114912681D01*
X153427368Y-114884926D01*
X153213202Y-114670385D01*
X153184302Y-114658385D01*
X153184766Y-114652230D01*
X153057937Y-114605913D01*
X153047175Y-114601445D01*
X153057615Y-114576302D01*
X153063770Y-114576766D01*
X153110087Y-114449937D01*
X153161867Y-114325236D01*
X153161882Y-114308106D01*
X153167757Y-114292018D01*
X153162014Y-114157140D01*
X153162132Y-114022094D01*
X153155590Y-114006260D01*
X153154861Y-113989150D01*
X153097255Y-113850074D01*
X153110087Y-113814937D01*
X153161867Y-113690236D01*
X153161882Y-113673106D01*
X153167757Y-113657018D01*
X153162014Y-113522140D01*
X153162132Y-113387094D01*
X153155590Y-113371260D01*
X153154861Y-113354150D01*
X153097255Y-113215074D01*
X153110087Y-113179937D01*
X153161867Y-113055236D01*
X153161882Y-113038106D01*
X153167757Y-113022018D01*
X153162014Y-112887140D01*
X153162132Y-112752094D01*
X153155590Y-112736260D01*
X153154861Y-112719150D01*
X153125804Y-112649000D01*
X157861000Y-112649000D01*
X157861000Y-117983000D01*
X157861000Y-117983000D01*
G37*
X157861000Y-117983000D02*
X152932225Y-117983000D01*
X152947740Y-117976590D01*
X152964850Y-117975861D01*
X153184766Y-117884770D01*
X153184319Y-117878836D01*
X153212074Y-117867368D01*
X153426615Y-117653202D01*
X153438615Y-117624302D01*
X153444770Y-117624766D01*
X153491087Y-117497937D01*
X153542867Y-117373236D01*
X153542882Y-117356106D01*
X153548757Y-117340018D01*
X153543014Y-117205140D01*
X153543132Y-117070094D01*
X153536590Y-117054260D01*
X153535861Y-117037150D01*
X153478255Y-116898074D01*
X153491087Y-116862937D01*
X153542867Y-116738236D01*
X153542882Y-116721106D01*
X153548757Y-116705018D01*
X153543014Y-116570140D01*
X153543132Y-116435094D01*
X153536590Y-116419260D01*
X153535861Y-116402150D01*
X153478255Y-116263074D01*
X153491087Y-116227937D01*
X153542867Y-116103236D01*
X153542882Y-116086106D01*
X153548757Y-116070018D01*
X153543014Y-115935140D01*
X153543132Y-115800094D01*
X153536590Y-115784260D01*
X153535861Y-115767150D01*
X153478255Y-115628074D01*
X153491087Y-115592937D01*
X153542867Y-115468236D01*
X153542882Y-115451106D01*
X153548757Y-115435018D01*
X153543014Y-115300140D01*
X153543132Y-115165094D01*
X153536590Y-115149260D01*
X153535861Y-115132150D01*
X153444770Y-114912234D01*
X153438836Y-114912681D01*
X153427368Y-114884926D01*
X153213202Y-114670385D01*
X153184302Y-114658385D01*
X153184766Y-114652230D01*
X153057937Y-114605913D01*
X153047175Y-114601445D01*
X153057615Y-114576302D01*
X153063770Y-114576766D01*
X153110087Y-114449937D01*
X153161867Y-114325236D01*
X153161882Y-114308106D01*
X153167757Y-114292018D01*
X153162014Y-114157140D01*
X153162132Y-114022094D01*
X153155590Y-114006260D01*
X153154861Y-113989150D01*
X153097255Y-113850074D01*
X153110087Y-113814937D01*
X153161867Y-113690236D01*
X153161882Y-113673106D01*
X153167757Y-113657018D01*
X153162014Y-113522140D01*
X153162132Y-113387094D01*
X153155590Y-113371260D01*
X153154861Y-113354150D01*
X153097255Y-113215074D01*
X153110087Y-113179937D01*
X153161867Y-113055236D01*
X153161882Y-113038106D01*
X153167757Y-113022018D01*
X153162014Y-112887140D01*
X153162132Y-112752094D01*
X153155590Y-112736260D01*
X153154861Y-112719150D01*
X153125804Y-112649000D01*
X157861000Y-112649000D01*
X157861000Y-117983000D01*
G36*
X157861000Y-112141000D02*
X153096462Y-112141000D01*
X153299615Y-111938202D01*
X153311615Y-111909302D01*
X153317770Y-111909766D01*
X153364087Y-111782937D01*
X153415867Y-111658236D01*
X153415882Y-111641106D01*
X153421757Y-111625018D01*
X153416014Y-111490140D01*
X153416132Y-111355094D01*
X153409590Y-111339260D01*
X153408861Y-111322150D01*
X153351255Y-111183074D01*
X153364087Y-111147937D01*
X153415867Y-111023236D01*
X153415882Y-111006106D01*
X153421757Y-110990018D01*
X153416014Y-110855140D01*
X153416132Y-110720094D01*
X153409590Y-110704260D01*
X153408861Y-110687150D01*
X153351255Y-110548074D01*
X153364087Y-110512937D01*
X153415867Y-110388236D01*
X153415882Y-110371106D01*
X153421757Y-110355018D01*
X153416014Y-110220140D01*
X153416132Y-110085094D01*
X153409590Y-110069260D01*
X153408861Y-110052150D01*
X153317770Y-109832234D01*
X153311836Y-109832681D01*
X153300368Y-109804926D01*
X153086202Y-109590385D01*
X153057302Y-109578385D01*
X153057766Y-109572230D01*
X152930937Y-109525913D01*
X152806236Y-109474133D01*
X152789106Y-109474118D01*
X152773018Y-109468243D01*
X152638140Y-109473986D01*
X152503094Y-109473868D01*
X152487260Y-109480410D01*
X152470150Y-109481139D01*
X152331074Y-109538745D01*
X152295937Y-109525913D01*
X152171236Y-109474133D01*
X152154106Y-109474118D01*
X152138018Y-109468243D01*
X152003140Y-109473986D01*
X151868094Y-109473868D01*
X151852260Y-109480410D01*
X151835150Y-109481139D01*
X151615234Y-109572230D01*
X151615681Y-109578164D01*
X151587926Y-109589632D01*
X151383832Y-109793370D01*
X151181202Y-109590385D01*
X151152302Y-109578385D01*
X151152766Y-109572230D01*
X151025937Y-109525913D01*
X150901236Y-109474133D01*
X150884106Y-109474118D01*
X150868018Y-109468243D01*
X150733140Y-109473986D01*
X150598094Y-109473868D01*
X150582260Y-109480410D01*
X150565150Y-109481139D01*
X150426074Y-109538745D01*
X150390937Y-109525913D01*
X150266236Y-109474133D01*
X150249106Y-109474118D01*
X150233018Y-109468243D01*
X150098140Y-109473986D01*
X149963094Y-109473868D01*
X149947260Y-109480410D01*
X149930150Y-109481139D01*
X149710234Y-109572230D01*
X149710681Y-109578164D01*
X149682926Y-109589632D01*
X149468385Y-109803798D01*
X149456385Y-109832698D01*
X149450230Y-109832234D01*
X149403913Y-109959063D01*
X149352133Y-110083764D01*
X149352118Y-110100894D01*
X149346243Y-110116982D01*
X149351986Y-110251860D01*
X149351868Y-110386906D01*
X149358410Y-110402740D01*
X149359139Y-110419850D01*
X149416745Y-110558926D01*
X149403913Y-110594063D01*
X149352133Y-110718764D01*
X149352118Y-110735894D01*
X149346243Y-110751982D01*
X149351986Y-110886860D01*
X149351868Y-111021906D01*
X149358410Y-111037740D01*
X149359139Y-111054850D01*
X149416745Y-111193926D01*
X149403913Y-111229063D01*
X149352133Y-111353764D01*
X149352118Y-111370894D01*
X149346243Y-111386982D01*
X149351986Y-111521860D01*
X149351868Y-111656906D01*
X149358410Y-111672740D01*
X149359139Y-111689850D01*
X149450230Y-111909766D01*
X149456164Y-111909319D01*
X149467632Y-111937074D01*
X149671202Y-112141000D01*
X144907000Y-112141000D01*
X144907000Y-107061000D01*
X157861000Y-107061000D01*
X157861000Y-112141000D01*
X157861000Y-112141000D01*
G37*
X157861000Y-112141000D02*
X153096462Y-112141000D01*
X153299615Y-111938202D01*
X153311615Y-111909302D01*
X153317770Y-111909766D01*
X153364087Y-111782937D01*
X153415867Y-111658236D01*
X153415882Y-111641106D01*
X153421757Y-111625018D01*
X153416014Y-111490140D01*
X153416132Y-111355094D01*
X153409590Y-111339260D01*
X153408861Y-111322150D01*
X153351255Y-111183074D01*
X153364087Y-111147937D01*
X153415867Y-111023236D01*
X153415882Y-111006106D01*
X153421757Y-110990018D01*
X153416014Y-110855140D01*
X153416132Y-110720094D01*
X153409590Y-110704260D01*
X153408861Y-110687150D01*
X153351255Y-110548074D01*
X153364087Y-110512937D01*
X153415867Y-110388236D01*
X153415882Y-110371106D01*
X153421757Y-110355018D01*
X153416014Y-110220140D01*
X153416132Y-110085094D01*
X153409590Y-110069260D01*
X153408861Y-110052150D01*
X153317770Y-109832234D01*
X153311836Y-109832681D01*
X153300368Y-109804926D01*
X153086202Y-109590385D01*
X153057302Y-109578385D01*
X153057766Y-109572230D01*
X152930937Y-109525913D01*
X152806236Y-109474133D01*
X152789106Y-109474118D01*
X152773018Y-109468243D01*
X152638140Y-109473986D01*
X152503094Y-109473868D01*
X152487260Y-109480410D01*
X152470150Y-109481139D01*
X152331074Y-109538745D01*
X152295937Y-109525913D01*
X152171236Y-109474133D01*
X152154106Y-109474118D01*
X152138018Y-109468243D01*
X152003140Y-109473986D01*
X151868094Y-109473868D01*
X151852260Y-109480410D01*
X151835150Y-109481139D01*
X151615234Y-109572230D01*
X151615681Y-109578164D01*
X151587926Y-109589632D01*
X151383832Y-109793370D01*
X151181202Y-109590385D01*
X151152302Y-109578385D01*
X151152766Y-109572230D01*
X151025937Y-109525913D01*
X150901236Y-109474133D01*
X150884106Y-109474118D01*
X150868018Y-109468243D01*
X150733140Y-109473986D01*
X150598094Y-109473868D01*
X150582260Y-109480410D01*
X150565150Y-109481139D01*
X150426074Y-109538745D01*
X150390937Y-109525913D01*
X150266236Y-109474133D01*
X150249106Y-109474118D01*
X150233018Y-109468243D01*
X150098140Y-109473986D01*
X149963094Y-109473868D01*
X149947260Y-109480410D01*
X149930150Y-109481139D01*
X149710234Y-109572230D01*
X149710681Y-109578164D01*
X149682926Y-109589632D01*
X149468385Y-109803798D01*
X149456385Y-109832698D01*
X149450230Y-109832234D01*
X149403913Y-109959063D01*
X149352133Y-110083764D01*
X149352118Y-110100894D01*
X149346243Y-110116982D01*
X149351986Y-110251860D01*
X149351868Y-110386906D01*
X149358410Y-110402740D01*
X149359139Y-110419850D01*
X149416745Y-110558926D01*
X149403913Y-110594063D01*
X149352133Y-110718764D01*
X149352118Y-110735894D01*
X149346243Y-110751982D01*
X149351986Y-110886860D01*
X149351868Y-111021906D01*
X149358410Y-111037740D01*
X149359139Y-111054850D01*
X149416745Y-111193926D01*
X149403913Y-111229063D01*
X149352133Y-111353764D01*
X149352118Y-111370894D01*
X149346243Y-111386982D01*
X149351986Y-111521860D01*
X149351868Y-111656906D01*
X149358410Y-111672740D01*
X149359139Y-111689850D01*
X149450230Y-111909766D01*
X149456164Y-111909319D01*
X149467632Y-111937074D01*
X149671202Y-112141000D01*
X144907000Y-112141000D01*
X144907000Y-107061000D01*
X157861000Y-107061000D01*
X157861000Y-112141000D01*
G36*
X151576201Y-112141000D02*
X151191462Y-112141000D01*
X151384168Y-111948630D01*
X151576201Y-112141000D01*
X151576201Y-112141000D01*
G37*
X151576201Y-112141000D02*
X151191462Y-112141000D01*
X151384168Y-111948630D01*
X151576201Y-112141000D01*
G36*
X149606133Y-101320764D02*
X149606118Y-101337894D01*
X149600243Y-101353982D01*
X149605986Y-101488860D01*
X149605868Y-101623906D01*
X149612410Y-101639740D01*
X149613139Y-101656850D01*
X149670745Y-101795926D01*
X149657913Y-101831063D01*
X149606133Y-101955764D01*
X149606118Y-101972894D01*
X149600243Y-101988982D01*
X149605986Y-102123860D01*
X149605868Y-102258906D01*
X149612410Y-102274740D01*
X149613139Y-102291850D01*
X149670745Y-102430926D01*
X149657913Y-102466063D01*
X149606133Y-102590764D01*
X149606118Y-102607894D01*
X149600243Y-102623982D01*
X149605986Y-102758860D01*
X149605868Y-102893906D01*
X149612410Y-102909740D01*
X149613139Y-102926850D01*
X149704230Y-103146766D01*
X149710164Y-103146319D01*
X149718397Y-103166244D01*
X149583234Y-103222230D01*
X149583681Y-103228164D01*
X149555926Y-103239632D01*
X149341385Y-103453798D01*
X149329385Y-103482698D01*
X149323230Y-103482234D01*
X149276913Y-103609063D01*
X149225133Y-103733764D01*
X149225118Y-103750894D01*
X149219243Y-103766982D01*
X149224986Y-103901860D01*
X149224868Y-104036906D01*
X149231410Y-104052740D01*
X149232139Y-104069850D01*
X149289745Y-104208926D01*
X149276913Y-104244063D01*
X149225133Y-104368764D01*
X149225118Y-104385894D01*
X149219243Y-104401982D01*
X149224986Y-104536860D01*
X149224868Y-104671906D01*
X149231410Y-104687740D01*
X149232139Y-104704850D01*
X149289745Y-104843926D01*
X149276913Y-104879063D01*
X149225133Y-105003764D01*
X149225118Y-105020894D01*
X149219243Y-105036982D01*
X149224986Y-105171860D01*
X149224868Y-105306906D01*
X149231410Y-105322740D01*
X149232139Y-105339850D01*
X149289745Y-105478926D01*
X149276913Y-105514063D01*
X149225133Y-105638764D01*
X149225118Y-105655894D01*
X149219243Y-105671982D01*
X149224986Y-105806860D01*
X149224868Y-105941906D01*
X149231410Y-105957740D01*
X149232139Y-105974850D01*
X149323230Y-106194766D01*
X149329164Y-106194319D01*
X149340632Y-106222074D01*
X149554798Y-106436615D01*
X149583698Y-106448615D01*
X149583234Y-106454770D01*
X149710063Y-106501087D01*
X149834764Y-106552867D01*
X149851894Y-106552882D01*
X149852217Y-106553000D01*
X144907000Y-106553000D01*
X144907000Y-101219000D01*
X149648389Y-101219000D01*
X149606133Y-101320764D01*
X149606133Y-101320764D01*
G37*
X149606133Y-101320764D02*
X149606118Y-101337894D01*
X149600243Y-101353982D01*
X149605986Y-101488860D01*
X149605868Y-101623906D01*
X149612410Y-101639740D01*
X149613139Y-101656850D01*
X149670745Y-101795926D01*
X149657913Y-101831063D01*
X149606133Y-101955764D01*
X149606118Y-101972894D01*
X149600243Y-101988982D01*
X149605986Y-102123860D01*
X149605868Y-102258906D01*
X149612410Y-102274740D01*
X149613139Y-102291850D01*
X149670745Y-102430926D01*
X149657913Y-102466063D01*
X149606133Y-102590764D01*
X149606118Y-102607894D01*
X149600243Y-102623982D01*
X149605986Y-102758860D01*
X149605868Y-102893906D01*
X149612410Y-102909740D01*
X149613139Y-102926850D01*
X149704230Y-103146766D01*
X149710164Y-103146319D01*
X149718397Y-103166244D01*
X149583234Y-103222230D01*
X149583681Y-103228164D01*
X149555926Y-103239632D01*
X149341385Y-103453798D01*
X149329385Y-103482698D01*
X149323230Y-103482234D01*
X149276913Y-103609063D01*
X149225133Y-103733764D01*
X149225118Y-103750894D01*
X149219243Y-103766982D01*
X149224986Y-103901860D01*
X149224868Y-104036906D01*
X149231410Y-104052740D01*
X149232139Y-104069850D01*
X149289745Y-104208926D01*
X149276913Y-104244063D01*
X149225133Y-104368764D01*
X149225118Y-104385894D01*
X149219243Y-104401982D01*
X149224986Y-104536860D01*
X149224868Y-104671906D01*
X149231410Y-104687740D01*
X149232139Y-104704850D01*
X149289745Y-104843926D01*
X149276913Y-104879063D01*
X149225133Y-105003764D01*
X149225118Y-105020894D01*
X149219243Y-105036982D01*
X149224986Y-105171860D01*
X149224868Y-105306906D01*
X149231410Y-105322740D01*
X149232139Y-105339850D01*
X149289745Y-105478926D01*
X149276913Y-105514063D01*
X149225133Y-105638764D01*
X149225118Y-105655894D01*
X149219243Y-105671982D01*
X149224986Y-105806860D01*
X149224868Y-105941906D01*
X149231410Y-105957740D01*
X149232139Y-105974850D01*
X149323230Y-106194766D01*
X149329164Y-106194319D01*
X149340632Y-106222074D01*
X149554798Y-106436615D01*
X149583698Y-106448615D01*
X149583234Y-106454770D01*
X149710063Y-106501087D01*
X149834764Y-106552867D01*
X149851894Y-106552882D01*
X149852217Y-106553000D01*
X144907000Y-106553000D01*
X144907000Y-101219000D01*
X149648389Y-101219000D01*
X149606133Y-101320764D01*
G36*
X150472063Y-106501087D02*
X150596764Y-106552867D01*
X150613894Y-106552882D01*
X150614217Y-106553000D01*
X150138225Y-106553000D01*
X150153740Y-106546590D01*
X150170850Y-106545861D01*
X150369432Y-106463607D01*
X150472063Y-106501087D01*
X150472063Y-106501087D01*
G37*
X150472063Y-106501087D02*
X150596764Y-106552867D01*
X150613894Y-106552882D01*
X150614217Y-106553000D01*
X150138225Y-106553000D01*
X150153740Y-106546590D01*
X150170850Y-106545861D01*
X150369432Y-106463607D01*
X150472063Y-106501087D01*
G36*
X151586798Y-106436615D02*
X151615698Y-106448615D01*
X151615234Y-106454770D01*
X151742063Y-106501087D01*
X151866764Y-106552867D01*
X151883894Y-106552882D01*
X151884217Y-106553000D01*
X150900225Y-106553000D01*
X150915740Y-106546590D01*
X150932850Y-106545861D01*
X151152766Y-106454770D01*
X151152319Y-106448836D01*
X151180074Y-106437368D01*
X151384168Y-106233630D01*
X151586798Y-106436615D01*
X151586798Y-106436615D01*
G37*
X151586798Y-106436615D02*
X151615698Y-106448615D01*
X151615234Y-106454770D01*
X151742063Y-106501087D01*
X151866764Y-106552867D01*
X151883894Y-106552882D01*
X151884217Y-106553000D01*
X150900225Y-106553000D01*
X150915740Y-106546590D01*
X150932850Y-106545861D01*
X151152766Y-106454770D01*
X151152319Y-106448836D01*
X151180074Y-106437368D01*
X151384168Y-106233630D01*
X151586798Y-106436615D01*
G36*
X152504063Y-106501087D02*
X152628764Y-106552867D01*
X152645894Y-106552882D01*
X152646217Y-106553000D01*
X152170225Y-106553000D01*
X152185740Y-106546590D01*
X152202850Y-106545861D01*
X152401432Y-106463607D01*
X152504063Y-106501087D01*
X152504063Y-106501087D01*
G37*
X152504063Y-106501087D02*
X152628764Y-106552867D01*
X152645894Y-106552882D01*
X152646217Y-106553000D01*
X152170225Y-106553000D01*
X152185740Y-106546590D01*
X152202850Y-106545861D01*
X152401432Y-106463607D01*
X152504063Y-106501087D01*
G36*
X157861000Y-106553000D02*
X152932225Y-106553000D01*
X152947740Y-106546590D01*
X152964850Y-106545861D01*
X153184766Y-106454770D01*
X153184319Y-106448836D01*
X153212074Y-106437368D01*
X153426615Y-106223202D01*
X153438615Y-106194302D01*
X153444770Y-106194766D01*
X153491087Y-106067937D01*
X153542867Y-105943236D01*
X153542882Y-105926106D01*
X153548757Y-105910018D01*
X153543014Y-105775140D01*
X153543132Y-105640094D01*
X153536590Y-105624260D01*
X153535861Y-105607150D01*
X153478255Y-105468074D01*
X153491087Y-105432937D01*
X153542867Y-105308236D01*
X153542882Y-105291106D01*
X153548757Y-105275018D01*
X153543014Y-105140140D01*
X153543132Y-105005094D01*
X153536590Y-104989260D01*
X153535861Y-104972150D01*
X153478255Y-104833074D01*
X153491087Y-104797937D01*
X153542867Y-104673236D01*
X153542882Y-104656106D01*
X153548757Y-104640018D01*
X153543014Y-104505140D01*
X153543132Y-104370094D01*
X153536590Y-104354260D01*
X153535861Y-104337150D01*
X153478255Y-104198074D01*
X153491087Y-104162937D01*
X153542867Y-104038236D01*
X153542882Y-104021106D01*
X153548757Y-104005018D01*
X153543014Y-103870140D01*
X153543132Y-103735094D01*
X153536590Y-103719260D01*
X153535861Y-103702150D01*
X153444770Y-103482234D01*
X153438836Y-103482681D01*
X153427368Y-103454926D01*
X153213202Y-103240385D01*
X153184302Y-103228385D01*
X153184766Y-103222230D01*
X153057937Y-103175913D01*
X153047175Y-103171445D01*
X153057615Y-103146302D01*
X153063770Y-103146766D01*
X153110087Y-103019937D01*
X153161867Y-102895236D01*
X153161882Y-102878106D01*
X153167757Y-102862018D01*
X153162014Y-102727140D01*
X153162132Y-102592094D01*
X153155590Y-102576260D01*
X153154861Y-102559150D01*
X153097255Y-102420074D01*
X153110087Y-102384937D01*
X153161867Y-102260236D01*
X153161882Y-102243106D01*
X153167757Y-102227018D01*
X153162014Y-102092140D01*
X153162132Y-101957094D01*
X153155590Y-101941260D01*
X153154861Y-101924150D01*
X153097255Y-101785074D01*
X153110087Y-101749937D01*
X153161867Y-101625236D01*
X153161882Y-101608106D01*
X153167757Y-101592018D01*
X153162014Y-101457140D01*
X153162132Y-101322094D01*
X153155590Y-101306260D01*
X153154861Y-101289150D01*
X153125804Y-101219000D01*
X157861000Y-101219000D01*
X157861000Y-106553000D01*
X157861000Y-106553000D01*
G37*
X157861000Y-106553000D02*
X152932225Y-106553000D01*
X152947740Y-106546590D01*
X152964850Y-106545861D01*
X153184766Y-106454770D01*
X153184319Y-106448836D01*
X153212074Y-106437368D01*
X153426615Y-106223202D01*
X153438615Y-106194302D01*
X153444770Y-106194766D01*
X153491087Y-106067937D01*
X153542867Y-105943236D01*
X153542882Y-105926106D01*
X153548757Y-105910018D01*
X153543014Y-105775140D01*
X153543132Y-105640094D01*
X153536590Y-105624260D01*
X153535861Y-105607150D01*
X153478255Y-105468074D01*
X153491087Y-105432937D01*
X153542867Y-105308236D01*
X153542882Y-105291106D01*
X153548757Y-105275018D01*
X153543014Y-105140140D01*
X153543132Y-105005094D01*
X153536590Y-104989260D01*
X153535861Y-104972150D01*
X153478255Y-104833074D01*
X153491087Y-104797937D01*
X153542867Y-104673236D01*
X153542882Y-104656106D01*
X153548757Y-104640018D01*
X153543014Y-104505140D01*
X153543132Y-104370094D01*
X153536590Y-104354260D01*
X153535861Y-104337150D01*
X153478255Y-104198074D01*
X153491087Y-104162937D01*
X153542867Y-104038236D01*
X153542882Y-104021106D01*
X153548757Y-104005018D01*
X153543014Y-103870140D01*
X153543132Y-103735094D01*
X153536590Y-103719260D01*
X153535861Y-103702150D01*
X153444770Y-103482234D01*
X153438836Y-103482681D01*
X153427368Y-103454926D01*
X153213202Y-103240385D01*
X153184302Y-103228385D01*
X153184766Y-103222230D01*
X153057937Y-103175913D01*
X153047175Y-103171445D01*
X153057615Y-103146302D01*
X153063770Y-103146766D01*
X153110087Y-103019937D01*
X153161867Y-102895236D01*
X153161882Y-102878106D01*
X153167757Y-102862018D01*
X153162014Y-102727140D01*
X153162132Y-102592094D01*
X153155590Y-102576260D01*
X153154861Y-102559150D01*
X153097255Y-102420074D01*
X153110087Y-102384937D01*
X153161867Y-102260236D01*
X153161882Y-102243106D01*
X153167757Y-102227018D01*
X153162014Y-102092140D01*
X153162132Y-101957094D01*
X153155590Y-101941260D01*
X153154861Y-101924150D01*
X153097255Y-101785074D01*
X153110087Y-101749937D01*
X153161867Y-101625236D01*
X153161882Y-101608106D01*
X153167757Y-101592018D01*
X153162014Y-101457140D01*
X153162132Y-101322094D01*
X153155590Y-101306260D01*
X153154861Y-101289150D01*
X153125804Y-101219000D01*
X157861000Y-101219000D01*
X157861000Y-106553000D01*
G36*
X157861000Y-100711000D02*
X153096462Y-100711000D01*
X153299615Y-100508202D01*
X153311615Y-100479302D01*
X153317770Y-100479766D01*
X153364087Y-100352937D01*
X153415867Y-100228236D01*
X153415882Y-100211106D01*
X153421757Y-100195018D01*
X153416014Y-100060140D01*
X153416132Y-99925094D01*
X153409590Y-99909260D01*
X153408861Y-99892150D01*
X153351255Y-99753074D01*
X153364087Y-99717937D01*
X153415867Y-99593236D01*
X153415882Y-99576106D01*
X153421757Y-99560018D01*
X153416014Y-99425140D01*
X153416132Y-99290094D01*
X153409590Y-99274260D01*
X153408861Y-99257150D01*
X153351255Y-99118074D01*
X153364087Y-99082937D01*
X153415867Y-98958236D01*
X153415882Y-98941106D01*
X153421757Y-98925018D01*
X153416014Y-98790140D01*
X153416132Y-98655094D01*
X153409590Y-98639260D01*
X153408861Y-98622150D01*
X153317770Y-98402234D01*
X153311836Y-98402681D01*
X153300368Y-98374926D01*
X153086202Y-98160385D01*
X153057302Y-98148385D01*
X153057766Y-98142230D01*
X152930937Y-98095913D01*
X152806236Y-98044133D01*
X152789106Y-98044118D01*
X152773018Y-98038243D01*
X152638140Y-98043986D01*
X152503094Y-98043868D01*
X152487260Y-98050410D01*
X152470150Y-98051139D01*
X152331074Y-98108745D01*
X152295937Y-98095913D01*
X152171236Y-98044133D01*
X152154106Y-98044118D01*
X152138018Y-98038243D01*
X152003140Y-98043986D01*
X151868094Y-98043868D01*
X151852260Y-98050410D01*
X151835150Y-98051139D01*
X151615234Y-98142230D01*
X151615681Y-98148164D01*
X151587926Y-98159632D01*
X151383832Y-98363370D01*
X151181202Y-98160385D01*
X151152302Y-98148385D01*
X151152766Y-98142230D01*
X151025937Y-98095913D01*
X150901236Y-98044133D01*
X150884106Y-98044118D01*
X150868018Y-98038243D01*
X150733140Y-98043986D01*
X150598094Y-98043868D01*
X150582260Y-98050410D01*
X150565150Y-98051139D01*
X150426074Y-98108745D01*
X150390937Y-98095913D01*
X150266236Y-98044133D01*
X150249106Y-98044118D01*
X150233018Y-98038243D01*
X150098140Y-98043986D01*
X149963094Y-98043868D01*
X149947260Y-98050410D01*
X149930150Y-98051139D01*
X149710234Y-98142230D01*
X149710681Y-98148164D01*
X149682926Y-98159632D01*
X149468385Y-98373798D01*
X149456385Y-98402698D01*
X149450230Y-98402234D01*
X149403913Y-98529063D01*
X149352133Y-98653764D01*
X149352118Y-98670894D01*
X149346243Y-98686982D01*
X149351986Y-98821860D01*
X149351868Y-98956906D01*
X149358410Y-98972740D01*
X149359139Y-98989850D01*
X149416745Y-99128926D01*
X149403913Y-99164063D01*
X149352133Y-99288764D01*
X149352118Y-99305894D01*
X149346243Y-99321982D01*
X149351986Y-99456860D01*
X149351868Y-99591906D01*
X149358410Y-99607740D01*
X149359139Y-99624850D01*
X149416745Y-99763926D01*
X149403913Y-99799063D01*
X149352133Y-99923764D01*
X149352118Y-99940894D01*
X149346243Y-99956982D01*
X149351986Y-100091860D01*
X149351868Y-100226906D01*
X149358410Y-100242740D01*
X149359139Y-100259850D01*
X149450230Y-100479766D01*
X149456164Y-100479319D01*
X149467632Y-100507074D01*
X149671202Y-100711000D01*
X144907000Y-100711000D01*
X144907000Y-95631000D01*
X157861000Y-95631000D01*
X157861000Y-100711000D01*
X157861000Y-100711000D01*
G37*
X157861000Y-100711000D02*
X153096462Y-100711000D01*
X153299615Y-100508202D01*
X153311615Y-100479302D01*
X153317770Y-100479766D01*
X153364087Y-100352937D01*
X153415867Y-100228236D01*
X153415882Y-100211106D01*
X153421757Y-100195018D01*
X153416014Y-100060140D01*
X153416132Y-99925094D01*
X153409590Y-99909260D01*
X153408861Y-99892150D01*
X153351255Y-99753074D01*
X153364087Y-99717937D01*
X153415867Y-99593236D01*
X153415882Y-99576106D01*
X153421757Y-99560018D01*
X153416014Y-99425140D01*
X153416132Y-99290094D01*
X153409590Y-99274260D01*
X153408861Y-99257150D01*
X153351255Y-99118074D01*
X153364087Y-99082937D01*
X153415867Y-98958236D01*
X153415882Y-98941106D01*
X153421757Y-98925018D01*
X153416014Y-98790140D01*
X153416132Y-98655094D01*
X153409590Y-98639260D01*
X153408861Y-98622150D01*
X153317770Y-98402234D01*
X153311836Y-98402681D01*
X153300368Y-98374926D01*
X153086202Y-98160385D01*
X153057302Y-98148385D01*
X153057766Y-98142230D01*
X152930937Y-98095913D01*
X152806236Y-98044133D01*
X152789106Y-98044118D01*
X152773018Y-98038243D01*
X152638140Y-98043986D01*
X152503094Y-98043868D01*
X152487260Y-98050410D01*
X152470150Y-98051139D01*
X152331074Y-98108745D01*
X152295937Y-98095913D01*
X152171236Y-98044133D01*
X152154106Y-98044118D01*
X152138018Y-98038243D01*
X152003140Y-98043986D01*
X151868094Y-98043868D01*
X151852260Y-98050410D01*
X151835150Y-98051139D01*
X151615234Y-98142230D01*
X151615681Y-98148164D01*
X151587926Y-98159632D01*
X151383832Y-98363370D01*
X151181202Y-98160385D01*
X151152302Y-98148385D01*
X151152766Y-98142230D01*
X151025937Y-98095913D01*
X150901236Y-98044133D01*
X150884106Y-98044118D01*
X150868018Y-98038243D01*
X150733140Y-98043986D01*
X150598094Y-98043868D01*
X150582260Y-98050410D01*
X150565150Y-98051139D01*
X150426074Y-98108745D01*
X150390937Y-98095913D01*
X150266236Y-98044133D01*
X150249106Y-98044118D01*
X150233018Y-98038243D01*
X150098140Y-98043986D01*
X149963094Y-98043868D01*
X149947260Y-98050410D01*
X149930150Y-98051139D01*
X149710234Y-98142230D01*
X149710681Y-98148164D01*
X149682926Y-98159632D01*
X149468385Y-98373798D01*
X149456385Y-98402698D01*
X149450230Y-98402234D01*
X149403913Y-98529063D01*
X149352133Y-98653764D01*
X149352118Y-98670894D01*
X149346243Y-98686982D01*
X149351986Y-98821860D01*
X149351868Y-98956906D01*
X149358410Y-98972740D01*
X149359139Y-98989850D01*
X149416745Y-99128926D01*
X149403913Y-99164063D01*
X149352133Y-99288764D01*
X149352118Y-99305894D01*
X149346243Y-99321982D01*
X149351986Y-99456860D01*
X149351868Y-99591906D01*
X149358410Y-99607740D01*
X149359139Y-99624850D01*
X149416745Y-99763926D01*
X149403913Y-99799063D01*
X149352133Y-99923764D01*
X149352118Y-99940894D01*
X149346243Y-99956982D01*
X149351986Y-100091860D01*
X149351868Y-100226906D01*
X149358410Y-100242740D01*
X149359139Y-100259850D01*
X149450230Y-100479766D01*
X149456164Y-100479319D01*
X149467632Y-100507074D01*
X149671202Y-100711000D01*
X144907000Y-100711000D01*
X144907000Y-95631000D01*
X157861000Y-95631000D01*
X157861000Y-100711000D01*
G36*
X151576201Y-100711000D02*
X151191462Y-100711000D01*
X151384168Y-100518630D01*
X151576201Y-100711000D01*
X151576201Y-100711000D01*
G37*
X151576201Y-100711000D02*
X151191462Y-100711000D01*
X151384168Y-100518630D01*
X151576201Y-100711000D01*
G36*
X135636133Y-112750764D02*
X135636118Y-112767894D01*
X135630243Y-112783982D01*
X135635986Y-112918860D01*
X135635868Y-113053906D01*
X135642410Y-113069740D01*
X135643139Y-113086850D01*
X135700745Y-113225926D01*
X135687913Y-113261063D01*
X135636133Y-113385764D01*
X135636118Y-113402894D01*
X135630243Y-113418982D01*
X135635986Y-113553860D01*
X135635868Y-113688906D01*
X135642410Y-113704740D01*
X135643139Y-113721850D01*
X135700745Y-113860926D01*
X135687913Y-113896063D01*
X135636133Y-114020764D01*
X135636118Y-114037894D01*
X135630243Y-114053982D01*
X135635986Y-114188860D01*
X135635868Y-114323906D01*
X135642410Y-114339740D01*
X135643139Y-114356850D01*
X135734230Y-114576766D01*
X135740164Y-114576319D01*
X135748397Y-114596244D01*
X135613234Y-114652230D01*
X135613681Y-114658164D01*
X135585926Y-114669632D01*
X135371385Y-114883798D01*
X135359385Y-114912698D01*
X135353230Y-114912234D01*
X135306913Y-115039063D01*
X135255133Y-115163764D01*
X135255118Y-115180894D01*
X135249243Y-115196982D01*
X135254986Y-115331860D01*
X135254868Y-115466906D01*
X135261410Y-115482740D01*
X135262139Y-115499850D01*
X135319745Y-115638926D01*
X135306913Y-115674063D01*
X135255133Y-115798764D01*
X135255118Y-115815894D01*
X135249243Y-115831982D01*
X135254986Y-115966860D01*
X135254868Y-116101906D01*
X135261410Y-116117740D01*
X135262139Y-116134850D01*
X135319745Y-116273926D01*
X135306913Y-116309063D01*
X135255133Y-116433764D01*
X135255118Y-116450894D01*
X135249243Y-116466982D01*
X135254986Y-116601860D01*
X135254868Y-116736906D01*
X135261410Y-116752740D01*
X135262139Y-116769850D01*
X135319745Y-116908926D01*
X135306913Y-116944063D01*
X135255133Y-117068764D01*
X135255118Y-117085894D01*
X135249243Y-117101982D01*
X135254986Y-117236860D01*
X135254868Y-117371906D01*
X135261410Y-117387740D01*
X135262139Y-117404850D01*
X135353230Y-117624766D01*
X135359164Y-117624319D01*
X135370632Y-117652074D01*
X135584798Y-117866615D01*
X135613698Y-117878615D01*
X135613234Y-117884770D01*
X135740063Y-117931087D01*
X135864764Y-117982867D01*
X135881894Y-117982882D01*
X135882217Y-117983000D01*
X130937000Y-117983000D01*
X130937000Y-112649000D01*
X135678389Y-112649000D01*
X135636133Y-112750764D01*
X135636133Y-112750764D01*
G37*
X135636133Y-112750764D02*
X135636118Y-112767894D01*
X135630243Y-112783982D01*
X135635986Y-112918860D01*
X135635868Y-113053906D01*
X135642410Y-113069740D01*
X135643139Y-113086850D01*
X135700745Y-113225926D01*
X135687913Y-113261063D01*
X135636133Y-113385764D01*
X135636118Y-113402894D01*
X135630243Y-113418982D01*
X135635986Y-113553860D01*
X135635868Y-113688906D01*
X135642410Y-113704740D01*
X135643139Y-113721850D01*
X135700745Y-113860926D01*
X135687913Y-113896063D01*
X135636133Y-114020764D01*
X135636118Y-114037894D01*
X135630243Y-114053982D01*
X135635986Y-114188860D01*
X135635868Y-114323906D01*
X135642410Y-114339740D01*
X135643139Y-114356850D01*
X135734230Y-114576766D01*
X135740164Y-114576319D01*
X135748397Y-114596244D01*
X135613234Y-114652230D01*
X135613681Y-114658164D01*
X135585926Y-114669632D01*
X135371385Y-114883798D01*
X135359385Y-114912698D01*
X135353230Y-114912234D01*
X135306913Y-115039063D01*
X135255133Y-115163764D01*
X135255118Y-115180894D01*
X135249243Y-115196982D01*
X135254986Y-115331860D01*
X135254868Y-115466906D01*
X135261410Y-115482740D01*
X135262139Y-115499850D01*
X135319745Y-115638926D01*
X135306913Y-115674063D01*
X135255133Y-115798764D01*
X135255118Y-115815894D01*
X135249243Y-115831982D01*
X135254986Y-115966860D01*
X135254868Y-116101906D01*
X135261410Y-116117740D01*
X135262139Y-116134850D01*
X135319745Y-116273926D01*
X135306913Y-116309063D01*
X135255133Y-116433764D01*
X135255118Y-116450894D01*
X135249243Y-116466982D01*
X135254986Y-116601860D01*
X135254868Y-116736906D01*
X135261410Y-116752740D01*
X135262139Y-116769850D01*
X135319745Y-116908926D01*
X135306913Y-116944063D01*
X135255133Y-117068764D01*
X135255118Y-117085894D01*
X135249243Y-117101982D01*
X135254986Y-117236860D01*
X135254868Y-117371906D01*
X135261410Y-117387740D01*
X135262139Y-117404850D01*
X135353230Y-117624766D01*
X135359164Y-117624319D01*
X135370632Y-117652074D01*
X135584798Y-117866615D01*
X135613698Y-117878615D01*
X135613234Y-117884770D01*
X135740063Y-117931087D01*
X135864764Y-117982867D01*
X135881894Y-117982882D01*
X135882217Y-117983000D01*
X130937000Y-117983000D01*
X130937000Y-112649000D01*
X135678389Y-112649000D01*
X135636133Y-112750764D01*
G36*
X136502063Y-117931087D02*
X136626764Y-117982867D01*
X136643894Y-117982882D01*
X136644217Y-117983000D01*
X136168225Y-117983000D01*
X136183740Y-117976590D01*
X136200850Y-117975861D01*
X136399432Y-117893607D01*
X136502063Y-117931087D01*
X136502063Y-117931087D01*
G37*
X136502063Y-117931087D02*
X136626764Y-117982867D01*
X136643894Y-117982882D01*
X136644217Y-117983000D01*
X136168225Y-117983000D01*
X136183740Y-117976590D01*
X136200850Y-117975861D01*
X136399432Y-117893607D01*
X136502063Y-117931087D01*
G36*
X137616798Y-117866615D02*
X137645698Y-117878615D01*
X137645234Y-117884770D01*
X137772063Y-117931087D01*
X137896764Y-117982867D01*
X137913894Y-117982882D01*
X137914217Y-117983000D01*
X136930225Y-117983000D01*
X136945740Y-117976590D01*
X136962850Y-117975861D01*
X137182766Y-117884770D01*
X137182319Y-117878836D01*
X137210074Y-117867368D01*
X137414168Y-117663630D01*
X137616798Y-117866615D01*
X137616798Y-117866615D01*
G37*
X137616798Y-117866615D02*
X137645698Y-117878615D01*
X137645234Y-117884770D01*
X137772063Y-117931087D01*
X137896764Y-117982867D01*
X137913894Y-117982882D01*
X137914217Y-117983000D01*
X136930225Y-117983000D01*
X136945740Y-117976590D01*
X136962850Y-117975861D01*
X137182766Y-117884770D01*
X137182319Y-117878836D01*
X137210074Y-117867368D01*
X137414168Y-117663630D01*
X137616798Y-117866615D01*
G36*
X138534063Y-117931087D02*
X138658764Y-117982867D01*
X138675894Y-117982882D01*
X138676217Y-117983000D01*
X138200225Y-117983000D01*
X138215740Y-117976590D01*
X138232850Y-117975861D01*
X138431432Y-117893607D01*
X138534063Y-117931087D01*
X138534063Y-117931087D01*
G37*
X138534063Y-117931087D02*
X138658764Y-117982867D01*
X138675894Y-117982882D01*
X138676217Y-117983000D01*
X138200225Y-117983000D01*
X138215740Y-117976590D01*
X138232850Y-117975861D01*
X138431432Y-117893607D01*
X138534063Y-117931087D01*
G36*
X143891000Y-117983000D02*
X138962225Y-117983000D01*
X138977740Y-117976590D01*
X138994850Y-117975861D01*
X139214766Y-117884770D01*
X139214319Y-117878836D01*
X139242074Y-117867368D01*
X139456615Y-117653202D01*
X139468615Y-117624302D01*
X139474770Y-117624766D01*
X139521087Y-117497937D01*
X139572867Y-117373236D01*
X139572882Y-117356106D01*
X139578757Y-117340018D01*
X139573014Y-117205140D01*
X139573132Y-117070094D01*
X139566590Y-117054260D01*
X139565861Y-117037150D01*
X139508255Y-116898074D01*
X139521087Y-116862937D01*
X139572867Y-116738236D01*
X139572882Y-116721106D01*
X139578757Y-116705018D01*
X139573014Y-116570140D01*
X139573132Y-116435094D01*
X139566590Y-116419260D01*
X139565861Y-116402150D01*
X139508255Y-116263074D01*
X139521087Y-116227937D01*
X139572867Y-116103236D01*
X139572882Y-116086106D01*
X139578757Y-116070018D01*
X139573014Y-115935140D01*
X139573132Y-115800094D01*
X139566590Y-115784260D01*
X139565861Y-115767150D01*
X139508255Y-115628074D01*
X139521087Y-115592937D01*
X139572867Y-115468236D01*
X139572882Y-115451106D01*
X139578757Y-115435018D01*
X139573014Y-115300140D01*
X139573132Y-115165094D01*
X139566590Y-115149260D01*
X139565861Y-115132150D01*
X139474770Y-114912234D01*
X139468836Y-114912681D01*
X139457368Y-114884926D01*
X139243202Y-114670385D01*
X139214302Y-114658385D01*
X139214766Y-114652230D01*
X139087937Y-114605913D01*
X139077175Y-114601445D01*
X139087615Y-114576302D01*
X139093770Y-114576766D01*
X139140087Y-114449937D01*
X139191867Y-114325236D01*
X139191882Y-114308106D01*
X139197757Y-114292018D01*
X139192014Y-114157140D01*
X139192132Y-114022094D01*
X139185590Y-114006260D01*
X139184861Y-113989150D01*
X139127255Y-113850074D01*
X139140087Y-113814937D01*
X139191867Y-113690236D01*
X139191882Y-113673106D01*
X139197757Y-113657018D01*
X139192014Y-113522140D01*
X139192132Y-113387094D01*
X139185590Y-113371260D01*
X139184861Y-113354150D01*
X139127255Y-113215074D01*
X139140087Y-113179937D01*
X139191867Y-113055236D01*
X139191882Y-113038106D01*
X139197757Y-113022018D01*
X139192014Y-112887140D01*
X139192132Y-112752094D01*
X139185590Y-112736260D01*
X139184861Y-112719150D01*
X139155804Y-112649000D01*
X143891000Y-112649000D01*
X143891000Y-117983000D01*
X143891000Y-117983000D01*
G37*
X143891000Y-117983000D02*
X138962225Y-117983000D01*
X138977740Y-117976590D01*
X138994850Y-117975861D01*
X139214766Y-117884770D01*
X139214319Y-117878836D01*
X139242074Y-117867368D01*
X139456615Y-117653202D01*
X139468615Y-117624302D01*
X139474770Y-117624766D01*
X139521087Y-117497937D01*
X139572867Y-117373236D01*
X139572882Y-117356106D01*
X139578757Y-117340018D01*
X139573014Y-117205140D01*
X139573132Y-117070094D01*
X139566590Y-117054260D01*
X139565861Y-117037150D01*
X139508255Y-116898074D01*
X139521087Y-116862937D01*
X139572867Y-116738236D01*
X139572882Y-116721106D01*
X139578757Y-116705018D01*
X139573014Y-116570140D01*
X139573132Y-116435094D01*
X139566590Y-116419260D01*
X139565861Y-116402150D01*
X139508255Y-116263074D01*
X139521087Y-116227937D01*
X139572867Y-116103236D01*
X139572882Y-116086106D01*
X139578757Y-116070018D01*
X139573014Y-115935140D01*
X139573132Y-115800094D01*
X139566590Y-115784260D01*
X139565861Y-115767150D01*
X139508255Y-115628074D01*
X139521087Y-115592937D01*
X139572867Y-115468236D01*
X139572882Y-115451106D01*
X139578757Y-115435018D01*
X139573014Y-115300140D01*
X139573132Y-115165094D01*
X139566590Y-115149260D01*
X139565861Y-115132150D01*
X139474770Y-114912234D01*
X139468836Y-114912681D01*
X139457368Y-114884926D01*
X139243202Y-114670385D01*
X139214302Y-114658385D01*
X139214766Y-114652230D01*
X139087937Y-114605913D01*
X139077175Y-114601445D01*
X139087615Y-114576302D01*
X139093770Y-114576766D01*
X139140087Y-114449937D01*
X139191867Y-114325236D01*
X139191882Y-114308106D01*
X139197757Y-114292018D01*
X139192014Y-114157140D01*
X139192132Y-114022094D01*
X139185590Y-114006260D01*
X139184861Y-113989150D01*
X139127255Y-113850074D01*
X139140087Y-113814937D01*
X139191867Y-113690236D01*
X139191882Y-113673106D01*
X139197757Y-113657018D01*
X139192014Y-113522140D01*
X139192132Y-113387094D01*
X139185590Y-113371260D01*
X139184861Y-113354150D01*
X139127255Y-113215074D01*
X139140087Y-113179937D01*
X139191867Y-113055236D01*
X139191882Y-113038106D01*
X139197757Y-113022018D01*
X139192014Y-112887140D01*
X139192132Y-112752094D01*
X139185590Y-112736260D01*
X139184861Y-112719150D01*
X139155804Y-112649000D01*
X143891000Y-112649000D01*
X143891000Y-117983000D01*
G36*
X143891000Y-112141000D02*
X139126462Y-112141000D01*
X139329615Y-111938202D01*
X139341615Y-111909302D01*
X139347770Y-111909766D01*
X139394087Y-111782937D01*
X139445867Y-111658236D01*
X139445882Y-111641106D01*
X139451757Y-111625018D01*
X139446014Y-111490140D01*
X139446132Y-111355094D01*
X139439590Y-111339260D01*
X139438861Y-111322150D01*
X139381255Y-111183074D01*
X139394087Y-111147937D01*
X139445867Y-111023236D01*
X139445882Y-111006106D01*
X139451757Y-110990018D01*
X139446014Y-110855140D01*
X139446132Y-110720094D01*
X139439590Y-110704260D01*
X139438861Y-110687150D01*
X139381255Y-110548074D01*
X139394087Y-110512937D01*
X139445867Y-110388236D01*
X139445882Y-110371106D01*
X139451757Y-110355018D01*
X139446014Y-110220140D01*
X139446132Y-110085094D01*
X139439590Y-110069260D01*
X139438861Y-110052150D01*
X139347770Y-109832234D01*
X139341836Y-109832681D01*
X139330368Y-109804926D01*
X139116202Y-109590385D01*
X139087302Y-109578385D01*
X139087766Y-109572230D01*
X138960937Y-109525913D01*
X138836236Y-109474133D01*
X138819106Y-109474118D01*
X138803018Y-109468243D01*
X138668140Y-109473986D01*
X138533094Y-109473868D01*
X138517260Y-109480410D01*
X138500150Y-109481139D01*
X138361074Y-109538745D01*
X138325937Y-109525913D01*
X138201236Y-109474133D01*
X138184106Y-109474118D01*
X138168018Y-109468243D01*
X138033140Y-109473986D01*
X137898094Y-109473868D01*
X137882260Y-109480410D01*
X137865150Y-109481139D01*
X137645234Y-109572230D01*
X137645681Y-109578164D01*
X137617926Y-109589632D01*
X137413832Y-109793370D01*
X137211202Y-109590385D01*
X137182302Y-109578385D01*
X137182766Y-109572230D01*
X137055937Y-109525913D01*
X136931236Y-109474133D01*
X136914106Y-109474118D01*
X136898018Y-109468243D01*
X136763140Y-109473986D01*
X136628094Y-109473868D01*
X136612260Y-109480410D01*
X136595150Y-109481139D01*
X136456074Y-109538745D01*
X136420937Y-109525913D01*
X136296236Y-109474133D01*
X136279106Y-109474118D01*
X136263018Y-109468243D01*
X136128140Y-109473986D01*
X135993094Y-109473868D01*
X135977260Y-109480410D01*
X135960150Y-109481139D01*
X135740234Y-109572230D01*
X135740681Y-109578164D01*
X135712926Y-109589632D01*
X135498385Y-109803798D01*
X135486385Y-109832698D01*
X135480230Y-109832234D01*
X135433913Y-109959063D01*
X135382133Y-110083764D01*
X135382118Y-110100894D01*
X135376243Y-110116982D01*
X135381986Y-110251860D01*
X135381868Y-110386906D01*
X135388410Y-110402740D01*
X135389139Y-110419850D01*
X135446745Y-110558926D01*
X135433913Y-110594063D01*
X135382133Y-110718764D01*
X135382118Y-110735894D01*
X135376243Y-110751982D01*
X135381986Y-110886860D01*
X135381868Y-111021906D01*
X135388410Y-111037740D01*
X135389139Y-111054850D01*
X135446745Y-111193926D01*
X135433913Y-111229063D01*
X135382133Y-111353764D01*
X135382118Y-111370894D01*
X135376243Y-111386982D01*
X135381986Y-111521860D01*
X135381868Y-111656906D01*
X135388410Y-111672740D01*
X135389139Y-111689850D01*
X135480230Y-111909766D01*
X135486164Y-111909319D01*
X135497632Y-111937074D01*
X135701202Y-112141000D01*
X130937000Y-112141000D01*
X130937000Y-107061000D01*
X143891000Y-107061000D01*
X143891000Y-112141000D01*
X143891000Y-112141000D01*
G37*
X143891000Y-112141000D02*
X139126462Y-112141000D01*
X139329615Y-111938202D01*
X139341615Y-111909302D01*
X139347770Y-111909766D01*
X139394087Y-111782937D01*
X139445867Y-111658236D01*
X139445882Y-111641106D01*
X139451757Y-111625018D01*
X139446014Y-111490140D01*
X139446132Y-111355094D01*
X139439590Y-111339260D01*
X139438861Y-111322150D01*
X139381255Y-111183074D01*
X139394087Y-111147937D01*
X139445867Y-111023236D01*
X139445882Y-111006106D01*
X139451757Y-110990018D01*
X139446014Y-110855140D01*
X139446132Y-110720094D01*
X139439590Y-110704260D01*
X139438861Y-110687150D01*
X139381255Y-110548074D01*
X139394087Y-110512937D01*
X139445867Y-110388236D01*
X139445882Y-110371106D01*
X139451757Y-110355018D01*
X139446014Y-110220140D01*
X139446132Y-110085094D01*
X139439590Y-110069260D01*
X139438861Y-110052150D01*
X139347770Y-109832234D01*
X139341836Y-109832681D01*
X139330368Y-109804926D01*
X139116202Y-109590385D01*
X139087302Y-109578385D01*
X139087766Y-109572230D01*
X138960937Y-109525913D01*
X138836236Y-109474133D01*
X138819106Y-109474118D01*
X138803018Y-109468243D01*
X138668140Y-109473986D01*
X138533094Y-109473868D01*
X138517260Y-109480410D01*
X138500150Y-109481139D01*
X138361074Y-109538745D01*
X138325937Y-109525913D01*
X138201236Y-109474133D01*
X138184106Y-109474118D01*
X138168018Y-109468243D01*
X138033140Y-109473986D01*
X137898094Y-109473868D01*
X137882260Y-109480410D01*
X137865150Y-109481139D01*
X137645234Y-109572230D01*
X137645681Y-109578164D01*
X137617926Y-109589632D01*
X137413832Y-109793370D01*
X137211202Y-109590385D01*
X137182302Y-109578385D01*
X137182766Y-109572230D01*
X137055937Y-109525913D01*
X136931236Y-109474133D01*
X136914106Y-109474118D01*
X136898018Y-109468243D01*
X136763140Y-109473986D01*
X136628094Y-109473868D01*
X136612260Y-109480410D01*
X136595150Y-109481139D01*
X136456074Y-109538745D01*
X136420937Y-109525913D01*
X136296236Y-109474133D01*
X136279106Y-109474118D01*
X136263018Y-109468243D01*
X136128140Y-109473986D01*
X135993094Y-109473868D01*
X135977260Y-109480410D01*
X135960150Y-109481139D01*
X135740234Y-109572230D01*
X135740681Y-109578164D01*
X135712926Y-109589632D01*
X135498385Y-109803798D01*
X135486385Y-109832698D01*
X135480230Y-109832234D01*
X135433913Y-109959063D01*
X135382133Y-110083764D01*
X135382118Y-110100894D01*
X135376243Y-110116982D01*
X135381986Y-110251860D01*
X135381868Y-110386906D01*
X135388410Y-110402740D01*
X135389139Y-110419850D01*
X135446745Y-110558926D01*
X135433913Y-110594063D01*
X135382133Y-110718764D01*
X135382118Y-110735894D01*
X135376243Y-110751982D01*
X135381986Y-110886860D01*
X135381868Y-111021906D01*
X135388410Y-111037740D01*
X135389139Y-111054850D01*
X135446745Y-111193926D01*
X135433913Y-111229063D01*
X135382133Y-111353764D01*
X135382118Y-111370894D01*
X135376243Y-111386982D01*
X135381986Y-111521860D01*
X135381868Y-111656906D01*
X135388410Y-111672740D01*
X135389139Y-111689850D01*
X135480230Y-111909766D01*
X135486164Y-111909319D01*
X135497632Y-111937074D01*
X135701202Y-112141000D01*
X130937000Y-112141000D01*
X130937000Y-107061000D01*
X143891000Y-107061000D01*
X143891000Y-112141000D01*
G36*
X137606201Y-112141000D02*
X137221462Y-112141000D01*
X137414168Y-111948630D01*
X137606201Y-112141000D01*
X137606201Y-112141000D01*
G37*
X137606201Y-112141000D02*
X137221462Y-112141000D01*
X137414168Y-111948630D01*
X137606201Y-112141000D01*
G36*
X135636133Y-101320764D02*
X135636118Y-101337894D01*
X135630243Y-101353982D01*
X135635986Y-101488860D01*
X135635868Y-101623906D01*
X135642410Y-101639740D01*
X135643139Y-101656850D01*
X135700745Y-101795926D01*
X135687913Y-101831063D01*
X135636133Y-101955764D01*
X135636118Y-101972894D01*
X135630243Y-101988982D01*
X135635986Y-102123860D01*
X135635868Y-102258906D01*
X135642410Y-102274740D01*
X135643139Y-102291850D01*
X135700745Y-102430926D01*
X135687913Y-102466063D01*
X135636133Y-102590764D01*
X135636118Y-102607894D01*
X135630243Y-102623982D01*
X135635986Y-102758860D01*
X135635868Y-102893906D01*
X135642410Y-102909740D01*
X135643139Y-102926850D01*
X135734230Y-103146766D01*
X135740164Y-103146319D01*
X135748397Y-103166244D01*
X135613234Y-103222230D01*
X135613681Y-103228164D01*
X135585926Y-103239632D01*
X135371385Y-103453798D01*
X135359385Y-103482698D01*
X135353230Y-103482234D01*
X135306913Y-103609063D01*
X135255133Y-103733764D01*
X135255118Y-103750894D01*
X135249243Y-103766982D01*
X135254986Y-103901860D01*
X135254868Y-104036906D01*
X135261410Y-104052740D01*
X135262139Y-104069850D01*
X135319745Y-104208926D01*
X135306913Y-104244063D01*
X135255133Y-104368764D01*
X135255118Y-104385894D01*
X135249243Y-104401982D01*
X135254986Y-104536860D01*
X135254868Y-104671906D01*
X135261410Y-104687740D01*
X135262139Y-104704850D01*
X135319745Y-104843926D01*
X135306913Y-104879063D01*
X135255133Y-105003764D01*
X135255118Y-105020894D01*
X135249243Y-105036982D01*
X135254986Y-105171860D01*
X135254868Y-105306906D01*
X135261410Y-105322740D01*
X135262139Y-105339850D01*
X135319745Y-105478926D01*
X135306913Y-105514063D01*
X135255133Y-105638764D01*
X135255118Y-105655894D01*
X135249243Y-105671982D01*
X135254986Y-105806860D01*
X135254868Y-105941906D01*
X135261410Y-105957740D01*
X135262139Y-105974850D01*
X135353230Y-106194766D01*
X135359164Y-106194319D01*
X135370632Y-106222074D01*
X135584798Y-106436615D01*
X135613698Y-106448615D01*
X135613234Y-106454770D01*
X135740063Y-106501087D01*
X135864764Y-106552867D01*
X135881894Y-106552882D01*
X135882217Y-106553000D01*
X130937000Y-106553000D01*
X130937000Y-101219000D01*
X135678389Y-101219000D01*
X135636133Y-101320764D01*
X135636133Y-101320764D01*
G37*
X135636133Y-101320764D02*
X135636118Y-101337894D01*
X135630243Y-101353982D01*
X135635986Y-101488860D01*
X135635868Y-101623906D01*
X135642410Y-101639740D01*
X135643139Y-101656850D01*
X135700745Y-101795926D01*
X135687913Y-101831063D01*
X135636133Y-101955764D01*
X135636118Y-101972894D01*
X135630243Y-101988982D01*
X135635986Y-102123860D01*
X135635868Y-102258906D01*
X135642410Y-102274740D01*
X135643139Y-102291850D01*
X135700745Y-102430926D01*
X135687913Y-102466063D01*
X135636133Y-102590764D01*
X135636118Y-102607894D01*
X135630243Y-102623982D01*
X135635986Y-102758860D01*
X135635868Y-102893906D01*
X135642410Y-102909740D01*
X135643139Y-102926850D01*
X135734230Y-103146766D01*
X135740164Y-103146319D01*
X135748397Y-103166244D01*
X135613234Y-103222230D01*
X135613681Y-103228164D01*
X135585926Y-103239632D01*
X135371385Y-103453798D01*
X135359385Y-103482698D01*
X135353230Y-103482234D01*
X135306913Y-103609063D01*
X135255133Y-103733764D01*
X135255118Y-103750894D01*
X135249243Y-103766982D01*
X135254986Y-103901860D01*
X135254868Y-104036906D01*
X135261410Y-104052740D01*
X135262139Y-104069850D01*
X135319745Y-104208926D01*
X135306913Y-104244063D01*
X135255133Y-104368764D01*
X135255118Y-104385894D01*
X135249243Y-104401982D01*
X135254986Y-104536860D01*
X135254868Y-104671906D01*
X135261410Y-104687740D01*
X135262139Y-104704850D01*
X135319745Y-104843926D01*
X135306913Y-104879063D01*
X135255133Y-105003764D01*
X135255118Y-105020894D01*
X135249243Y-105036982D01*
X135254986Y-105171860D01*
X135254868Y-105306906D01*
X135261410Y-105322740D01*
X135262139Y-105339850D01*
X135319745Y-105478926D01*
X135306913Y-105514063D01*
X135255133Y-105638764D01*
X135255118Y-105655894D01*
X135249243Y-105671982D01*
X135254986Y-105806860D01*
X135254868Y-105941906D01*
X135261410Y-105957740D01*
X135262139Y-105974850D01*
X135353230Y-106194766D01*
X135359164Y-106194319D01*
X135370632Y-106222074D01*
X135584798Y-106436615D01*
X135613698Y-106448615D01*
X135613234Y-106454770D01*
X135740063Y-106501087D01*
X135864764Y-106552867D01*
X135881894Y-106552882D01*
X135882217Y-106553000D01*
X130937000Y-106553000D01*
X130937000Y-101219000D01*
X135678389Y-101219000D01*
X135636133Y-101320764D01*
G36*
X136502063Y-106501087D02*
X136626764Y-106552867D01*
X136643894Y-106552882D01*
X136644217Y-106553000D01*
X136168225Y-106553000D01*
X136183740Y-106546590D01*
X136200850Y-106545861D01*
X136399432Y-106463607D01*
X136502063Y-106501087D01*
X136502063Y-106501087D01*
G37*
X136502063Y-106501087D02*
X136626764Y-106552867D01*
X136643894Y-106552882D01*
X136644217Y-106553000D01*
X136168225Y-106553000D01*
X136183740Y-106546590D01*
X136200850Y-106545861D01*
X136399432Y-106463607D01*
X136502063Y-106501087D01*
G36*
X137616798Y-106436615D02*
X137645698Y-106448615D01*
X137645234Y-106454770D01*
X137772063Y-106501087D01*
X137896764Y-106552867D01*
X137913894Y-106552882D01*
X137914217Y-106553000D01*
X136930225Y-106553000D01*
X136945740Y-106546590D01*
X136962850Y-106545861D01*
X137182766Y-106454770D01*
X137182319Y-106448836D01*
X137210074Y-106437368D01*
X137414168Y-106233630D01*
X137616798Y-106436615D01*
X137616798Y-106436615D01*
G37*
X137616798Y-106436615D02*
X137645698Y-106448615D01*
X137645234Y-106454770D01*
X137772063Y-106501087D01*
X137896764Y-106552867D01*
X137913894Y-106552882D01*
X137914217Y-106553000D01*
X136930225Y-106553000D01*
X136945740Y-106546590D01*
X136962850Y-106545861D01*
X137182766Y-106454770D01*
X137182319Y-106448836D01*
X137210074Y-106437368D01*
X137414168Y-106233630D01*
X137616798Y-106436615D01*
G36*
X138534063Y-106501087D02*
X138658764Y-106552867D01*
X138675894Y-106552882D01*
X138676217Y-106553000D01*
X138200225Y-106553000D01*
X138215740Y-106546590D01*
X138232850Y-106545861D01*
X138431432Y-106463607D01*
X138534063Y-106501087D01*
X138534063Y-106501087D01*
G37*
X138534063Y-106501087D02*
X138658764Y-106552867D01*
X138675894Y-106552882D01*
X138676217Y-106553000D01*
X138200225Y-106553000D01*
X138215740Y-106546590D01*
X138232850Y-106545861D01*
X138431432Y-106463607D01*
X138534063Y-106501087D01*
G36*
X143891000Y-106553000D02*
X138962225Y-106553000D01*
X138977740Y-106546590D01*
X138994850Y-106545861D01*
X139214766Y-106454770D01*
X139214319Y-106448836D01*
X139242074Y-106437368D01*
X139456615Y-106223202D01*
X139468615Y-106194302D01*
X139474770Y-106194766D01*
X139521087Y-106067937D01*
X139572867Y-105943236D01*
X139572882Y-105926106D01*
X139578757Y-105910018D01*
X139573014Y-105775140D01*
X139573132Y-105640094D01*
X139566590Y-105624260D01*
X139565861Y-105607150D01*
X139508255Y-105468074D01*
X139521087Y-105432937D01*
X139572867Y-105308236D01*
X139572882Y-105291106D01*
X139578757Y-105275018D01*
X139573014Y-105140140D01*
X139573132Y-105005094D01*
X139566590Y-104989260D01*
X139565861Y-104972150D01*
X139508255Y-104833074D01*
X139521087Y-104797937D01*
X139572867Y-104673236D01*
X139572882Y-104656106D01*
X139578757Y-104640018D01*
X139573014Y-104505140D01*
X139573132Y-104370094D01*
X139566590Y-104354260D01*
X139565861Y-104337150D01*
X139508255Y-104198074D01*
X139521087Y-104162937D01*
X139572867Y-104038236D01*
X139572882Y-104021106D01*
X139578757Y-104005018D01*
X139573014Y-103870140D01*
X139573132Y-103735094D01*
X139566590Y-103719260D01*
X139565861Y-103702150D01*
X139474770Y-103482234D01*
X139468836Y-103482681D01*
X139457368Y-103454926D01*
X139243202Y-103240385D01*
X139214302Y-103228385D01*
X139214766Y-103222230D01*
X139087937Y-103175913D01*
X139077175Y-103171445D01*
X139087615Y-103146302D01*
X139093770Y-103146766D01*
X139140087Y-103019937D01*
X139191867Y-102895236D01*
X139191882Y-102878106D01*
X139197757Y-102862018D01*
X139192014Y-102727140D01*
X139192132Y-102592094D01*
X139185590Y-102576260D01*
X139184861Y-102559150D01*
X139127255Y-102420074D01*
X139140087Y-102384937D01*
X139191867Y-102260236D01*
X139191882Y-102243106D01*
X139197757Y-102227018D01*
X139192014Y-102092140D01*
X139192132Y-101957094D01*
X139185590Y-101941260D01*
X139184861Y-101924150D01*
X139127255Y-101785074D01*
X139140087Y-101749937D01*
X139191867Y-101625236D01*
X139191882Y-101608106D01*
X139197757Y-101592018D01*
X139192014Y-101457140D01*
X139192132Y-101322094D01*
X139185590Y-101306260D01*
X139184861Y-101289150D01*
X139155804Y-101219000D01*
X143891000Y-101219000D01*
X143891000Y-106553000D01*
X143891000Y-106553000D01*
G37*
X143891000Y-106553000D02*
X138962225Y-106553000D01*
X138977740Y-106546590D01*
X138994850Y-106545861D01*
X139214766Y-106454770D01*
X139214319Y-106448836D01*
X139242074Y-106437368D01*
X139456615Y-106223202D01*
X139468615Y-106194302D01*
X139474770Y-106194766D01*
X139521087Y-106067937D01*
X139572867Y-105943236D01*
X139572882Y-105926106D01*
X139578757Y-105910018D01*
X139573014Y-105775140D01*
X139573132Y-105640094D01*
X139566590Y-105624260D01*
X139565861Y-105607150D01*
X139508255Y-105468074D01*
X139521087Y-105432937D01*
X139572867Y-105308236D01*
X139572882Y-105291106D01*
X139578757Y-105275018D01*
X139573014Y-105140140D01*
X139573132Y-105005094D01*
X139566590Y-104989260D01*
X139565861Y-104972150D01*
X139508255Y-104833074D01*
X139521087Y-104797937D01*
X139572867Y-104673236D01*
X139572882Y-104656106D01*
X139578757Y-104640018D01*
X139573014Y-104505140D01*
X139573132Y-104370094D01*
X139566590Y-104354260D01*
X139565861Y-104337150D01*
X139508255Y-104198074D01*
X139521087Y-104162937D01*
X139572867Y-104038236D01*
X139572882Y-104021106D01*
X139578757Y-104005018D01*
X139573014Y-103870140D01*
X139573132Y-103735094D01*
X139566590Y-103719260D01*
X139565861Y-103702150D01*
X139474770Y-103482234D01*
X139468836Y-103482681D01*
X139457368Y-103454926D01*
X139243202Y-103240385D01*
X139214302Y-103228385D01*
X139214766Y-103222230D01*
X139087937Y-103175913D01*
X139077175Y-103171445D01*
X139087615Y-103146302D01*
X139093770Y-103146766D01*
X139140087Y-103019937D01*
X139191867Y-102895236D01*
X139191882Y-102878106D01*
X139197757Y-102862018D01*
X139192014Y-102727140D01*
X139192132Y-102592094D01*
X139185590Y-102576260D01*
X139184861Y-102559150D01*
X139127255Y-102420074D01*
X139140087Y-102384937D01*
X139191867Y-102260236D01*
X139191882Y-102243106D01*
X139197757Y-102227018D01*
X139192014Y-102092140D01*
X139192132Y-101957094D01*
X139185590Y-101941260D01*
X139184861Y-101924150D01*
X139127255Y-101785074D01*
X139140087Y-101749937D01*
X139191867Y-101625236D01*
X139191882Y-101608106D01*
X139197757Y-101592018D01*
X139192014Y-101457140D01*
X139192132Y-101322094D01*
X139185590Y-101306260D01*
X139184861Y-101289150D01*
X139155804Y-101219000D01*
X143891000Y-101219000D01*
X143891000Y-106553000D01*
G36*
X143891000Y-100711000D02*
X139126462Y-100711000D01*
X139329615Y-100508202D01*
X139341615Y-100479302D01*
X139347770Y-100479766D01*
X139394087Y-100352937D01*
X139445867Y-100228236D01*
X139445882Y-100211106D01*
X139451757Y-100195018D01*
X139446014Y-100060140D01*
X139446132Y-99925094D01*
X139439590Y-99909260D01*
X139438861Y-99892150D01*
X139381255Y-99753074D01*
X139394087Y-99717937D01*
X139445867Y-99593236D01*
X139445882Y-99576106D01*
X139451757Y-99560018D01*
X139446014Y-99425140D01*
X139446132Y-99290094D01*
X139439590Y-99274260D01*
X139438861Y-99257150D01*
X139381255Y-99118074D01*
X139394087Y-99082937D01*
X139445867Y-98958236D01*
X139445882Y-98941106D01*
X139451757Y-98925018D01*
X139446014Y-98790140D01*
X139446132Y-98655094D01*
X139439590Y-98639260D01*
X139438861Y-98622150D01*
X139347770Y-98402234D01*
X139341836Y-98402681D01*
X139330368Y-98374926D01*
X139116202Y-98160385D01*
X139087302Y-98148385D01*
X139087766Y-98142230D01*
X138960937Y-98095913D01*
X138836236Y-98044133D01*
X138819106Y-98044118D01*
X138803018Y-98038243D01*
X138668140Y-98043986D01*
X138533094Y-98043868D01*
X138517260Y-98050410D01*
X138500150Y-98051139D01*
X138361074Y-98108745D01*
X138325937Y-98095913D01*
X138201236Y-98044133D01*
X138184106Y-98044118D01*
X138168018Y-98038243D01*
X138033140Y-98043986D01*
X137898094Y-98043868D01*
X137882260Y-98050410D01*
X137865150Y-98051139D01*
X137645234Y-98142230D01*
X137645681Y-98148164D01*
X137617926Y-98159632D01*
X137413832Y-98363370D01*
X137211202Y-98160385D01*
X137182302Y-98148385D01*
X137182766Y-98142230D01*
X137055937Y-98095913D01*
X136931236Y-98044133D01*
X136914106Y-98044118D01*
X136898018Y-98038243D01*
X136763140Y-98043986D01*
X136628094Y-98043868D01*
X136612260Y-98050410D01*
X136595150Y-98051139D01*
X136456074Y-98108745D01*
X136420937Y-98095913D01*
X136296236Y-98044133D01*
X136279106Y-98044118D01*
X136263018Y-98038243D01*
X136128140Y-98043986D01*
X135993094Y-98043868D01*
X135977260Y-98050410D01*
X135960150Y-98051139D01*
X135740234Y-98142230D01*
X135740681Y-98148164D01*
X135712926Y-98159632D01*
X135498385Y-98373798D01*
X135486385Y-98402698D01*
X135480230Y-98402234D01*
X135433913Y-98529063D01*
X135382133Y-98653764D01*
X135382118Y-98670894D01*
X135376243Y-98686982D01*
X135381986Y-98821860D01*
X135381868Y-98956906D01*
X135388410Y-98972740D01*
X135389139Y-98989850D01*
X135446745Y-99128926D01*
X135433913Y-99164063D01*
X135382133Y-99288764D01*
X135382118Y-99305894D01*
X135376243Y-99321982D01*
X135381986Y-99456860D01*
X135381868Y-99591906D01*
X135388410Y-99607740D01*
X135389139Y-99624850D01*
X135446745Y-99763926D01*
X135433913Y-99799063D01*
X135382133Y-99923764D01*
X135382118Y-99940894D01*
X135376243Y-99956982D01*
X135381986Y-100091860D01*
X135381868Y-100226906D01*
X135388410Y-100242740D01*
X135389139Y-100259850D01*
X135480230Y-100479766D01*
X135486164Y-100479319D01*
X135497632Y-100507074D01*
X135701202Y-100711000D01*
X130937000Y-100711000D01*
X130937000Y-95631000D01*
X143891000Y-95631000D01*
X143891000Y-100711000D01*
X143891000Y-100711000D01*
G37*
X143891000Y-100711000D02*
X139126462Y-100711000D01*
X139329615Y-100508202D01*
X139341615Y-100479302D01*
X139347770Y-100479766D01*
X139394087Y-100352937D01*
X139445867Y-100228236D01*
X139445882Y-100211106D01*
X139451757Y-100195018D01*
X139446014Y-100060140D01*
X139446132Y-99925094D01*
X139439590Y-99909260D01*
X139438861Y-99892150D01*
X139381255Y-99753074D01*
X139394087Y-99717937D01*
X139445867Y-99593236D01*
X139445882Y-99576106D01*
X139451757Y-99560018D01*
X139446014Y-99425140D01*
X139446132Y-99290094D01*
X139439590Y-99274260D01*
X139438861Y-99257150D01*
X139381255Y-99118074D01*
X139394087Y-99082937D01*
X139445867Y-98958236D01*
X139445882Y-98941106D01*
X139451757Y-98925018D01*
X139446014Y-98790140D01*
X139446132Y-98655094D01*
X139439590Y-98639260D01*
X139438861Y-98622150D01*
X139347770Y-98402234D01*
X139341836Y-98402681D01*
X139330368Y-98374926D01*
X139116202Y-98160385D01*
X139087302Y-98148385D01*
X139087766Y-98142230D01*
X138960937Y-98095913D01*
X138836236Y-98044133D01*
X138819106Y-98044118D01*
X138803018Y-98038243D01*
X138668140Y-98043986D01*
X138533094Y-98043868D01*
X138517260Y-98050410D01*
X138500150Y-98051139D01*
X138361074Y-98108745D01*
X138325937Y-98095913D01*
X138201236Y-98044133D01*
X138184106Y-98044118D01*
X138168018Y-98038243D01*
X138033140Y-98043986D01*
X137898094Y-98043868D01*
X137882260Y-98050410D01*
X137865150Y-98051139D01*
X137645234Y-98142230D01*
X137645681Y-98148164D01*
X137617926Y-98159632D01*
X137413832Y-98363370D01*
X137211202Y-98160385D01*
X137182302Y-98148385D01*
X137182766Y-98142230D01*
X137055937Y-98095913D01*
X136931236Y-98044133D01*
X136914106Y-98044118D01*
X136898018Y-98038243D01*
X136763140Y-98043986D01*
X136628094Y-98043868D01*
X136612260Y-98050410D01*
X136595150Y-98051139D01*
X136456074Y-98108745D01*
X136420937Y-98095913D01*
X136296236Y-98044133D01*
X136279106Y-98044118D01*
X136263018Y-98038243D01*
X136128140Y-98043986D01*
X135993094Y-98043868D01*
X135977260Y-98050410D01*
X135960150Y-98051139D01*
X135740234Y-98142230D01*
X135740681Y-98148164D01*
X135712926Y-98159632D01*
X135498385Y-98373798D01*
X135486385Y-98402698D01*
X135480230Y-98402234D01*
X135433913Y-98529063D01*
X135382133Y-98653764D01*
X135382118Y-98670894D01*
X135376243Y-98686982D01*
X135381986Y-98821860D01*
X135381868Y-98956906D01*
X135388410Y-98972740D01*
X135389139Y-98989850D01*
X135446745Y-99128926D01*
X135433913Y-99164063D01*
X135382133Y-99288764D01*
X135382118Y-99305894D01*
X135376243Y-99321982D01*
X135381986Y-99456860D01*
X135381868Y-99591906D01*
X135388410Y-99607740D01*
X135389139Y-99624850D01*
X135446745Y-99763926D01*
X135433913Y-99799063D01*
X135382133Y-99923764D01*
X135382118Y-99940894D01*
X135376243Y-99956982D01*
X135381986Y-100091860D01*
X135381868Y-100226906D01*
X135388410Y-100242740D01*
X135389139Y-100259850D01*
X135480230Y-100479766D01*
X135486164Y-100479319D01*
X135497632Y-100507074D01*
X135701202Y-100711000D01*
X130937000Y-100711000D01*
X130937000Y-95631000D01*
X143891000Y-95631000D01*
X143891000Y-100711000D01*
G36*
X137606201Y-100711000D02*
X137221462Y-100711000D01*
X137414168Y-100518630D01*
X137606201Y-100711000D01*
X137606201Y-100711000D01*
G37*
X137606201Y-100711000D02*
X137221462Y-100711000D01*
X137414168Y-100518630D01*
X137606201Y-100711000D01*
M02*
