G04 #@! TF.FileFunction,Legend,Top*
%FSLAX46Y46*%
G04 Gerber Fmt 4.6, Leading zero omitted, Abs format (unit mm)*
G04 Created by KiCad (PCBNEW 4.0.5) date 04/17/17 16:53:41*
%MOMM*%
%LPD*%
G01*
G04 APERTURE LIST*
%ADD10C,0.100000*%
%ADD11C,0.200000*%
%ADD12C,0.120000*%
%ADD13C,0.150000*%
G04 APERTURE END LIST*
D10*
D11*
X130048000Y-144272000D02*
X131318000Y-144272000D01*
X144653000Y-144272000D02*
X145923000Y-144272000D01*
D12*
X141358000Y-91430000D02*
X144018000Y-91430000D01*
X144018000Y-91430000D02*
X144018000Y-88690000D01*
X144018000Y-88690000D02*
X141358000Y-88690000D01*
X141358000Y-88690000D02*
X141358000Y-91430000D01*
X142308000Y-88690000D02*
X143188000Y-88690000D01*
X143188000Y-88690000D02*
X143188000Y-82690000D01*
X143188000Y-82690000D02*
X142308000Y-82690000D01*
X142308000Y-82690000D02*
X142308000Y-88690000D01*
X142308000Y-91740000D02*
X142308000Y-91430000D01*
X143188000Y-91740000D02*
X143188000Y-91430000D01*
X142428000Y-88690000D02*
X142428000Y-82690000D01*
X142548000Y-88690000D02*
X142548000Y-82690000D01*
X142668000Y-88690000D02*
X142668000Y-82690000D01*
X142788000Y-88690000D02*
X142788000Y-82690000D01*
X142908000Y-88690000D02*
X142908000Y-82690000D01*
X143028000Y-88690000D02*
X143028000Y-82690000D01*
X143148000Y-88690000D02*
X143148000Y-82690000D01*
X144018000Y-91430000D02*
X146678000Y-91430000D01*
X146678000Y-91430000D02*
X146678000Y-88690000D01*
X146678000Y-88690000D02*
X144018000Y-88690000D01*
X144018000Y-88690000D02*
X144018000Y-91430000D01*
X144848000Y-88690000D02*
X145728000Y-88690000D01*
X145728000Y-88690000D02*
X145728000Y-82690000D01*
X145728000Y-82690000D02*
X144848000Y-82690000D01*
X144848000Y-82690000D02*
X144848000Y-88690000D01*
X144848000Y-91740000D02*
X144848000Y-91430000D01*
X145728000Y-91740000D02*
X145728000Y-91430000D01*
X142748000Y-93980000D02*
X141478000Y-93980000D01*
X141478000Y-93980000D02*
X141478000Y-92710000D01*
X146932000Y-144282000D02*
X144272000Y-144282000D01*
X144272000Y-144282000D02*
X144272000Y-147022000D01*
X144272000Y-147022000D02*
X146932000Y-147022000D01*
X146932000Y-147022000D02*
X146932000Y-144282000D01*
X145982000Y-147022000D02*
X145102000Y-147022000D01*
X145102000Y-147022000D02*
X145102000Y-153022000D01*
X145102000Y-153022000D02*
X145982000Y-153022000D01*
X145982000Y-153022000D02*
X145982000Y-147022000D01*
X145982000Y-143972000D02*
X145982000Y-144282000D01*
X145102000Y-143972000D02*
X145102000Y-144282000D01*
X145862000Y-147022000D02*
X145862000Y-153022000D01*
X145742000Y-147022000D02*
X145742000Y-153022000D01*
X145622000Y-147022000D02*
X145622000Y-153022000D01*
X145502000Y-147022000D02*
X145502000Y-153022000D01*
X145382000Y-147022000D02*
X145382000Y-153022000D01*
X145262000Y-147022000D02*
X145262000Y-153022000D01*
X145142000Y-147022000D02*
X145142000Y-153022000D01*
X144272000Y-144282000D02*
X141612000Y-144282000D01*
X141612000Y-144282000D02*
X141612000Y-147022000D01*
X141612000Y-147022000D02*
X144272000Y-147022000D01*
X144272000Y-147022000D02*
X144272000Y-144282000D01*
X143442000Y-147022000D02*
X142562000Y-147022000D01*
X142562000Y-147022000D02*
X142562000Y-153022000D01*
X142562000Y-153022000D02*
X143442000Y-153022000D01*
X143442000Y-153022000D02*
X143442000Y-147022000D01*
X143442000Y-143972000D02*
X143442000Y-144282000D01*
X142562000Y-143972000D02*
X142562000Y-144282000D01*
X145542000Y-141732000D02*
X146812000Y-141732000D01*
X146812000Y-141732000D02*
X146812000Y-143002000D01*
X136922000Y-141170000D02*
X138922000Y-141170000D01*
X138922000Y-143310000D02*
X136922000Y-143310000D01*
X135664000Y-110792000D02*
X135664000Y-114542000D01*
X136164000Y-110792000D02*
X135664000Y-110792000D01*
X139164000Y-110792000D02*
X138664000Y-110792000D01*
X139164000Y-114542000D02*
X139164000Y-110792000D01*
X135664000Y-122222000D02*
X135664000Y-125972000D01*
X136164000Y-122222000D02*
X135664000Y-122222000D01*
X139164000Y-122222000D02*
X138664000Y-122222000D01*
X139164000Y-125972000D02*
X139164000Y-122222000D01*
X135664000Y-133652000D02*
X135664000Y-137402000D01*
X136164000Y-133652000D02*
X135664000Y-133652000D01*
X139164000Y-133652000D02*
X138664000Y-133652000D01*
X139164000Y-137402000D02*
X139164000Y-133652000D01*
X135664000Y-99362000D02*
X135664000Y-103112000D01*
X136164000Y-99362000D02*
X135664000Y-99362000D01*
X139164000Y-99362000D02*
X138664000Y-99362000D01*
X139164000Y-103112000D02*
X139164000Y-99362000D01*
X149634000Y-99362000D02*
X149634000Y-103112000D01*
X150134000Y-99362000D02*
X149634000Y-99362000D01*
X153134000Y-99362000D02*
X152634000Y-99362000D01*
X153134000Y-103112000D02*
X153134000Y-99362000D01*
X149634000Y-110792000D02*
X149634000Y-114542000D01*
X150134000Y-110792000D02*
X149634000Y-110792000D01*
X153134000Y-110792000D02*
X152634000Y-110792000D01*
X153134000Y-114542000D02*
X153134000Y-110792000D01*
X149634000Y-122222000D02*
X149634000Y-125972000D01*
X150134000Y-122222000D02*
X149634000Y-122222000D01*
X153134000Y-122222000D02*
X152634000Y-122222000D01*
X153134000Y-125972000D02*
X153134000Y-122222000D01*
X149634000Y-133652000D02*
X149634000Y-137402000D01*
X150134000Y-133652000D02*
X149634000Y-133652000D01*
X153134000Y-133652000D02*
X152634000Y-133652000D01*
X153134000Y-137402000D02*
X153134000Y-133652000D01*
D13*
X140930381Y-89133095D02*
X139930381Y-89133095D01*
X139930381Y-88752142D01*
X139978000Y-88656904D01*
X140025619Y-88609285D01*
X140120857Y-88561666D01*
X140263714Y-88561666D01*
X140358952Y-88609285D01*
X140406571Y-88656904D01*
X140454190Y-88752142D01*
X140454190Y-89133095D01*
X140930381Y-87609285D02*
X140930381Y-88180714D01*
X140930381Y-87895000D02*
X139930381Y-87895000D01*
X140073238Y-87990238D01*
X140168476Y-88085476D01*
X140216095Y-88180714D01*
X148264381Y-148055095D02*
X147264381Y-148055095D01*
X147264381Y-147674142D01*
X147312000Y-147578904D01*
X147359619Y-147531285D01*
X147454857Y-147483666D01*
X147597714Y-147483666D01*
X147692952Y-147531285D01*
X147740571Y-147578904D01*
X147788190Y-147674142D01*
X147788190Y-148055095D01*
X147359619Y-147102714D02*
X147312000Y-147055095D01*
X147264381Y-146959857D01*
X147264381Y-146721761D01*
X147312000Y-146626523D01*
X147359619Y-146578904D01*
X147454857Y-146531285D01*
X147550095Y-146531285D01*
X147692952Y-146578904D01*
X148264381Y-147150333D01*
X148264381Y-146531285D01*
X137755334Y-144542381D02*
X137422000Y-144066190D01*
X137183905Y-144542381D02*
X137183905Y-143542381D01*
X137564858Y-143542381D01*
X137660096Y-143590000D01*
X137707715Y-143637619D01*
X137755334Y-143732857D01*
X137755334Y-143875714D01*
X137707715Y-143970952D01*
X137660096Y-144018571D01*
X137564858Y-144066190D01*
X137183905Y-144066190D01*
X138707715Y-144542381D02*
X138136286Y-144542381D01*
X138422000Y-144542381D02*
X138422000Y-143542381D01*
X138326762Y-143685238D01*
X138231524Y-143780476D01*
X138136286Y-143828095D01*
X135166381Y-114530095D02*
X134166381Y-114530095D01*
X134166381Y-114292000D01*
X134214000Y-114149142D01*
X134309238Y-114053904D01*
X134404476Y-114006285D01*
X134594952Y-113958666D01*
X134737810Y-113958666D01*
X134928286Y-114006285D01*
X135023524Y-114053904D01*
X135118762Y-114149142D01*
X135166381Y-114292000D01*
X135166381Y-114530095D01*
X134166381Y-113625333D02*
X134166381Y-113006285D01*
X134547333Y-113339619D01*
X134547333Y-113196761D01*
X134594952Y-113101523D01*
X134642571Y-113053904D01*
X134737810Y-113006285D01*
X134975905Y-113006285D01*
X135071143Y-113053904D01*
X135118762Y-113101523D01*
X135166381Y-113196761D01*
X135166381Y-113482476D01*
X135118762Y-113577714D01*
X135071143Y-113625333D01*
X135166381Y-125960095D02*
X134166381Y-125960095D01*
X134166381Y-125722000D01*
X134214000Y-125579142D01*
X134309238Y-125483904D01*
X134404476Y-125436285D01*
X134594952Y-125388666D01*
X134737810Y-125388666D01*
X134928286Y-125436285D01*
X135023524Y-125483904D01*
X135118762Y-125579142D01*
X135166381Y-125722000D01*
X135166381Y-125960095D01*
X134261619Y-125007714D02*
X134214000Y-124960095D01*
X134166381Y-124864857D01*
X134166381Y-124626761D01*
X134214000Y-124531523D01*
X134261619Y-124483904D01*
X134356857Y-124436285D01*
X134452095Y-124436285D01*
X134594952Y-124483904D01*
X135166381Y-125055333D01*
X135166381Y-124436285D01*
X135166381Y-137390095D02*
X134166381Y-137390095D01*
X134166381Y-137152000D01*
X134214000Y-137009142D01*
X134309238Y-136913904D01*
X134404476Y-136866285D01*
X134594952Y-136818666D01*
X134737810Y-136818666D01*
X134928286Y-136866285D01*
X135023524Y-136913904D01*
X135118762Y-137009142D01*
X135166381Y-137152000D01*
X135166381Y-137390095D01*
X135166381Y-135866285D02*
X135166381Y-136437714D01*
X135166381Y-136152000D02*
X134166381Y-136152000D01*
X134309238Y-136247238D01*
X134404476Y-136342476D01*
X134452095Y-136437714D01*
X135166381Y-103100095D02*
X134166381Y-103100095D01*
X134166381Y-102862000D01*
X134214000Y-102719142D01*
X134309238Y-102623904D01*
X134404476Y-102576285D01*
X134594952Y-102528666D01*
X134737810Y-102528666D01*
X134928286Y-102576285D01*
X135023524Y-102623904D01*
X135118762Y-102719142D01*
X135166381Y-102862000D01*
X135166381Y-103100095D01*
X134499714Y-101671523D02*
X135166381Y-101671523D01*
X134118762Y-101909619D02*
X134833048Y-102147714D01*
X134833048Y-101528666D01*
X149136381Y-103100095D02*
X148136381Y-103100095D01*
X148136381Y-102862000D01*
X148184000Y-102719142D01*
X148279238Y-102623904D01*
X148374476Y-102576285D01*
X148564952Y-102528666D01*
X148707810Y-102528666D01*
X148898286Y-102576285D01*
X148993524Y-102623904D01*
X149088762Y-102719142D01*
X149136381Y-102862000D01*
X149136381Y-103100095D01*
X148136381Y-101623904D02*
X148136381Y-102100095D01*
X148612571Y-102147714D01*
X148564952Y-102100095D01*
X148517333Y-102004857D01*
X148517333Y-101766761D01*
X148564952Y-101671523D01*
X148612571Y-101623904D01*
X148707810Y-101576285D01*
X148945905Y-101576285D01*
X149041143Y-101623904D01*
X149088762Y-101671523D01*
X149136381Y-101766761D01*
X149136381Y-102004857D01*
X149088762Y-102100095D01*
X149041143Y-102147714D01*
X149136381Y-114530095D02*
X148136381Y-114530095D01*
X148136381Y-114292000D01*
X148184000Y-114149142D01*
X148279238Y-114053904D01*
X148374476Y-114006285D01*
X148564952Y-113958666D01*
X148707810Y-113958666D01*
X148898286Y-114006285D01*
X148993524Y-114053904D01*
X149088762Y-114149142D01*
X149136381Y-114292000D01*
X149136381Y-114530095D01*
X148136381Y-113101523D02*
X148136381Y-113292000D01*
X148184000Y-113387238D01*
X148231619Y-113434857D01*
X148374476Y-113530095D01*
X148564952Y-113577714D01*
X148945905Y-113577714D01*
X149041143Y-113530095D01*
X149088762Y-113482476D01*
X149136381Y-113387238D01*
X149136381Y-113196761D01*
X149088762Y-113101523D01*
X149041143Y-113053904D01*
X148945905Y-113006285D01*
X148707810Y-113006285D01*
X148612571Y-113053904D01*
X148564952Y-113101523D01*
X148517333Y-113196761D01*
X148517333Y-113387238D01*
X148564952Y-113482476D01*
X148612571Y-113530095D01*
X148707810Y-113577714D01*
X149136381Y-125960095D02*
X148136381Y-125960095D01*
X148136381Y-125722000D01*
X148184000Y-125579142D01*
X148279238Y-125483904D01*
X148374476Y-125436285D01*
X148564952Y-125388666D01*
X148707810Y-125388666D01*
X148898286Y-125436285D01*
X148993524Y-125483904D01*
X149088762Y-125579142D01*
X149136381Y-125722000D01*
X149136381Y-125960095D01*
X148136381Y-125055333D02*
X148136381Y-124388666D01*
X149136381Y-124817238D01*
X149136381Y-137390095D02*
X148136381Y-137390095D01*
X148136381Y-137152000D01*
X148184000Y-137009142D01*
X148279238Y-136913904D01*
X148374476Y-136866285D01*
X148564952Y-136818666D01*
X148707810Y-136818666D01*
X148898286Y-136866285D01*
X148993524Y-136913904D01*
X149088762Y-137009142D01*
X149136381Y-137152000D01*
X149136381Y-137390095D01*
X148564952Y-136247238D02*
X148517333Y-136342476D01*
X148469714Y-136390095D01*
X148374476Y-136437714D01*
X148326857Y-136437714D01*
X148231619Y-136390095D01*
X148184000Y-136342476D01*
X148136381Y-136247238D01*
X148136381Y-136056761D01*
X148184000Y-135961523D01*
X148231619Y-135913904D01*
X148326857Y-135866285D01*
X148374476Y-135866285D01*
X148469714Y-135913904D01*
X148517333Y-135961523D01*
X148564952Y-136056761D01*
X148564952Y-136247238D01*
X148612571Y-136342476D01*
X148660190Y-136390095D01*
X148755429Y-136437714D01*
X148945905Y-136437714D01*
X149041143Y-136390095D01*
X149088762Y-136342476D01*
X149136381Y-136247238D01*
X149136381Y-136056761D01*
X149088762Y-135961523D01*
X149041143Y-135913904D01*
X148945905Y-135866285D01*
X148755429Y-135866285D01*
X148660190Y-135913904D01*
X148612571Y-135961523D01*
X148564952Y-136056761D01*
M02*
