G04 #@! TF.FileFunction,Legend,Top*
%FSLAX46Y46*%
G04 Gerber Fmt 4.6, Leading zero omitted, Abs format (unit mm)*
G04 Created by KiCad (PCBNEW 4.0.5) date 04/17/17 16:51:10*
%MOMM*%
%LPD*%
G01*
G04 APERTURE LIST*
%ADD10C,0.100000*%
%ADD11C,0.200000*%
%ADD12C,0.120000*%
%ADD13C,0.150000*%
G04 APERTURE END LIST*
D10*
D11*
X137414000Y-98806000D02*
X138684000Y-98806000D01*
X152019000Y-98806000D02*
X153289000Y-98806000D01*
D12*
X148843380Y-69799360D02*
X151503380Y-69799360D01*
X151503380Y-69799360D02*
X151503380Y-67059360D01*
X151503380Y-67059360D02*
X148843380Y-67059360D01*
X148843380Y-67059360D02*
X148843380Y-69799360D01*
X149793380Y-67059360D02*
X150673380Y-67059360D01*
X150673380Y-67059360D02*
X150673380Y-61059360D01*
X150673380Y-61059360D02*
X149793380Y-61059360D01*
X149793380Y-61059360D02*
X149793380Y-67059360D01*
X149793380Y-70109360D02*
X149793380Y-69799360D01*
X150673380Y-70109360D02*
X150673380Y-69799360D01*
X149913380Y-67059360D02*
X149913380Y-61059360D01*
X150033380Y-67059360D02*
X150033380Y-61059360D01*
X150153380Y-67059360D02*
X150153380Y-61059360D01*
X150273380Y-67059360D02*
X150273380Y-61059360D01*
X150393380Y-67059360D02*
X150393380Y-61059360D01*
X150513380Y-67059360D02*
X150513380Y-61059360D01*
X150633380Y-67059360D02*
X150633380Y-61059360D01*
X151503380Y-69799360D02*
X154163380Y-69799360D01*
X154163380Y-69799360D02*
X154163380Y-67059360D01*
X154163380Y-67059360D02*
X151503380Y-67059360D01*
X151503380Y-67059360D02*
X151503380Y-69799360D01*
X152333380Y-67059360D02*
X153213380Y-67059360D01*
X153213380Y-67059360D02*
X153213380Y-61059360D01*
X153213380Y-61059360D02*
X152333380Y-61059360D01*
X152333380Y-61059360D02*
X152333380Y-67059360D01*
X152333380Y-70109360D02*
X152333380Y-69799360D01*
X153213380Y-70109360D02*
X153213380Y-69799360D01*
X150233380Y-72349360D02*
X148963380Y-72349360D01*
X148963380Y-72349360D02*
X148963380Y-71079360D01*
X154298000Y-98816000D02*
X151638000Y-98816000D01*
X151638000Y-98816000D02*
X151638000Y-101556000D01*
X151638000Y-101556000D02*
X154298000Y-101556000D01*
X154298000Y-101556000D02*
X154298000Y-98816000D01*
X153348000Y-101556000D02*
X152468000Y-101556000D01*
X152468000Y-101556000D02*
X152468000Y-107556000D01*
X152468000Y-107556000D02*
X153348000Y-107556000D01*
X153348000Y-107556000D02*
X153348000Y-101556000D01*
X153348000Y-98506000D02*
X153348000Y-98816000D01*
X152468000Y-98506000D02*
X152468000Y-98816000D01*
X153228000Y-101556000D02*
X153228000Y-107556000D01*
X153108000Y-101556000D02*
X153108000Y-107556000D01*
X152988000Y-101556000D02*
X152988000Y-107556000D01*
X152868000Y-101556000D02*
X152868000Y-107556000D01*
X152748000Y-101556000D02*
X152748000Y-107556000D01*
X152628000Y-101556000D02*
X152628000Y-107556000D01*
X152508000Y-101556000D02*
X152508000Y-107556000D01*
X151638000Y-98816000D02*
X148978000Y-98816000D01*
X148978000Y-98816000D02*
X148978000Y-101556000D01*
X148978000Y-101556000D02*
X151638000Y-101556000D01*
X151638000Y-101556000D02*
X151638000Y-98816000D01*
X150808000Y-101556000D02*
X149928000Y-101556000D01*
X149928000Y-101556000D02*
X149928000Y-107556000D01*
X149928000Y-107556000D02*
X150808000Y-107556000D01*
X150808000Y-107556000D02*
X150808000Y-101556000D01*
X150808000Y-98506000D02*
X150808000Y-98816000D01*
X149928000Y-98506000D02*
X149928000Y-98816000D01*
X152908000Y-96266000D02*
X154178000Y-96266000D01*
X154178000Y-96266000D02*
X154178000Y-97536000D01*
X158988000Y-97844000D02*
X156988000Y-97844000D01*
X156988000Y-95704000D02*
X158988000Y-95704000D01*
X144288000Y-95704000D02*
X146288000Y-95704000D01*
X146288000Y-97844000D02*
X144288000Y-97844000D01*
X157000000Y-88186000D02*
X157000000Y-91936000D01*
X157500000Y-88186000D02*
X157000000Y-88186000D01*
X160500000Y-88186000D02*
X160000000Y-88186000D01*
X160500000Y-91936000D02*
X160500000Y-88186000D01*
X143030000Y-76756000D02*
X143030000Y-80506000D01*
X143530000Y-76756000D02*
X143030000Y-76756000D01*
X146530000Y-76756000D02*
X146030000Y-76756000D01*
X146530000Y-80506000D02*
X146530000Y-76756000D01*
X143030000Y-88186000D02*
X143030000Y-91936000D01*
X143530000Y-88186000D02*
X143030000Y-88186000D01*
X146530000Y-88186000D02*
X146030000Y-88186000D01*
X146530000Y-91936000D02*
X146530000Y-88186000D01*
X157000000Y-76756000D02*
X157000000Y-80506000D01*
X157500000Y-76756000D02*
X157000000Y-76756000D01*
X160500000Y-76756000D02*
X160000000Y-76756000D01*
X160500000Y-80506000D02*
X160500000Y-76756000D01*
D13*
X148415761Y-67502455D02*
X147415761Y-67502455D01*
X147415761Y-67121502D01*
X147463380Y-67026264D01*
X147510999Y-66978645D01*
X147606237Y-66931026D01*
X147749094Y-66931026D01*
X147844332Y-66978645D01*
X147891951Y-67026264D01*
X147939570Y-67121502D01*
X147939570Y-67502455D01*
X148415761Y-65978645D02*
X148415761Y-66550074D01*
X148415761Y-66264360D02*
X147415761Y-66264360D01*
X147558618Y-66359598D01*
X147653856Y-66454836D01*
X147701475Y-66550074D01*
X155630381Y-102589095D02*
X154630381Y-102589095D01*
X154630381Y-102208142D01*
X154678000Y-102112904D01*
X154725619Y-102065285D01*
X154820857Y-102017666D01*
X154963714Y-102017666D01*
X155058952Y-102065285D01*
X155106571Y-102112904D01*
X155154190Y-102208142D01*
X155154190Y-102589095D01*
X154725619Y-101636714D02*
X154678000Y-101589095D01*
X154630381Y-101493857D01*
X154630381Y-101255761D01*
X154678000Y-101160523D01*
X154725619Y-101112904D01*
X154820857Y-101065285D01*
X154916095Y-101065285D01*
X155058952Y-101112904D01*
X155630381Y-101684333D01*
X155630381Y-101065285D01*
X157821334Y-95376381D02*
X157488000Y-94900190D01*
X157249905Y-95376381D02*
X157249905Y-94376381D01*
X157630858Y-94376381D01*
X157726096Y-94424000D01*
X157773715Y-94471619D01*
X157821334Y-94566857D01*
X157821334Y-94709714D01*
X157773715Y-94804952D01*
X157726096Y-94852571D01*
X157630858Y-94900190D01*
X157249905Y-94900190D01*
X158773715Y-95376381D02*
X158202286Y-95376381D01*
X158488000Y-95376381D02*
X158488000Y-94376381D01*
X158392762Y-94519238D01*
X158297524Y-94614476D01*
X158202286Y-94662095D01*
X145121334Y-99076381D02*
X144788000Y-98600190D01*
X144549905Y-99076381D02*
X144549905Y-98076381D01*
X144930858Y-98076381D01*
X145026096Y-98124000D01*
X145073715Y-98171619D01*
X145121334Y-98266857D01*
X145121334Y-98409714D01*
X145073715Y-98504952D01*
X145026096Y-98552571D01*
X144930858Y-98600190D01*
X144549905Y-98600190D01*
X145502286Y-98171619D02*
X145549905Y-98124000D01*
X145645143Y-98076381D01*
X145883239Y-98076381D01*
X145978477Y-98124000D01*
X146026096Y-98171619D01*
X146073715Y-98266857D01*
X146073715Y-98362095D01*
X146026096Y-98504952D01*
X145454667Y-99076381D01*
X146073715Y-99076381D01*
X156502381Y-91924095D02*
X155502381Y-91924095D01*
X155502381Y-91686000D01*
X155550000Y-91543142D01*
X155645238Y-91447904D01*
X155740476Y-91400285D01*
X155930952Y-91352666D01*
X156073810Y-91352666D01*
X156264286Y-91400285D01*
X156359524Y-91447904D01*
X156454762Y-91543142D01*
X156502381Y-91686000D01*
X156502381Y-91924095D01*
X155502381Y-91019333D02*
X155502381Y-90400285D01*
X155883333Y-90733619D01*
X155883333Y-90590761D01*
X155930952Y-90495523D01*
X155978571Y-90447904D01*
X156073810Y-90400285D01*
X156311905Y-90400285D01*
X156407143Y-90447904D01*
X156454762Y-90495523D01*
X156502381Y-90590761D01*
X156502381Y-90876476D01*
X156454762Y-90971714D01*
X156407143Y-91019333D01*
X142532381Y-80494095D02*
X141532381Y-80494095D01*
X141532381Y-80256000D01*
X141580000Y-80113142D01*
X141675238Y-80017904D01*
X141770476Y-79970285D01*
X141960952Y-79922666D01*
X142103810Y-79922666D01*
X142294286Y-79970285D01*
X142389524Y-80017904D01*
X142484762Y-80113142D01*
X142532381Y-80256000D01*
X142532381Y-80494095D01*
X141627619Y-79541714D02*
X141580000Y-79494095D01*
X141532381Y-79398857D01*
X141532381Y-79160761D01*
X141580000Y-79065523D01*
X141627619Y-79017904D01*
X141722857Y-78970285D01*
X141818095Y-78970285D01*
X141960952Y-79017904D01*
X142532381Y-79589333D01*
X142532381Y-78970285D01*
X142532381Y-91924095D02*
X141532381Y-91924095D01*
X141532381Y-91686000D01*
X141580000Y-91543142D01*
X141675238Y-91447904D01*
X141770476Y-91400285D01*
X141960952Y-91352666D01*
X142103810Y-91352666D01*
X142294286Y-91400285D01*
X142389524Y-91447904D01*
X142484762Y-91543142D01*
X142532381Y-91686000D01*
X142532381Y-91924095D01*
X142532381Y-90400285D02*
X142532381Y-90971714D01*
X142532381Y-90686000D02*
X141532381Y-90686000D01*
X141675238Y-90781238D01*
X141770476Y-90876476D01*
X141818095Y-90971714D01*
X156502381Y-80494095D02*
X155502381Y-80494095D01*
X155502381Y-80256000D01*
X155550000Y-80113142D01*
X155645238Y-80017904D01*
X155740476Y-79970285D01*
X155930952Y-79922666D01*
X156073810Y-79922666D01*
X156264286Y-79970285D01*
X156359524Y-80017904D01*
X156454762Y-80113142D01*
X156502381Y-80256000D01*
X156502381Y-80494095D01*
X155835714Y-79065523D02*
X156502381Y-79065523D01*
X155454762Y-79303619D02*
X156169048Y-79541714D01*
X156169048Y-78922666D01*
M02*
