G04 #@! TF.FileFunction,Copper,L2,Bot,Signal*
%FSLAX46Y46*%
G04 Gerber Fmt 4.6, Leading zero omitted, Abs format (unit mm)*
G04 Created by KiCad (PCBNEW 4.0.5) date 04/17/17 17:32:54*
%MOMM*%
%LPD*%
G01*
G04 APERTURE LIST*
%ADD10C,0.100000*%
%ADD11R,1.700000X1.700000*%
%ADD12O,1.700000X1.700000*%
%ADD13C,0.254000*%
%ADD14C,0.254000*%
G04 APERTURE END LIST*
D10*
D11*
X150233380Y-71079360D03*
D12*
X152773380Y-71079360D03*
D11*
X152908000Y-97536000D03*
D12*
X150368000Y-97536000D03*
D13*
X158115000Y-87630000D03*
X157480000Y-87630000D03*
X157480000Y-88265000D03*
X157480000Y-88900000D03*
X159385000Y-87630000D03*
X160020000Y-87630000D03*
X160020000Y-88265000D03*
X160020000Y-88900000D03*
X158115000Y-88265000D03*
X158115000Y-88900000D03*
X159385000Y-88265000D03*
X159385000Y-88900000D03*
X157734000Y-91567000D03*
X157734000Y-90932000D03*
X157734000Y-90297000D03*
X158115000Y-94615000D03*
X157353000Y-94615000D03*
X157353000Y-93980000D03*
X157353000Y-93345000D03*
X157353000Y-92710000D03*
X159385000Y-94615000D03*
X160147000Y-94615000D03*
X160147000Y-93980000D03*
X160147000Y-93345000D03*
X160147000Y-92710000D03*
X159766000Y-91567000D03*
X159766000Y-90932000D03*
X159766000Y-90297000D03*
X158115000Y-93980000D03*
X158115000Y-93345000D03*
X158115000Y-92710000D03*
X159385000Y-93980000D03*
X159385000Y-93345000D03*
X159385000Y-92710000D03*
X159131000Y-92202000D03*
X158369000Y-92202000D03*
X158369000Y-91567000D03*
X159131000Y-91567000D03*
X159131000Y-90932000D03*
X159131000Y-90297000D03*
X158369000Y-90297000D03*
X158369000Y-90932000D03*
X144145000Y-76200000D03*
X143510000Y-76200000D03*
X143510000Y-76835000D03*
X143510000Y-77470000D03*
X145415000Y-76200000D03*
X146050000Y-76200000D03*
X146050000Y-76835000D03*
X146050000Y-77470000D03*
X144145000Y-76835000D03*
X144145000Y-77470000D03*
X145415000Y-76835000D03*
X145415000Y-77470000D03*
X143764000Y-80137000D03*
X143764000Y-79502000D03*
X143764000Y-78867000D03*
X144145000Y-83185000D03*
X143383000Y-83185000D03*
X143383000Y-82550000D03*
X143383000Y-81915000D03*
X143383000Y-81280000D03*
X145415000Y-83185000D03*
X146177000Y-83185000D03*
X146177000Y-82550000D03*
X146177000Y-81915000D03*
X146177000Y-81280000D03*
X145796000Y-80137000D03*
X145796000Y-79502000D03*
X145796000Y-78867000D03*
X144145000Y-82550000D03*
X144145000Y-81915000D03*
X144145000Y-81280000D03*
X145415000Y-82550000D03*
X145415000Y-81915000D03*
X145415000Y-81280000D03*
X145161000Y-80772000D03*
X144399000Y-80772000D03*
X144399000Y-80137000D03*
X145161000Y-80137000D03*
X145161000Y-79502000D03*
X145161000Y-78867000D03*
X144399000Y-78867000D03*
X144399000Y-79502000D03*
X144145000Y-87630000D03*
X143510000Y-87630000D03*
X143510000Y-88265000D03*
X143510000Y-88900000D03*
X145415000Y-87630000D03*
X146050000Y-87630000D03*
X146050000Y-88265000D03*
X146050000Y-88900000D03*
X144145000Y-88265000D03*
X144145000Y-88900000D03*
X145415000Y-88265000D03*
X145415000Y-88900000D03*
X143764000Y-91567000D03*
X143764000Y-90932000D03*
X143764000Y-90297000D03*
X144145000Y-94615000D03*
X143383000Y-94615000D03*
X143383000Y-93980000D03*
X143383000Y-93345000D03*
X143383000Y-92710000D03*
X145415000Y-94615000D03*
X146177000Y-94615000D03*
X146177000Y-93980000D03*
X146177000Y-93345000D03*
X146177000Y-92710000D03*
X145796000Y-91567000D03*
X145796000Y-90932000D03*
X145796000Y-90297000D03*
X144145000Y-93980000D03*
X144145000Y-93345000D03*
X144145000Y-92710000D03*
X145415000Y-93980000D03*
X145415000Y-93345000D03*
X145415000Y-92710000D03*
X145161000Y-92202000D03*
X144399000Y-92202000D03*
X144399000Y-91567000D03*
X145161000Y-91567000D03*
X145161000Y-90932000D03*
X145161000Y-90297000D03*
X144399000Y-90297000D03*
X144399000Y-90932000D03*
X158115000Y-76200000D03*
X157480000Y-76200000D03*
X157480000Y-76835000D03*
X157480000Y-77470000D03*
X159385000Y-76200000D03*
X160020000Y-76200000D03*
X160020000Y-76835000D03*
X160020000Y-77470000D03*
X158115000Y-76835000D03*
X158115000Y-77470000D03*
X159385000Y-76835000D03*
X159385000Y-77470000D03*
X157734000Y-80137000D03*
X157734000Y-79502000D03*
X157734000Y-78867000D03*
X158115000Y-83185000D03*
X157353000Y-83185000D03*
X157353000Y-82550000D03*
X157353000Y-81915000D03*
X157353000Y-81280000D03*
X159385000Y-83185000D03*
X160147000Y-83185000D03*
X160147000Y-82550000D03*
X160147000Y-81915000D03*
X160147000Y-81280000D03*
X159766000Y-80137000D03*
X159766000Y-79502000D03*
X159766000Y-78867000D03*
X158115000Y-82550000D03*
X158115000Y-81915000D03*
X158115000Y-81280000D03*
X159385000Y-82550000D03*
X159385000Y-81915000D03*
X159385000Y-81280000D03*
X159131000Y-80772000D03*
X158369000Y-80772000D03*
X158369000Y-80137000D03*
X159131000Y-80137000D03*
X159131000Y-79502000D03*
X159131000Y-78867000D03*
X158369000Y-78867000D03*
X158369000Y-79502000D03*
D14*
G36*
X143002133Y-78714764D02*
X143002118Y-78731894D01*
X142996243Y-78747982D01*
X143001986Y-78882860D01*
X143001868Y-79017906D01*
X143008410Y-79033740D01*
X143009139Y-79050850D01*
X143066745Y-79189926D01*
X143053913Y-79225063D01*
X143002133Y-79349764D01*
X143002118Y-79366894D01*
X142996243Y-79382982D01*
X143001986Y-79517860D01*
X143001868Y-79652906D01*
X143008410Y-79668740D01*
X143009139Y-79685850D01*
X143066745Y-79824926D01*
X143053913Y-79860063D01*
X143002133Y-79984764D01*
X143002118Y-80001894D01*
X142996243Y-80017982D01*
X143001986Y-80152860D01*
X143001868Y-80287906D01*
X143008410Y-80303740D01*
X143009139Y-80320850D01*
X143100230Y-80540766D01*
X143106164Y-80540319D01*
X143114397Y-80560244D01*
X142979234Y-80616230D01*
X142979681Y-80622164D01*
X142951926Y-80633632D01*
X142737385Y-80847798D01*
X142725385Y-80876698D01*
X142719230Y-80876234D01*
X142672913Y-81003063D01*
X142621133Y-81127764D01*
X142621118Y-81144894D01*
X142615243Y-81160982D01*
X142620986Y-81295860D01*
X142620868Y-81430906D01*
X142627410Y-81446740D01*
X142628139Y-81463850D01*
X142685745Y-81602926D01*
X142672913Y-81638063D01*
X142621133Y-81762764D01*
X142621118Y-81779894D01*
X142615243Y-81795982D01*
X142620986Y-81930860D01*
X142620868Y-82065906D01*
X142627410Y-82081740D01*
X142628139Y-82098850D01*
X142685745Y-82237926D01*
X142672913Y-82273063D01*
X142621133Y-82397764D01*
X142621118Y-82414894D01*
X142615243Y-82430982D01*
X142620986Y-82565860D01*
X142620868Y-82700906D01*
X142627410Y-82716740D01*
X142628139Y-82733850D01*
X142685745Y-82872926D01*
X142672913Y-82908063D01*
X142621133Y-83032764D01*
X142621118Y-83049894D01*
X142615243Y-83065982D01*
X142620986Y-83200860D01*
X142620868Y-83335906D01*
X142627410Y-83351740D01*
X142628139Y-83368850D01*
X142719230Y-83588766D01*
X142725164Y-83588319D01*
X142736632Y-83616074D01*
X142950798Y-83830615D01*
X142979698Y-83842615D01*
X142979234Y-83848770D01*
X143106063Y-83895087D01*
X143230764Y-83946867D01*
X143247894Y-83946882D01*
X143248217Y-83947000D01*
X138303000Y-83947000D01*
X138303000Y-78613000D01*
X143044389Y-78613000D01*
X143002133Y-78714764D01*
X143002133Y-78714764D01*
G37*
X143002133Y-78714764D02*
X143002118Y-78731894D01*
X142996243Y-78747982D01*
X143001986Y-78882860D01*
X143001868Y-79017906D01*
X143008410Y-79033740D01*
X143009139Y-79050850D01*
X143066745Y-79189926D01*
X143053913Y-79225063D01*
X143002133Y-79349764D01*
X143002118Y-79366894D01*
X142996243Y-79382982D01*
X143001986Y-79517860D01*
X143001868Y-79652906D01*
X143008410Y-79668740D01*
X143009139Y-79685850D01*
X143066745Y-79824926D01*
X143053913Y-79860063D01*
X143002133Y-79984764D01*
X143002118Y-80001894D01*
X142996243Y-80017982D01*
X143001986Y-80152860D01*
X143001868Y-80287906D01*
X143008410Y-80303740D01*
X143009139Y-80320850D01*
X143100230Y-80540766D01*
X143106164Y-80540319D01*
X143114397Y-80560244D01*
X142979234Y-80616230D01*
X142979681Y-80622164D01*
X142951926Y-80633632D01*
X142737385Y-80847798D01*
X142725385Y-80876698D01*
X142719230Y-80876234D01*
X142672913Y-81003063D01*
X142621133Y-81127764D01*
X142621118Y-81144894D01*
X142615243Y-81160982D01*
X142620986Y-81295860D01*
X142620868Y-81430906D01*
X142627410Y-81446740D01*
X142628139Y-81463850D01*
X142685745Y-81602926D01*
X142672913Y-81638063D01*
X142621133Y-81762764D01*
X142621118Y-81779894D01*
X142615243Y-81795982D01*
X142620986Y-81930860D01*
X142620868Y-82065906D01*
X142627410Y-82081740D01*
X142628139Y-82098850D01*
X142685745Y-82237926D01*
X142672913Y-82273063D01*
X142621133Y-82397764D01*
X142621118Y-82414894D01*
X142615243Y-82430982D01*
X142620986Y-82565860D01*
X142620868Y-82700906D01*
X142627410Y-82716740D01*
X142628139Y-82733850D01*
X142685745Y-82872926D01*
X142672913Y-82908063D01*
X142621133Y-83032764D01*
X142621118Y-83049894D01*
X142615243Y-83065982D01*
X142620986Y-83200860D01*
X142620868Y-83335906D01*
X142627410Y-83351740D01*
X142628139Y-83368850D01*
X142719230Y-83588766D01*
X142725164Y-83588319D01*
X142736632Y-83616074D01*
X142950798Y-83830615D01*
X142979698Y-83842615D01*
X142979234Y-83848770D01*
X143106063Y-83895087D01*
X143230764Y-83946867D01*
X143247894Y-83946882D01*
X143248217Y-83947000D01*
X138303000Y-83947000D01*
X138303000Y-78613000D01*
X143044389Y-78613000D01*
X143002133Y-78714764D01*
G36*
X143868063Y-83895087D02*
X143992764Y-83946867D01*
X144009894Y-83946882D01*
X144010217Y-83947000D01*
X143534225Y-83947000D01*
X143549740Y-83940590D01*
X143566850Y-83939861D01*
X143765432Y-83857607D01*
X143868063Y-83895087D01*
X143868063Y-83895087D01*
G37*
X143868063Y-83895087D02*
X143992764Y-83946867D01*
X144009894Y-83946882D01*
X144010217Y-83947000D01*
X143534225Y-83947000D01*
X143549740Y-83940590D01*
X143566850Y-83939861D01*
X143765432Y-83857607D01*
X143868063Y-83895087D01*
G36*
X144982798Y-83830615D02*
X145011698Y-83842615D01*
X145011234Y-83848770D01*
X145138063Y-83895087D01*
X145262764Y-83946867D01*
X145279894Y-83946882D01*
X145280217Y-83947000D01*
X144296225Y-83947000D01*
X144311740Y-83940590D01*
X144328850Y-83939861D01*
X144548766Y-83848770D01*
X144548319Y-83842836D01*
X144576074Y-83831368D01*
X144780168Y-83627630D01*
X144982798Y-83830615D01*
X144982798Y-83830615D01*
G37*
X144982798Y-83830615D02*
X145011698Y-83842615D01*
X145011234Y-83848770D01*
X145138063Y-83895087D01*
X145262764Y-83946867D01*
X145279894Y-83946882D01*
X145280217Y-83947000D01*
X144296225Y-83947000D01*
X144311740Y-83940590D01*
X144328850Y-83939861D01*
X144548766Y-83848770D01*
X144548319Y-83842836D01*
X144576074Y-83831368D01*
X144780168Y-83627630D01*
X144982798Y-83830615D01*
G36*
X145900063Y-83895087D02*
X146024764Y-83946867D01*
X146041894Y-83946882D01*
X146042217Y-83947000D01*
X145566225Y-83947000D01*
X145581740Y-83940590D01*
X145598850Y-83939861D01*
X145797432Y-83857607D01*
X145900063Y-83895087D01*
X145900063Y-83895087D01*
G37*
X145900063Y-83895087D02*
X146024764Y-83946867D01*
X146041894Y-83946882D01*
X146042217Y-83947000D01*
X145566225Y-83947000D01*
X145581740Y-83940590D01*
X145598850Y-83939861D01*
X145797432Y-83857607D01*
X145900063Y-83895087D01*
G36*
X151257000Y-83947000D02*
X146328225Y-83947000D01*
X146343740Y-83940590D01*
X146360850Y-83939861D01*
X146580766Y-83848770D01*
X146580319Y-83842836D01*
X146608074Y-83831368D01*
X146822615Y-83617202D01*
X146834615Y-83588302D01*
X146840770Y-83588766D01*
X146887087Y-83461937D01*
X146938867Y-83337236D01*
X146938882Y-83320106D01*
X146944757Y-83304018D01*
X146939014Y-83169140D01*
X146939132Y-83034094D01*
X146932590Y-83018260D01*
X146931861Y-83001150D01*
X146874255Y-82862074D01*
X146887087Y-82826937D01*
X146938867Y-82702236D01*
X146938882Y-82685106D01*
X146944757Y-82669018D01*
X146939014Y-82534140D01*
X146939132Y-82399094D01*
X146932590Y-82383260D01*
X146931861Y-82366150D01*
X146874255Y-82227074D01*
X146887087Y-82191937D01*
X146938867Y-82067236D01*
X146938882Y-82050106D01*
X146944757Y-82034018D01*
X146939014Y-81899140D01*
X146939132Y-81764094D01*
X146932590Y-81748260D01*
X146931861Y-81731150D01*
X146874255Y-81592074D01*
X146887087Y-81556937D01*
X146938867Y-81432236D01*
X146938882Y-81415106D01*
X146944757Y-81399018D01*
X146939014Y-81264140D01*
X146939132Y-81129094D01*
X146932590Y-81113260D01*
X146931861Y-81096150D01*
X146840770Y-80876234D01*
X146834836Y-80876681D01*
X146823368Y-80848926D01*
X146609202Y-80634385D01*
X146580302Y-80622385D01*
X146580766Y-80616230D01*
X146453937Y-80569913D01*
X146443175Y-80565445D01*
X146453615Y-80540302D01*
X146459770Y-80540766D01*
X146506087Y-80413937D01*
X146557867Y-80289236D01*
X146557882Y-80272106D01*
X146563757Y-80256018D01*
X146558014Y-80121140D01*
X146558132Y-79986094D01*
X146551590Y-79970260D01*
X146550861Y-79953150D01*
X146493255Y-79814074D01*
X146506087Y-79778937D01*
X146557867Y-79654236D01*
X146557882Y-79637106D01*
X146563757Y-79621018D01*
X146558014Y-79486140D01*
X146558132Y-79351094D01*
X146551590Y-79335260D01*
X146550861Y-79318150D01*
X146493255Y-79179074D01*
X146506087Y-79143937D01*
X146557867Y-79019236D01*
X146557882Y-79002106D01*
X146563757Y-78986018D01*
X146558014Y-78851140D01*
X146558132Y-78716094D01*
X146551590Y-78700260D01*
X146550861Y-78683150D01*
X146521804Y-78613000D01*
X151257000Y-78613000D01*
X151257000Y-83947000D01*
X151257000Y-83947000D01*
G37*
X151257000Y-83947000D02*
X146328225Y-83947000D01*
X146343740Y-83940590D01*
X146360850Y-83939861D01*
X146580766Y-83848770D01*
X146580319Y-83842836D01*
X146608074Y-83831368D01*
X146822615Y-83617202D01*
X146834615Y-83588302D01*
X146840770Y-83588766D01*
X146887087Y-83461937D01*
X146938867Y-83337236D01*
X146938882Y-83320106D01*
X146944757Y-83304018D01*
X146939014Y-83169140D01*
X146939132Y-83034094D01*
X146932590Y-83018260D01*
X146931861Y-83001150D01*
X146874255Y-82862074D01*
X146887087Y-82826937D01*
X146938867Y-82702236D01*
X146938882Y-82685106D01*
X146944757Y-82669018D01*
X146939014Y-82534140D01*
X146939132Y-82399094D01*
X146932590Y-82383260D01*
X146931861Y-82366150D01*
X146874255Y-82227074D01*
X146887087Y-82191937D01*
X146938867Y-82067236D01*
X146938882Y-82050106D01*
X146944757Y-82034018D01*
X146939014Y-81899140D01*
X146939132Y-81764094D01*
X146932590Y-81748260D01*
X146931861Y-81731150D01*
X146874255Y-81592074D01*
X146887087Y-81556937D01*
X146938867Y-81432236D01*
X146938882Y-81415106D01*
X146944757Y-81399018D01*
X146939014Y-81264140D01*
X146939132Y-81129094D01*
X146932590Y-81113260D01*
X146931861Y-81096150D01*
X146840770Y-80876234D01*
X146834836Y-80876681D01*
X146823368Y-80848926D01*
X146609202Y-80634385D01*
X146580302Y-80622385D01*
X146580766Y-80616230D01*
X146453937Y-80569913D01*
X146443175Y-80565445D01*
X146453615Y-80540302D01*
X146459770Y-80540766D01*
X146506087Y-80413937D01*
X146557867Y-80289236D01*
X146557882Y-80272106D01*
X146563757Y-80256018D01*
X146558014Y-80121140D01*
X146558132Y-79986094D01*
X146551590Y-79970260D01*
X146550861Y-79953150D01*
X146493255Y-79814074D01*
X146506087Y-79778937D01*
X146557867Y-79654236D01*
X146557882Y-79637106D01*
X146563757Y-79621018D01*
X146558014Y-79486140D01*
X146558132Y-79351094D01*
X146551590Y-79335260D01*
X146550861Y-79318150D01*
X146493255Y-79179074D01*
X146506087Y-79143937D01*
X146557867Y-79019236D01*
X146557882Y-79002106D01*
X146563757Y-78986018D01*
X146558014Y-78851140D01*
X146558132Y-78716094D01*
X146551590Y-78700260D01*
X146550861Y-78683150D01*
X146521804Y-78613000D01*
X151257000Y-78613000D01*
X151257000Y-83947000D01*
G36*
X156972133Y-78714764D02*
X156972118Y-78731894D01*
X156966243Y-78747982D01*
X156971986Y-78882860D01*
X156971868Y-79017906D01*
X156978410Y-79033740D01*
X156979139Y-79050850D01*
X157036745Y-79189926D01*
X157023913Y-79225063D01*
X156972133Y-79349764D01*
X156972118Y-79366894D01*
X156966243Y-79382982D01*
X156971986Y-79517860D01*
X156971868Y-79652906D01*
X156978410Y-79668740D01*
X156979139Y-79685850D01*
X157036745Y-79824926D01*
X157023913Y-79860063D01*
X156972133Y-79984764D01*
X156972118Y-80001894D01*
X156966243Y-80017982D01*
X156971986Y-80152860D01*
X156971868Y-80287906D01*
X156978410Y-80303740D01*
X156979139Y-80320850D01*
X157070230Y-80540766D01*
X157076164Y-80540319D01*
X157084397Y-80560244D01*
X156949234Y-80616230D01*
X156949681Y-80622164D01*
X156921926Y-80633632D01*
X156707385Y-80847798D01*
X156695385Y-80876698D01*
X156689230Y-80876234D01*
X156642913Y-81003063D01*
X156591133Y-81127764D01*
X156591118Y-81144894D01*
X156585243Y-81160982D01*
X156590986Y-81295860D01*
X156590868Y-81430906D01*
X156597410Y-81446740D01*
X156598139Y-81463850D01*
X156655745Y-81602926D01*
X156642913Y-81638063D01*
X156591133Y-81762764D01*
X156591118Y-81779894D01*
X156585243Y-81795982D01*
X156590986Y-81930860D01*
X156590868Y-82065906D01*
X156597410Y-82081740D01*
X156598139Y-82098850D01*
X156655745Y-82237926D01*
X156642913Y-82273063D01*
X156591133Y-82397764D01*
X156591118Y-82414894D01*
X156585243Y-82430982D01*
X156590986Y-82565860D01*
X156590868Y-82700906D01*
X156597410Y-82716740D01*
X156598139Y-82733850D01*
X156655745Y-82872926D01*
X156642913Y-82908063D01*
X156591133Y-83032764D01*
X156591118Y-83049894D01*
X156585243Y-83065982D01*
X156590986Y-83200860D01*
X156590868Y-83335906D01*
X156597410Y-83351740D01*
X156598139Y-83368850D01*
X156689230Y-83588766D01*
X156695164Y-83588319D01*
X156706632Y-83616074D01*
X156920798Y-83830615D01*
X156949698Y-83842615D01*
X156949234Y-83848770D01*
X157076063Y-83895087D01*
X157200764Y-83946867D01*
X157217894Y-83946882D01*
X157218217Y-83947000D01*
X152273000Y-83947000D01*
X152273000Y-78613000D01*
X157014389Y-78613000D01*
X156972133Y-78714764D01*
X156972133Y-78714764D01*
G37*
X156972133Y-78714764D02*
X156972118Y-78731894D01*
X156966243Y-78747982D01*
X156971986Y-78882860D01*
X156971868Y-79017906D01*
X156978410Y-79033740D01*
X156979139Y-79050850D01*
X157036745Y-79189926D01*
X157023913Y-79225063D01*
X156972133Y-79349764D01*
X156972118Y-79366894D01*
X156966243Y-79382982D01*
X156971986Y-79517860D01*
X156971868Y-79652906D01*
X156978410Y-79668740D01*
X156979139Y-79685850D01*
X157036745Y-79824926D01*
X157023913Y-79860063D01*
X156972133Y-79984764D01*
X156972118Y-80001894D01*
X156966243Y-80017982D01*
X156971986Y-80152860D01*
X156971868Y-80287906D01*
X156978410Y-80303740D01*
X156979139Y-80320850D01*
X157070230Y-80540766D01*
X157076164Y-80540319D01*
X157084397Y-80560244D01*
X156949234Y-80616230D01*
X156949681Y-80622164D01*
X156921926Y-80633632D01*
X156707385Y-80847798D01*
X156695385Y-80876698D01*
X156689230Y-80876234D01*
X156642913Y-81003063D01*
X156591133Y-81127764D01*
X156591118Y-81144894D01*
X156585243Y-81160982D01*
X156590986Y-81295860D01*
X156590868Y-81430906D01*
X156597410Y-81446740D01*
X156598139Y-81463850D01*
X156655745Y-81602926D01*
X156642913Y-81638063D01*
X156591133Y-81762764D01*
X156591118Y-81779894D01*
X156585243Y-81795982D01*
X156590986Y-81930860D01*
X156590868Y-82065906D01*
X156597410Y-82081740D01*
X156598139Y-82098850D01*
X156655745Y-82237926D01*
X156642913Y-82273063D01*
X156591133Y-82397764D01*
X156591118Y-82414894D01*
X156585243Y-82430982D01*
X156590986Y-82565860D01*
X156590868Y-82700906D01*
X156597410Y-82716740D01*
X156598139Y-82733850D01*
X156655745Y-82872926D01*
X156642913Y-82908063D01*
X156591133Y-83032764D01*
X156591118Y-83049894D01*
X156585243Y-83065982D01*
X156590986Y-83200860D01*
X156590868Y-83335906D01*
X156597410Y-83351740D01*
X156598139Y-83368850D01*
X156689230Y-83588766D01*
X156695164Y-83588319D01*
X156706632Y-83616074D01*
X156920798Y-83830615D01*
X156949698Y-83842615D01*
X156949234Y-83848770D01*
X157076063Y-83895087D01*
X157200764Y-83946867D01*
X157217894Y-83946882D01*
X157218217Y-83947000D01*
X152273000Y-83947000D01*
X152273000Y-78613000D01*
X157014389Y-78613000D01*
X156972133Y-78714764D01*
G36*
X157838063Y-83895087D02*
X157962764Y-83946867D01*
X157979894Y-83946882D01*
X157980217Y-83947000D01*
X157504225Y-83947000D01*
X157519740Y-83940590D01*
X157536850Y-83939861D01*
X157735432Y-83857607D01*
X157838063Y-83895087D01*
X157838063Y-83895087D01*
G37*
X157838063Y-83895087D02*
X157962764Y-83946867D01*
X157979894Y-83946882D01*
X157980217Y-83947000D01*
X157504225Y-83947000D01*
X157519740Y-83940590D01*
X157536850Y-83939861D01*
X157735432Y-83857607D01*
X157838063Y-83895087D01*
G36*
X158952798Y-83830615D02*
X158981698Y-83842615D01*
X158981234Y-83848770D01*
X159108063Y-83895087D01*
X159232764Y-83946867D01*
X159249894Y-83946882D01*
X159250217Y-83947000D01*
X158266225Y-83947000D01*
X158281740Y-83940590D01*
X158298850Y-83939861D01*
X158518766Y-83848770D01*
X158518319Y-83842836D01*
X158546074Y-83831368D01*
X158750168Y-83627630D01*
X158952798Y-83830615D01*
X158952798Y-83830615D01*
G37*
X158952798Y-83830615D02*
X158981698Y-83842615D01*
X158981234Y-83848770D01*
X159108063Y-83895087D01*
X159232764Y-83946867D01*
X159249894Y-83946882D01*
X159250217Y-83947000D01*
X158266225Y-83947000D01*
X158281740Y-83940590D01*
X158298850Y-83939861D01*
X158518766Y-83848770D01*
X158518319Y-83842836D01*
X158546074Y-83831368D01*
X158750168Y-83627630D01*
X158952798Y-83830615D01*
G36*
X159870063Y-83895087D02*
X159994764Y-83946867D01*
X160011894Y-83946882D01*
X160012217Y-83947000D01*
X159536225Y-83947000D01*
X159551740Y-83940590D01*
X159568850Y-83939861D01*
X159767432Y-83857607D01*
X159870063Y-83895087D01*
X159870063Y-83895087D01*
G37*
X159870063Y-83895087D02*
X159994764Y-83946867D01*
X160011894Y-83946882D01*
X160012217Y-83947000D01*
X159536225Y-83947000D01*
X159551740Y-83940590D01*
X159568850Y-83939861D01*
X159767432Y-83857607D01*
X159870063Y-83895087D01*
G36*
X165227000Y-83947000D02*
X160298225Y-83947000D01*
X160313740Y-83940590D01*
X160330850Y-83939861D01*
X160550766Y-83848770D01*
X160550319Y-83842836D01*
X160578074Y-83831368D01*
X160792615Y-83617202D01*
X160804615Y-83588302D01*
X160810770Y-83588766D01*
X160857087Y-83461937D01*
X160908867Y-83337236D01*
X160908882Y-83320106D01*
X160914757Y-83304018D01*
X160909014Y-83169140D01*
X160909132Y-83034094D01*
X160902590Y-83018260D01*
X160901861Y-83001150D01*
X160844255Y-82862074D01*
X160857087Y-82826937D01*
X160908867Y-82702236D01*
X160908882Y-82685106D01*
X160914757Y-82669018D01*
X160909014Y-82534140D01*
X160909132Y-82399094D01*
X160902590Y-82383260D01*
X160901861Y-82366150D01*
X160844255Y-82227074D01*
X160857087Y-82191937D01*
X160908867Y-82067236D01*
X160908882Y-82050106D01*
X160914757Y-82034018D01*
X160909014Y-81899140D01*
X160909132Y-81764094D01*
X160902590Y-81748260D01*
X160901861Y-81731150D01*
X160844255Y-81592074D01*
X160857087Y-81556937D01*
X160908867Y-81432236D01*
X160908882Y-81415106D01*
X160914757Y-81399018D01*
X160909014Y-81264140D01*
X160909132Y-81129094D01*
X160902590Y-81113260D01*
X160901861Y-81096150D01*
X160810770Y-80876234D01*
X160804836Y-80876681D01*
X160793368Y-80848926D01*
X160579202Y-80634385D01*
X160550302Y-80622385D01*
X160550766Y-80616230D01*
X160423937Y-80569913D01*
X160413175Y-80565445D01*
X160423615Y-80540302D01*
X160429770Y-80540766D01*
X160476087Y-80413937D01*
X160527867Y-80289236D01*
X160527882Y-80272106D01*
X160533757Y-80256018D01*
X160528014Y-80121140D01*
X160528132Y-79986094D01*
X160521590Y-79970260D01*
X160520861Y-79953150D01*
X160463255Y-79814074D01*
X160476087Y-79778937D01*
X160527867Y-79654236D01*
X160527882Y-79637106D01*
X160533757Y-79621018D01*
X160528014Y-79486140D01*
X160528132Y-79351094D01*
X160521590Y-79335260D01*
X160520861Y-79318150D01*
X160463255Y-79179074D01*
X160476087Y-79143937D01*
X160527867Y-79019236D01*
X160527882Y-79002106D01*
X160533757Y-78986018D01*
X160528014Y-78851140D01*
X160528132Y-78716094D01*
X160521590Y-78700260D01*
X160520861Y-78683150D01*
X160491804Y-78613000D01*
X165227000Y-78613000D01*
X165227000Y-83947000D01*
X165227000Y-83947000D01*
G37*
X165227000Y-83947000D02*
X160298225Y-83947000D01*
X160313740Y-83940590D01*
X160330850Y-83939861D01*
X160550766Y-83848770D01*
X160550319Y-83842836D01*
X160578074Y-83831368D01*
X160792615Y-83617202D01*
X160804615Y-83588302D01*
X160810770Y-83588766D01*
X160857087Y-83461937D01*
X160908867Y-83337236D01*
X160908882Y-83320106D01*
X160914757Y-83304018D01*
X160909014Y-83169140D01*
X160909132Y-83034094D01*
X160902590Y-83018260D01*
X160901861Y-83001150D01*
X160844255Y-82862074D01*
X160857087Y-82826937D01*
X160908867Y-82702236D01*
X160908882Y-82685106D01*
X160914757Y-82669018D01*
X160909014Y-82534140D01*
X160909132Y-82399094D01*
X160902590Y-82383260D01*
X160901861Y-82366150D01*
X160844255Y-82227074D01*
X160857087Y-82191937D01*
X160908867Y-82067236D01*
X160908882Y-82050106D01*
X160914757Y-82034018D01*
X160909014Y-81899140D01*
X160909132Y-81764094D01*
X160902590Y-81748260D01*
X160901861Y-81731150D01*
X160844255Y-81592074D01*
X160857087Y-81556937D01*
X160908867Y-81432236D01*
X160908882Y-81415106D01*
X160914757Y-81399018D01*
X160909014Y-81264140D01*
X160909132Y-81129094D01*
X160902590Y-81113260D01*
X160901861Y-81096150D01*
X160810770Y-80876234D01*
X160804836Y-80876681D01*
X160793368Y-80848926D01*
X160579202Y-80634385D01*
X160550302Y-80622385D01*
X160550766Y-80616230D01*
X160423937Y-80569913D01*
X160413175Y-80565445D01*
X160423615Y-80540302D01*
X160429770Y-80540766D01*
X160476087Y-80413937D01*
X160527867Y-80289236D01*
X160527882Y-80272106D01*
X160533757Y-80256018D01*
X160528014Y-80121140D01*
X160528132Y-79986094D01*
X160521590Y-79970260D01*
X160520861Y-79953150D01*
X160463255Y-79814074D01*
X160476087Y-79778937D01*
X160527867Y-79654236D01*
X160527882Y-79637106D01*
X160533757Y-79621018D01*
X160528014Y-79486140D01*
X160528132Y-79351094D01*
X160521590Y-79335260D01*
X160520861Y-79318150D01*
X160463255Y-79179074D01*
X160476087Y-79143937D01*
X160527867Y-79019236D01*
X160527882Y-79002106D01*
X160533757Y-78986018D01*
X160528014Y-78851140D01*
X160528132Y-78716094D01*
X160521590Y-78700260D01*
X160520861Y-78683150D01*
X160491804Y-78613000D01*
X165227000Y-78613000D01*
X165227000Y-83947000D01*
G36*
X156972133Y-90144764D02*
X156972118Y-90161894D01*
X156966243Y-90177982D01*
X156971986Y-90312860D01*
X156971868Y-90447906D01*
X156978410Y-90463740D01*
X156979139Y-90480850D01*
X157036745Y-90619926D01*
X157023913Y-90655063D01*
X156972133Y-90779764D01*
X156972118Y-90796894D01*
X156966243Y-90812982D01*
X156971986Y-90947860D01*
X156971868Y-91082906D01*
X156978410Y-91098740D01*
X156979139Y-91115850D01*
X157036745Y-91254926D01*
X157023913Y-91290063D01*
X156972133Y-91414764D01*
X156972118Y-91431894D01*
X156966243Y-91447982D01*
X156971986Y-91582860D01*
X156971868Y-91717906D01*
X156978410Y-91733740D01*
X156979139Y-91750850D01*
X157070230Y-91970766D01*
X157076164Y-91970319D01*
X157084397Y-91990244D01*
X156949234Y-92046230D01*
X156949681Y-92052164D01*
X156921926Y-92063632D01*
X156707385Y-92277798D01*
X156695385Y-92306698D01*
X156689230Y-92306234D01*
X156642913Y-92433063D01*
X156591133Y-92557764D01*
X156591118Y-92574894D01*
X156585243Y-92590982D01*
X156590986Y-92725860D01*
X156590868Y-92860906D01*
X156597410Y-92876740D01*
X156598139Y-92893850D01*
X156655745Y-93032926D01*
X156642913Y-93068063D01*
X156591133Y-93192764D01*
X156591118Y-93209894D01*
X156585243Y-93225982D01*
X156590986Y-93360860D01*
X156590868Y-93495906D01*
X156597410Y-93511740D01*
X156598139Y-93528850D01*
X156655745Y-93667926D01*
X156642913Y-93703063D01*
X156591133Y-93827764D01*
X156591118Y-93844894D01*
X156585243Y-93860982D01*
X156590986Y-93995860D01*
X156590868Y-94130906D01*
X156597410Y-94146740D01*
X156598139Y-94163850D01*
X156655745Y-94302926D01*
X156642913Y-94338063D01*
X156591133Y-94462764D01*
X156591118Y-94479894D01*
X156585243Y-94495982D01*
X156590986Y-94630860D01*
X156590868Y-94765906D01*
X156597410Y-94781740D01*
X156598139Y-94798850D01*
X156689230Y-95018766D01*
X156695164Y-95018319D01*
X156706632Y-95046074D01*
X156920798Y-95260615D01*
X156949698Y-95272615D01*
X156949234Y-95278770D01*
X157076063Y-95325087D01*
X157200764Y-95376867D01*
X157217894Y-95376882D01*
X157218217Y-95377000D01*
X152273000Y-95377000D01*
X152273000Y-90043000D01*
X157014389Y-90043000D01*
X156972133Y-90144764D01*
X156972133Y-90144764D01*
G37*
X156972133Y-90144764D02*
X156972118Y-90161894D01*
X156966243Y-90177982D01*
X156971986Y-90312860D01*
X156971868Y-90447906D01*
X156978410Y-90463740D01*
X156979139Y-90480850D01*
X157036745Y-90619926D01*
X157023913Y-90655063D01*
X156972133Y-90779764D01*
X156972118Y-90796894D01*
X156966243Y-90812982D01*
X156971986Y-90947860D01*
X156971868Y-91082906D01*
X156978410Y-91098740D01*
X156979139Y-91115850D01*
X157036745Y-91254926D01*
X157023913Y-91290063D01*
X156972133Y-91414764D01*
X156972118Y-91431894D01*
X156966243Y-91447982D01*
X156971986Y-91582860D01*
X156971868Y-91717906D01*
X156978410Y-91733740D01*
X156979139Y-91750850D01*
X157070230Y-91970766D01*
X157076164Y-91970319D01*
X157084397Y-91990244D01*
X156949234Y-92046230D01*
X156949681Y-92052164D01*
X156921926Y-92063632D01*
X156707385Y-92277798D01*
X156695385Y-92306698D01*
X156689230Y-92306234D01*
X156642913Y-92433063D01*
X156591133Y-92557764D01*
X156591118Y-92574894D01*
X156585243Y-92590982D01*
X156590986Y-92725860D01*
X156590868Y-92860906D01*
X156597410Y-92876740D01*
X156598139Y-92893850D01*
X156655745Y-93032926D01*
X156642913Y-93068063D01*
X156591133Y-93192764D01*
X156591118Y-93209894D01*
X156585243Y-93225982D01*
X156590986Y-93360860D01*
X156590868Y-93495906D01*
X156597410Y-93511740D01*
X156598139Y-93528850D01*
X156655745Y-93667926D01*
X156642913Y-93703063D01*
X156591133Y-93827764D01*
X156591118Y-93844894D01*
X156585243Y-93860982D01*
X156590986Y-93995860D01*
X156590868Y-94130906D01*
X156597410Y-94146740D01*
X156598139Y-94163850D01*
X156655745Y-94302926D01*
X156642913Y-94338063D01*
X156591133Y-94462764D01*
X156591118Y-94479894D01*
X156585243Y-94495982D01*
X156590986Y-94630860D01*
X156590868Y-94765906D01*
X156597410Y-94781740D01*
X156598139Y-94798850D01*
X156689230Y-95018766D01*
X156695164Y-95018319D01*
X156706632Y-95046074D01*
X156920798Y-95260615D01*
X156949698Y-95272615D01*
X156949234Y-95278770D01*
X157076063Y-95325087D01*
X157200764Y-95376867D01*
X157217894Y-95376882D01*
X157218217Y-95377000D01*
X152273000Y-95377000D01*
X152273000Y-90043000D01*
X157014389Y-90043000D01*
X156972133Y-90144764D01*
G36*
X157838063Y-95325087D02*
X157962764Y-95376867D01*
X157979894Y-95376882D01*
X157980217Y-95377000D01*
X157504225Y-95377000D01*
X157519740Y-95370590D01*
X157536850Y-95369861D01*
X157735432Y-95287607D01*
X157838063Y-95325087D01*
X157838063Y-95325087D01*
G37*
X157838063Y-95325087D02*
X157962764Y-95376867D01*
X157979894Y-95376882D01*
X157980217Y-95377000D01*
X157504225Y-95377000D01*
X157519740Y-95370590D01*
X157536850Y-95369861D01*
X157735432Y-95287607D01*
X157838063Y-95325087D01*
G36*
X158952798Y-95260615D02*
X158981698Y-95272615D01*
X158981234Y-95278770D01*
X159108063Y-95325087D01*
X159232764Y-95376867D01*
X159249894Y-95376882D01*
X159250217Y-95377000D01*
X158266225Y-95377000D01*
X158281740Y-95370590D01*
X158298850Y-95369861D01*
X158518766Y-95278770D01*
X158518319Y-95272836D01*
X158546074Y-95261368D01*
X158750168Y-95057630D01*
X158952798Y-95260615D01*
X158952798Y-95260615D01*
G37*
X158952798Y-95260615D02*
X158981698Y-95272615D01*
X158981234Y-95278770D01*
X159108063Y-95325087D01*
X159232764Y-95376867D01*
X159249894Y-95376882D01*
X159250217Y-95377000D01*
X158266225Y-95377000D01*
X158281740Y-95370590D01*
X158298850Y-95369861D01*
X158518766Y-95278770D01*
X158518319Y-95272836D01*
X158546074Y-95261368D01*
X158750168Y-95057630D01*
X158952798Y-95260615D01*
G36*
X159870063Y-95325087D02*
X159994764Y-95376867D01*
X160011894Y-95376882D01*
X160012217Y-95377000D01*
X159536225Y-95377000D01*
X159551740Y-95370590D01*
X159568850Y-95369861D01*
X159767432Y-95287607D01*
X159870063Y-95325087D01*
X159870063Y-95325087D01*
G37*
X159870063Y-95325087D02*
X159994764Y-95376867D01*
X160011894Y-95376882D01*
X160012217Y-95377000D01*
X159536225Y-95377000D01*
X159551740Y-95370590D01*
X159568850Y-95369861D01*
X159767432Y-95287607D01*
X159870063Y-95325087D01*
G36*
X165227000Y-95377000D02*
X160298225Y-95377000D01*
X160313740Y-95370590D01*
X160330850Y-95369861D01*
X160550766Y-95278770D01*
X160550319Y-95272836D01*
X160578074Y-95261368D01*
X160792615Y-95047202D01*
X160804615Y-95018302D01*
X160810770Y-95018766D01*
X160857087Y-94891937D01*
X160908867Y-94767236D01*
X160908882Y-94750106D01*
X160914757Y-94734018D01*
X160909014Y-94599140D01*
X160909132Y-94464094D01*
X160902590Y-94448260D01*
X160901861Y-94431150D01*
X160844255Y-94292074D01*
X160857087Y-94256937D01*
X160908867Y-94132236D01*
X160908882Y-94115106D01*
X160914757Y-94099018D01*
X160909014Y-93964140D01*
X160909132Y-93829094D01*
X160902590Y-93813260D01*
X160901861Y-93796150D01*
X160844255Y-93657074D01*
X160857087Y-93621937D01*
X160908867Y-93497236D01*
X160908882Y-93480106D01*
X160914757Y-93464018D01*
X160909014Y-93329140D01*
X160909132Y-93194094D01*
X160902590Y-93178260D01*
X160901861Y-93161150D01*
X160844255Y-93022074D01*
X160857087Y-92986937D01*
X160908867Y-92862236D01*
X160908882Y-92845106D01*
X160914757Y-92829018D01*
X160909014Y-92694140D01*
X160909132Y-92559094D01*
X160902590Y-92543260D01*
X160901861Y-92526150D01*
X160810770Y-92306234D01*
X160804836Y-92306681D01*
X160793368Y-92278926D01*
X160579202Y-92064385D01*
X160550302Y-92052385D01*
X160550766Y-92046230D01*
X160423937Y-91999913D01*
X160413175Y-91995445D01*
X160423615Y-91970302D01*
X160429770Y-91970766D01*
X160476087Y-91843937D01*
X160527867Y-91719236D01*
X160527882Y-91702106D01*
X160533757Y-91686018D01*
X160528014Y-91551140D01*
X160528132Y-91416094D01*
X160521590Y-91400260D01*
X160520861Y-91383150D01*
X160463255Y-91244074D01*
X160476087Y-91208937D01*
X160527867Y-91084236D01*
X160527882Y-91067106D01*
X160533757Y-91051018D01*
X160528014Y-90916140D01*
X160528132Y-90781094D01*
X160521590Y-90765260D01*
X160520861Y-90748150D01*
X160463255Y-90609074D01*
X160476087Y-90573937D01*
X160527867Y-90449236D01*
X160527882Y-90432106D01*
X160533757Y-90416018D01*
X160528014Y-90281140D01*
X160528132Y-90146094D01*
X160521590Y-90130260D01*
X160520861Y-90113150D01*
X160491804Y-90043000D01*
X165227000Y-90043000D01*
X165227000Y-95377000D01*
X165227000Y-95377000D01*
G37*
X165227000Y-95377000D02*
X160298225Y-95377000D01*
X160313740Y-95370590D01*
X160330850Y-95369861D01*
X160550766Y-95278770D01*
X160550319Y-95272836D01*
X160578074Y-95261368D01*
X160792615Y-95047202D01*
X160804615Y-95018302D01*
X160810770Y-95018766D01*
X160857087Y-94891937D01*
X160908867Y-94767236D01*
X160908882Y-94750106D01*
X160914757Y-94734018D01*
X160909014Y-94599140D01*
X160909132Y-94464094D01*
X160902590Y-94448260D01*
X160901861Y-94431150D01*
X160844255Y-94292074D01*
X160857087Y-94256937D01*
X160908867Y-94132236D01*
X160908882Y-94115106D01*
X160914757Y-94099018D01*
X160909014Y-93964140D01*
X160909132Y-93829094D01*
X160902590Y-93813260D01*
X160901861Y-93796150D01*
X160844255Y-93657074D01*
X160857087Y-93621937D01*
X160908867Y-93497236D01*
X160908882Y-93480106D01*
X160914757Y-93464018D01*
X160909014Y-93329140D01*
X160909132Y-93194094D01*
X160902590Y-93178260D01*
X160901861Y-93161150D01*
X160844255Y-93022074D01*
X160857087Y-92986937D01*
X160908867Y-92862236D01*
X160908882Y-92845106D01*
X160914757Y-92829018D01*
X160909014Y-92694140D01*
X160909132Y-92559094D01*
X160902590Y-92543260D01*
X160901861Y-92526150D01*
X160810770Y-92306234D01*
X160804836Y-92306681D01*
X160793368Y-92278926D01*
X160579202Y-92064385D01*
X160550302Y-92052385D01*
X160550766Y-92046230D01*
X160423937Y-91999913D01*
X160413175Y-91995445D01*
X160423615Y-91970302D01*
X160429770Y-91970766D01*
X160476087Y-91843937D01*
X160527867Y-91719236D01*
X160527882Y-91702106D01*
X160533757Y-91686018D01*
X160528014Y-91551140D01*
X160528132Y-91416094D01*
X160521590Y-91400260D01*
X160520861Y-91383150D01*
X160463255Y-91244074D01*
X160476087Y-91208937D01*
X160527867Y-91084236D01*
X160527882Y-91067106D01*
X160533757Y-91051018D01*
X160528014Y-90916140D01*
X160528132Y-90781094D01*
X160521590Y-90765260D01*
X160520861Y-90748150D01*
X160463255Y-90609074D01*
X160476087Y-90573937D01*
X160527867Y-90449236D01*
X160527882Y-90432106D01*
X160533757Y-90416018D01*
X160528014Y-90281140D01*
X160528132Y-90146094D01*
X160521590Y-90130260D01*
X160520861Y-90113150D01*
X160491804Y-90043000D01*
X165227000Y-90043000D01*
X165227000Y-95377000D01*
G36*
X143002133Y-90144764D02*
X143002118Y-90161894D01*
X142996243Y-90177982D01*
X143001986Y-90312860D01*
X143001868Y-90447906D01*
X143008410Y-90463740D01*
X143009139Y-90480850D01*
X143066745Y-90619926D01*
X143053913Y-90655063D01*
X143002133Y-90779764D01*
X143002118Y-90796894D01*
X142996243Y-90812982D01*
X143001986Y-90947860D01*
X143001868Y-91082906D01*
X143008410Y-91098740D01*
X143009139Y-91115850D01*
X143066745Y-91254926D01*
X143053913Y-91290063D01*
X143002133Y-91414764D01*
X143002118Y-91431894D01*
X142996243Y-91447982D01*
X143001986Y-91582860D01*
X143001868Y-91717906D01*
X143008410Y-91733740D01*
X143009139Y-91750850D01*
X143100230Y-91970766D01*
X143106164Y-91970319D01*
X143114397Y-91990244D01*
X142979234Y-92046230D01*
X142979681Y-92052164D01*
X142951926Y-92063632D01*
X142737385Y-92277798D01*
X142725385Y-92306698D01*
X142719230Y-92306234D01*
X142672913Y-92433063D01*
X142621133Y-92557764D01*
X142621118Y-92574894D01*
X142615243Y-92590982D01*
X142620986Y-92725860D01*
X142620868Y-92860906D01*
X142627410Y-92876740D01*
X142628139Y-92893850D01*
X142685745Y-93032926D01*
X142672913Y-93068063D01*
X142621133Y-93192764D01*
X142621118Y-93209894D01*
X142615243Y-93225982D01*
X142620986Y-93360860D01*
X142620868Y-93495906D01*
X142627410Y-93511740D01*
X142628139Y-93528850D01*
X142685745Y-93667926D01*
X142672913Y-93703063D01*
X142621133Y-93827764D01*
X142621118Y-93844894D01*
X142615243Y-93860982D01*
X142620986Y-93995860D01*
X142620868Y-94130906D01*
X142627410Y-94146740D01*
X142628139Y-94163850D01*
X142685745Y-94302926D01*
X142672913Y-94338063D01*
X142621133Y-94462764D01*
X142621118Y-94479894D01*
X142615243Y-94495982D01*
X142620986Y-94630860D01*
X142620868Y-94765906D01*
X142627410Y-94781740D01*
X142628139Y-94798850D01*
X142719230Y-95018766D01*
X142725164Y-95018319D01*
X142736632Y-95046074D01*
X142950798Y-95260615D01*
X142979698Y-95272615D01*
X142979234Y-95278770D01*
X143106063Y-95325087D01*
X143230764Y-95376867D01*
X143247894Y-95376882D01*
X143248217Y-95377000D01*
X138303000Y-95377000D01*
X138303000Y-90043000D01*
X143044389Y-90043000D01*
X143002133Y-90144764D01*
X143002133Y-90144764D01*
G37*
X143002133Y-90144764D02*
X143002118Y-90161894D01*
X142996243Y-90177982D01*
X143001986Y-90312860D01*
X143001868Y-90447906D01*
X143008410Y-90463740D01*
X143009139Y-90480850D01*
X143066745Y-90619926D01*
X143053913Y-90655063D01*
X143002133Y-90779764D01*
X143002118Y-90796894D01*
X142996243Y-90812982D01*
X143001986Y-90947860D01*
X143001868Y-91082906D01*
X143008410Y-91098740D01*
X143009139Y-91115850D01*
X143066745Y-91254926D01*
X143053913Y-91290063D01*
X143002133Y-91414764D01*
X143002118Y-91431894D01*
X142996243Y-91447982D01*
X143001986Y-91582860D01*
X143001868Y-91717906D01*
X143008410Y-91733740D01*
X143009139Y-91750850D01*
X143100230Y-91970766D01*
X143106164Y-91970319D01*
X143114397Y-91990244D01*
X142979234Y-92046230D01*
X142979681Y-92052164D01*
X142951926Y-92063632D01*
X142737385Y-92277798D01*
X142725385Y-92306698D01*
X142719230Y-92306234D01*
X142672913Y-92433063D01*
X142621133Y-92557764D01*
X142621118Y-92574894D01*
X142615243Y-92590982D01*
X142620986Y-92725860D01*
X142620868Y-92860906D01*
X142627410Y-92876740D01*
X142628139Y-92893850D01*
X142685745Y-93032926D01*
X142672913Y-93068063D01*
X142621133Y-93192764D01*
X142621118Y-93209894D01*
X142615243Y-93225982D01*
X142620986Y-93360860D01*
X142620868Y-93495906D01*
X142627410Y-93511740D01*
X142628139Y-93528850D01*
X142685745Y-93667926D01*
X142672913Y-93703063D01*
X142621133Y-93827764D01*
X142621118Y-93844894D01*
X142615243Y-93860982D01*
X142620986Y-93995860D01*
X142620868Y-94130906D01*
X142627410Y-94146740D01*
X142628139Y-94163850D01*
X142685745Y-94302926D01*
X142672913Y-94338063D01*
X142621133Y-94462764D01*
X142621118Y-94479894D01*
X142615243Y-94495982D01*
X142620986Y-94630860D01*
X142620868Y-94765906D01*
X142627410Y-94781740D01*
X142628139Y-94798850D01*
X142719230Y-95018766D01*
X142725164Y-95018319D01*
X142736632Y-95046074D01*
X142950798Y-95260615D01*
X142979698Y-95272615D01*
X142979234Y-95278770D01*
X143106063Y-95325087D01*
X143230764Y-95376867D01*
X143247894Y-95376882D01*
X143248217Y-95377000D01*
X138303000Y-95377000D01*
X138303000Y-90043000D01*
X143044389Y-90043000D01*
X143002133Y-90144764D01*
G36*
X143868063Y-95325087D02*
X143992764Y-95376867D01*
X144009894Y-95376882D01*
X144010217Y-95377000D01*
X143534225Y-95377000D01*
X143549740Y-95370590D01*
X143566850Y-95369861D01*
X143765432Y-95287607D01*
X143868063Y-95325087D01*
X143868063Y-95325087D01*
G37*
X143868063Y-95325087D02*
X143992764Y-95376867D01*
X144009894Y-95376882D01*
X144010217Y-95377000D01*
X143534225Y-95377000D01*
X143549740Y-95370590D01*
X143566850Y-95369861D01*
X143765432Y-95287607D01*
X143868063Y-95325087D01*
G36*
X144982798Y-95260615D02*
X145011698Y-95272615D01*
X145011234Y-95278770D01*
X145138063Y-95325087D01*
X145262764Y-95376867D01*
X145279894Y-95376882D01*
X145280217Y-95377000D01*
X144296225Y-95377000D01*
X144311740Y-95370590D01*
X144328850Y-95369861D01*
X144548766Y-95278770D01*
X144548319Y-95272836D01*
X144576074Y-95261368D01*
X144780168Y-95057630D01*
X144982798Y-95260615D01*
X144982798Y-95260615D01*
G37*
X144982798Y-95260615D02*
X145011698Y-95272615D01*
X145011234Y-95278770D01*
X145138063Y-95325087D01*
X145262764Y-95376867D01*
X145279894Y-95376882D01*
X145280217Y-95377000D01*
X144296225Y-95377000D01*
X144311740Y-95370590D01*
X144328850Y-95369861D01*
X144548766Y-95278770D01*
X144548319Y-95272836D01*
X144576074Y-95261368D01*
X144780168Y-95057630D01*
X144982798Y-95260615D01*
G36*
X145900063Y-95325087D02*
X146024764Y-95376867D01*
X146041894Y-95376882D01*
X146042217Y-95377000D01*
X145566225Y-95377000D01*
X145581740Y-95370590D01*
X145598850Y-95369861D01*
X145797432Y-95287607D01*
X145900063Y-95325087D01*
X145900063Y-95325087D01*
G37*
X145900063Y-95325087D02*
X146024764Y-95376867D01*
X146041894Y-95376882D01*
X146042217Y-95377000D01*
X145566225Y-95377000D01*
X145581740Y-95370590D01*
X145598850Y-95369861D01*
X145797432Y-95287607D01*
X145900063Y-95325087D01*
G36*
X151257000Y-95377000D02*
X146328225Y-95377000D01*
X146343740Y-95370590D01*
X146360850Y-95369861D01*
X146580766Y-95278770D01*
X146580319Y-95272836D01*
X146608074Y-95261368D01*
X146822615Y-95047202D01*
X146834615Y-95018302D01*
X146840770Y-95018766D01*
X146887087Y-94891937D01*
X146938867Y-94767236D01*
X146938882Y-94750106D01*
X146944757Y-94734018D01*
X146939014Y-94599140D01*
X146939132Y-94464094D01*
X146932590Y-94448260D01*
X146931861Y-94431150D01*
X146874255Y-94292074D01*
X146887087Y-94256937D01*
X146938867Y-94132236D01*
X146938882Y-94115106D01*
X146944757Y-94099018D01*
X146939014Y-93964140D01*
X146939132Y-93829094D01*
X146932590Y-93813260D01*
X146931861Y-93796150D01*
X146874255Y-93657074D01*
X146887087Y-93621937D01*
X146938867Y-93497236D01*
X146938882Y-93480106D01*
X146944757Y-93464018D01*
X146939014Y-93329140D01*
X146939132Y-93194094D01*
X146932590Y-93178260D01*
X146931861Y-93161150D01*
X146874255Y-93022074D01*
X146887087Y-92986937D01*
X146938867Y-92862236D01*
X146938882Y-92845106D01*
X146944757Y-92829018D01*
X146939014Y-92694140D01*
X146939132Y-92559094D01*
X146932590Y-92543260D01*
X146931861Y-92526150D01*
X146840770Y-92306234D01*
X146834836Y-92306681D01*
X146823368Y-92278926D01*
X146609202Y-92064385D01*
X146580302Y-92052385D01*
X146580766Y-92046230D01*
X146453937Y-91999913D01*
X146443175Y-91995445D01*
X146453615Y-91970302D01*
X146459770Y-91970766D01*
X146506087Y-91843937D01*
X146557867Y-91719236D01*
X146557882Y-91702106D01*
X146563757Y-91686018D01*
X146558014Y-91551140D01*
X146558132Y-91416094D01*
X146551590Y-91400260D01*
X146550861Y-91383150D01*
X146493255Y-91244074D01*
X146506087Y-91208937D01*
X146557867Y-91084236D01*
X146557882Y-91067106D01*
X146563757Y-91051018D01*
X146558014Y-90916140D01*
X146558132Y-90781094D01*
X146551590Y-90765260D01*
X146550861Y-90748150D01*
X146493255Y-90609074D01*
X146506087Y-90573937D01*
X146557867Y-90449236D01*
X146557882Y-90432106D01*
X146563757Y-90416018D01*
X146558014Y-90281140D01*
X146558132Y-90146094D01*
X146551590Y-90130260D01*
X146550861Y-90113150D01*
X146521804Y-90043000D01*
X151257000Y-90043000D01*
X151257000Y-95377000D01*
X151257000Y-95377000D01*
G37*
X151257000Y-95377000D02*
X146328225Y-95377000D01*
X146343740Y-95370590D01*
X146360850Y-95369861D01*
X146580766Y-95278770D01*
X146580319Y-95272836D01*
X146608074Y-95261368D01*
X146822615Y-95047202D01*
X146834615Y-95018302D01*
X146840770Y-95018766D01*
X146887087Y-94891937D01*
X146938867Y-94767236D01*
X146938882Y-94750106D01*
X146944757Y-94734018D01*
X146939014Y-94599140D01*
X146939132Y-94464094D01*
X146932590Y-94448260D01*
X146931861Y-94431150D01*
X146874255Y-94292074D01*
X146887087Y-94256937D01*
X146938867Y-94132236D01*
X146938882Y-94115106D01*
X146944757Y-94099018D01*
X146939014Y-93964140D01*
X146939132Y-93829094D01*
X146932590Y-93813260D01*
X146931861Y-93796150D01*
X146874255Y-93657074D01*
X146887087Y-93621937D01*
X146938867Y-93497236D01*
X146938882Y-93480106D01*
X146944757Y-93464018D01*
X146939014Y-93329140D01*
X146939132Y-93194094D01*
X146932590Y-93178260D01*
X146931861Y-93161150D01*
X146874255Y-93022074D01*
X146887087Y-92986937D01*
X146938867Y-92862236D01*
X146938882Y-92845106D01*
X146944757Y-92829018D01*
X146939014Y-92694140D01*
X146939132Y-92559094D01*
X146932590Y-92543260D01*
X146931861Y-92526150D01*
X146840770Y-92306234D01*
X146834836Y-92306681D01*
X146823368Y-92278926D01*
X146609202Y-92064385D01*
X146580302Y-92052385D01*
X146580766Y-92046230D01*
X146453937Y-91999913D01*
X146443175Y-91995445D01*
X146453615Y-91970302D01*
X146459770Y-91970766D01*
X146506087Y-91843937D01*
X146557867Y-91719236D01*
X146557882Y-91702106D01*
X146563757Y-91686018D01*
X146558014Y-91551140D01*
X146558132Y-91416094D01*
X146551590Y-91400260D01*
X146550861Y-91383150D01*
X146493255Y-91244074D01*
X146506087Y-91208937D01*
X146557867Y-91084236D01*
X146557882Y-91067106D01*
X146563757Y-91051018D01*
X146558014Y-90916140D01*
X146558132Y-90781094D01*
X146551590Y-90765260D01*
X146550861Y-90748150D01*
X146493255Y-90609074D01*
X146506087Y-90573937D01*
X146557867Y-90449236D01*
X146557882Y-90432106D01*
X146563757Y-90416018D01*
X146558014Y-90281140D01*
X146558132Y-90146094D01*
X146551590Y-90130260D01*
X146550861Y-90113150D01*
X146521804Y-90043000D01*
X151257000Y-90043000D01*
X151257000Y-95377000D01*
G36*
X165227000Y-89535000D02*
X160462462Y-89535000D01*
X160665615Y-89332202D01*
X160677615Y-89303302D01*
X160683770Y-89303766D01*
X160730087Y-89176937D01*
X160781867Y-89052236D01*
X160781882Y-89035106D01*
X160787757Y-89019018D01*
X160782014Y-88884140D01*
X160782132Y-88749094D01*
X160775590Y-88733260D01*
X160774861Y-88716150D01*
X160717255Y-88577074D01*
X160730087Y-88541937D01*
X160781867Y-88417236D01*
X160781882Y-88400106D01*
X160787757Y-88384018D01*
X160782014Y-88249140D01*
X160782132Y-88114094D01*
X160775590Y-88098260D01*
X160774861Y-88081150D01*
X160717255Y-87942074D01*
X160730087Y-87906937D01*
X160781867Y-87782236D01*
X160781882Y-87765106D01*
X160787757Y-87749018D01*
X160782014Y-87614140D01*
X160782132Y-87479094D01*
X160775590Y-87463260D01*
X160774861Y-87446150D01*
X160683770Y-87226234D01*
X160677836Y-87226681D01*
X160666368Y-87198926D01*
X160452202Y-86984385D01*
X160423302Y-86972385D01*
X160423766Y-86966230D01*
X160296937Y-86919913D01*
X160172236Y-86868133D01*
X160155106Y-86868118D01*
X160139018Y-86862243D01*
X160004140Y-86867986D01*
X159869094Y-86867868D01*
X159853260Y-86874410D01*
X159836150Y-86875139D01*
X159697074Y-86932745D01*
X159661937Y-86919913D01*
X159537236Y-86868133D01*
X159520106Y-86868118D01*
X159504018Y-86862243D01*
X159369140Y-86867986D01*
X159234094Y-86867868D01*
X159218260Y-86874410D01*
X159201150Y-86875139D01*
X158981234Y-86966230D01*
X158981681Y-86972164D01*
X158953926Y-86983632D01*
X158749832Y-87187370D01*
X158547202Y-86984385D01*
X158518302Y-86972385D01*
X158518766Y-86966230D01*
X158391937Y-86919913D01*
X158267236Y-86868133D01*
X158250106Y-86868118D01*
X158234018Y-86862243D01*
X158099140Y-86867986D01*
X157964094Y-86867868D01*
X157948260Y-86874410D01*
X157931150Y-86875139D01*
X157792074Y-86932745D01*
X157756937Y-86919913D01*
X157632236Y-86868133D01*
X157615106Y-86868118D01*
X157599018Y-86862243D01*
X157464140Y-86867986D01*
X157329094Y-86867868D01*
X157313260Y-86874410D01*
X157296150Y-86875139D01*
X157076234Y-86966230D01*
X157076681Y-86972164D01*
X157048926Y-86983632D01*
X156834385Y-87197798D01*
X156822385Y-87226698D01*
X156816230Y-87226234D01*
X156769913Y-87353063D01*
X156718133Y-87477764D01*
X156718118Y-87494894D01*
X156712243Y-87510982D01*
X156717986Y-87645860D01*
X156717868Y-87780906D01*
X156724410Y-87796740D01*
X156725139Y-87813850D01*
X156782745Y-87952926D01*
X156769913Y-87988063D01*
X156718133Y-88112764D01*
X156718118Y-88129894D01*
X156712243Y-88145982D01*
X156717986Y-88280860D01*
X156717868Y-88415906D01*
X156724410Y-88431740D01*
X156725139Y-88448850D01*
X156782745Y-88587926D01*
X156769913Y-88623063D01*
X156718133Y-88747764D01*
X156718118Y-88764894D01*
X156712243Y-88780982D01*
X156717986Y-88915860D01*
X156717868Y-89050906D01*
X156724410Y-89066740D01*
X156725139Y-89083850D01*
X156816230Y-89303766D01*
X156822164Y-89303319D01*
X156833632Y-89331074D01*
X157037202Y-89535000D01*
X152273000Y-89535000D01*
X152273000Y-84455000D01*
X165227000Y-84455000D01*
X165227000Y-89535000D01*
X165227000Y-89535000D01*
G37*
X165227000Y-89535000D02*
X160462462Y-89535000D01*
X160665615Y-89332202D01*
X160677615Y-89303302D01*
X160683770Y-89303766D01*
X160730087Y-89176937D01*
X160781867Y-89052236D01*
X160781882Y-89035106D01*
X160787757Y-89019018D01*
X160782014Y-88884140D01*
X160782132Y-88749094D01*
X160775590Y-88733260D01*
X160774861Y-88716150D01*
X160717255Y-88577074D01*
X160730087Y-88541937D01*
X160781867Y-88417236D01*
X160781882Y-88400106D01*
X160787757Y-88384018D01*
X160782014Y-88249140D01*
X160782132Y-88114094D01*
X160775590Y-88098260D01*
X160774861Y-88081150D01*
X160717255Y-87942074D01*
X160730087Y-87906937D01*
X160781867Y-87782236D01*
X160781882Y-87765106D01*
X160787757Y-87749018D01*
X160782014Y-87614140D01*
X160782132Y-87479094D01*
X160775590Y-87463260D01*
X160774861Y-87446150D01*
X160683770Y-87226234D01*
X160677836Y-87226681D01*
X160666368Y-87198926D01*
X160452202Y-86984385D01*
X160423302Y-86972385D01*
X160423766Y-86966230D01*
X160296937Y-86919913D01*
X160172236Y-86868133D01*
X160155106Y-86868118D01*
X160139018Y-86862243D01*
X160004140Y-86867986D01*
X159869094Y-86867868D01*
X159853260Y-86874410D01*
X159836150Y-86875139D01*
X159697074Y-86932745D01*
X159661937Y-86919913D01*
X159537236Y-86868133D01*
X159520106Y-86868118D01*
X159504018Y-86862243D01*
X159369140Y-86867986D01*
X159234094Y-86867868D01*
X159218260Y-86874410D01*
X159201150Y-86875139D01*
X158981234Y-86966230D01*
X158981681Y-86972164D01*
X158953926Y-86983632D01*
X158749832Y-87187370D01*
X158547202Y-86984385D01*
X158518302Y-86972385D01*
X158518766Y-86966230D01*
X158391937Y-86919913D01*
X158267236Y-86868133D01*
X158250106Y-86868118D01*
X158234018Y-86862243D01*
X158099140Y-86867986D01*
X157964094Y-86867868D01*
X157948260Y-86874410D01*
X157931150Y-86875139D01*
X157792074Y-86932745D01*
X157756937Y-86919913D01*
X157632236Y-86868133D01*
X157615106Y-86868118D01*
X157599018Y-86862243D01*
X157464140Y-86867986D01*
X157329094Y-86867868D01*
X157313260Y-86874410D01*
X157296150Y-86875139D01*
X157076234Y-86966230D01*
X157076681Y-86972164D01*
X157048926Y-86983632D01*
X156834385Y-87197798D01*
X156822385Y-87226698D01*
X156816230Y-87226234D01*
X156769913Y-87353063D01*
X156718133Y-87477764D01*
X156718118Y-87494894D01*
X156712243Y-87510982D01*
X156717986Y-87645860D01*
X156717868Y-87780906D01*
X156724410Y-87796740D01*
X156725139Y-87813850D01*
X156782745Y-87952926D01*
X156769913Y-87988063D01*
X156718133Y-88112764D01*
X156718118Y-88129894D01*
X156712243Y-88145982D01*
X156717986Y-88280860D01*
X156717868Y-88415906D01*
X156724410Y-88431740D01*
X156725139Y-88448850D01*
X156782745Y-88587926D01*
X156769913Y-88623063D01*
X156718133Y-88747764D01*
X156718118Y-88764894D01*
X156712243Y-88780982D01*
X156717986Y-88915860D01*
X156717868Y-89050906D01*
X156724410Y-89066740D01*
X156725139Y-89083850D01*
X156816230Y-89303766D01*
X156822164Y-89303319D01*
X156833632Y-89331074D01*
X157037202Y-89535000D01*
X152273000Y-89535000D01*
X152273000Y-84455000D01*
X165227000Y-84455000D01*
X165227000Y-89535000D01*
G36*
X158942201Y-89535000D02*
X158557462Y-89535000D01*
X158750168Y-89342630D01*
X158942201Y-89535000D01*
X158942201Y-89535000D01*
G37*
X158942201Y-89535000D02*
X158557462Y-89535000D01*
X158750168Y-89342630D01*
X158942201Y-89535000D01*
G36*
X151257000Y-89535000D02*
X146492462Y-89535000D01*
X146695615Y-89332202D01*
X146707615Y-89303302D01*
X146713770Y-89303766D01*
X146760087Y-89176937D01*
X146811867Y-89052236D01*
X146811882Y-89035106D01*
X146817757Y-89019018D01*
X146812014Y-88884140D01*
X146812132Y-88749094D01*
X146805590Y-88733260D01*
X146804861Y-88716150D01*
X146747255Y-88577074D01*
X146760087Y-88541937D01*
X146811867Y-88417236D01*
X146811882Y-88400106D01*
X146817757Y-88384018D01*
X146812014Y-88249140D01*
X146812132Y-88114094D01*
X146805590Y-88098260D01*
X146804861Y-88081150D01*
X146747255Y-87942074D01*
X146760087Y-87906937D01*
X146811867Y-87782236D01*
X146811882Y-87765106D01*
X146817757Y-87749018D01*
X146812014Y-87614140D01*
X146812132Y-87479094D01*
X146805590Y-87463260D01*
X146804861Y-87446150D01*
X146713770Y-87226234D01*
X146707836Y-87226681D01*
X146696368Y-87198926D01*
X146482202Y-86984385D01*
X146453302Y-86972385D01*
X146453766Y-86966230D01*
X146326937Y-86919913D01*
X146202236Y-86868133D01*
X146185106Y-86868118D01*
X146169018Y-86862243D01*
X146034140Y-86867986D01*
X145899094Y-86867868D01*
X145883260Y-86874410D01*
X145866150Y-86875139D01*
X145727074Y-86932745D01*
X145691937Y-86919913D01*
X145567236Y-86868133D01*
X145550106Y-86868118D01*
X145534018Y-86862243D01*
X145399140Y-86867986D01*
X145264094Y-86867868D01*
X145248260Y-86874410D01*
X145231150Y-86875139D01*
X145011234Y-86966230D01*
X145011681Y-86972164D01*
X144983926Y-86983632D01*
X144779832Y-87187370D01*
X144577202Y-86984385D01*
X144548302Y-86972385D01*
X144548766Y-86966230D01*
X144421937Y-86919913D01*
X144297236Y-86868133D01*
X144280106Y-86868118D01*
X144264018Y-86862243D01*
X144129140Y-86867986D01*
X143994094Y-86867868D01*
X143978260Y-86874410D01*
X143961150Y-86875139D01*
X143822074Y-86932745D01*
X143786937Y-86919913D01*
X143662236Y-86868133D01*
X143645106Y-86868118D01*
X143629018Y-86862243D01*
X143494140Y-86867986D01*
X143359094Y-86867868D01*
X143343260Y-86874410D01*
X143326150Y-86875139D01*
X143106234Y-86966230D01*
X143106681Y-86972164D01*
X143078926Y-86983632D01*
X142864385Y-87197798D01*
X142852385Y-87226698D01*
X142846230Y-87226234D01*
X142799913Y-87353063D01*
X142748133Y-87477764D01*
X142748118Y-87494894D01*
X142742243Y-87510982D01*
X142747986Y-87645860D01*
X142747868Y-87780906D01*
X142754410Y-87796740D01*
X142755139Y-87813850D01*
X142812745Y-87952926D01*
X142799913Y-87988063D01*
X142748133Y-88112764D01*
X142748118Y-88129894D01*
X142742243Y-88145982D01*
X142747986Y-88280860D01*
X142747868Y-88415906D01*
X142754410Y-88431740D01*
X142755139Y-88448850D01*
X142812745Y-88587926D01*
X142799913Y-88623063D01*
X142748133Y-88747764D01*
X142748118Y-88764894D01*
X142742243Y-88780982D01*
X142747986Y-88915860D01*
X142747868Y-89050906D01*
X142754410Y-89066740D01*
X142755139Y-89083850D01*
X142846230Y-89303766D01*
X142852164Y-89303319D01*
X142863632Y-89331074D01*
X143067202Y-89535000D01*
X138303000Y-89535000D01*
X138303000Y-84455000D01*
X151257000Y-84455000D01*
X151257000Y-89535000D01*
X151257000Y-89535000D01*
G37*
X151257000Y-89535000D02*
X146492462Y-89535000D01*
X146695615Y-89332202D01*
X146707615Y-89303302D01*
X146713770Y-89303766D01*
X146760087Y-89176937D01*
X146811867Y-89052236D01*
X146811882Y-89035106D01*
X146817757Y-89019018D01*
X146812014Y-88884140D01*
X146812132Y-88749094D01*
X146805590Y-88733260D01*
X146804861Y-88716150D01*
X146747255Y-88577074D01*
X146760087Y-88541937D01*
X146811867Y-88417236D01*
X146811882Y-88400106D01*
X146817757Y-88384018D01*
X146812014Y-88249140D01*
X146812132Y-88114094D01*
X146805590Y-88098260D01*
X146804861Y-88081150D01*
X146747255Y-87942074D01*
X146760087Y-87906937D01*
X146811867Y-87782236D01*
X146811882Y-87765106D01*
X146817757Y-87749018D01*
X146812014Y-87614140D01*
X146812132Y-87479094D01*
X146805590Y-87463260D01*
X146804861Y-87446150D01*
X146713770Y-87226234D01*
X146707836Y-87226681D01*
X146696368Y-87198926D01*
X146482202Y-86984385D01*
X146453302Y-86972385D01*
X146453766Y-86966230D01*
X146326937Y-86919913D01*
X146202236Y-86868133D01*
X146185106Y-86868118D01*
X146169018Y-86862243D01*
X146034140Y-86867986D01*
X145899094Y-86867868D01*
X145883260Y-86874410D01*
X145866150Y-86875139D01*
X145727074Y-86932745D01*
X145691937Y-86919913D01*
X145567236Y-86868133D01*
X145550106Y-86868118D01*
X145534018Y-86862243D01*
X145399140Y-86867986D01*
X145264094Y-86867868D01*
X145248260Y-86874410D01*
X145231150Y-86875139D01*
X145011234Y-86966230D01*
X145011681Y-86972164D01*
X144983926Y-86983632D01*
X144779832Y-87187370D01*
X144577202Y-86984385D01*
X144548302Y-86972385D01*
X144548766Y-86966230D01*
X144421937Y-86919913D01*
X144297236Y-86868133D01*
X144280106Y-86868118D01*
X144264018Y-86862243D01*
X144129140Y-86867986D01*
X143994094Y-86867868D01*
X143978260Y-86874410D01*
X143961150Y-86875139D01*
X143822074Y-86932745D01*
X143786937Y-86919913D01*
X143662236Y-86868133D01*
X143645106Y-86868118D01*
X143629018Y-86862243D01*
X143494140Y-86867986D01*
X143359094Y-86867868D01*
X143343260Y-86874410D01*
X143326150Y-86875139D01*
X143106234Y-86966230D01*
X143106681Y-86972164D01*
X143078926Y-86983632D01*
X142864385Y-87197798D01*
X142852385Y-87226698D01*
X142846230Y-87226234D01*
X142799913Y-87353063D01*
X142748133Y-87477764D01*
X142748118Y-87494894D01*
X142742243Y-87510982D01*
X142747986Y-87645860D01*
X142747868Y-87780906D01*
X142754410Y-87796740D01*
X142755139Y-87813850D01*
X142812745Y-87952926D01*
X142799913Y-87988063D01*
X142748133Y-88112764D01*
X142748118Y-88129894D01*
X142742243Y-88145982D01*
X142747986Y-88280860D01*
X142747868Y-88415906D01*
X142754410Y-88431740D01*
X142755139Y-88448850D01*
X142812745Y-88587926D01*
X142799913Y-88623063D01*
X142748133Y-88747764D01*
X142748118Y-88764894D01*
X142742243Y-88780982D01*
X142747986Y-88915860D01*
X142747868Y-89050906D01*
X142754410Y-89066740D01*
X142755139Y-89083850D01*
X142846230Y-89303766D01*
X142852164Y-89303319D01*
X142863632Y-89331074D01*
X143067202Y-89535000D01*
X138303000Y-89535000D01*
X138303000Y-84455000D01*
X151257000Y-84455000D01*
X151257000Y-89535000D01*
G36*
X144972201Y-89535000D02*
X144587462Y-89535000D01*
X144780168Y-89342630D01*
X144972201Y-89535000D01*
X144972201Y-89535000D01*
G37*
X144972201Y-89535000D02*
X144587462Y-89535000D01*
X144780168Y-89342630D01*
X144972201Y-89535000D01*
G36*
X151257000Y-78105000D02*
X146492462Y-78105000D01*
X146695615Y-77902202D01*
X146707615Y-77873302D01*
X146713770Y-77873766D01*
X146760087Y-77746937D01*
X146811867Y-77622236D01*
X146811882Y-77605106D01*
X146817757Y-77589018D01*
X146812014Y-77454140D01*
X146812132Y-77319094D01*
X146805590Y-77303260D01*
X146804861Y-77286150D01*
X146747255Y-77147074D01*
X146760087Y-77111937D01*
X146811867Y-76987236D01*
X146811882Y-76970106D01*
X146817757Y-76954018D01*
X146812014Y-76819140D01*
X146812132Y-76684094D01*
X146805590Y-76668260D01*
X146804861Y-76651150D01*
X146747255Y-76512074D01*
X146760087Y-76476937D01*
X146811867Y-76352236D01*
X146811882Y-76335106D01*
X146817757Y-76319018D01*
X146812014Y-76184140D01*
X146812132Y-76049094D01*
X146805590Y-76033260D01*
X146804861Y-76016150D01*
X146713770Y-75796234D01*
X146707836Y-75796681D01*
X146696368Y-75768926D01*
X146482202Y-75554385D01*
X146453302Y-75542385D01*
X146453766Y-75536230D01*
X146326937Y-75489913D01*
X146202236Y-75438133D01*
X146185106Y-75438118D01*
X146169018Y-75432243D01*
X146034140Y-75437986D01*
X145899094Y-75437868D01*
X145883260Y-75444410D01*
X145866150Y-75445139D01*
X145727074Y-75502745D01*
X145691937Y-75489913D01*
X145567236Y-75438133D01*
X145550106Y-75438118D01*
X145534018Y-75432243D01*
X145399140Y-75437986D01*
X145264094Y-75437868D01*
X145248260Y-75444410D01*
X145231150Y-75445139D01*
X145011234Y-75536230D01*
X145011681Y-75542164D01*
X144983926Y-75553632D01*
X144779832Y-75757370D01*
X144577202Y-75554385D01*
X144548302Y-75542385D01*
X144548766Y-75536230D01*
X144421937Y-75489913D01*
X144297236Y-75438133D01*
X144280106Y-75438118D01*
X144264018Y-75432243D01*
X144129140Y-75437986D01*
X143994094Y-75437868D01*
X143978260Y-75444410D01*
X143961150Y-75445139D01*
X143822074Y-75502745D01*
X143786937Y-75489913D01*
X143662236Y-75438133D01*
X143645106Y-75438118D01*
X143629018Y-75432243D01*
X143494140Y-75437986D01*
X143359094Y-75437868D01*
X143343260Y-75444410D01*
X143326150Y-75445139D01*
X143106234Y-75536230D01*
X143106681Y-75542164D01*
X143078926Y-75553632D01*
X142864385Y-75767798D01*
X142852385Y-75796698D01*
X142846230Y-75796234D01*
X142799913Y-75923063D01*
X142748133Y-76047764D01*
X142748118Y-76064894D01*
X142742243Y-76080982D01*
X142747986Y-76215860D01*
X142747868Y-76350906D01*
X142754410Y-76366740D01*
X142755139Y-76383850D01*
X142812745Y-76522926D01*
X142799913Y-76558063D01*
X142748133Y-76682764D01*
X142748118Y-76699894D01*
X142742243Y-76715982D01*
X142747986Y-76850860D01*
X142747868Y-76985906D01*
X142754410Y-77001740D01*
X142755139Y-77018850D01*
X142812745Y-77157926D01*
X142799913Y-77193063D01*
X142748133Y-77317764D01*
X142748118Y-77334894D01*
X142742243Y-77350982D01*
X142747986Y-77485860D01*
X142747868Y-77620906D01*
X142754410Y-77636740D01*
X142755139Y-77653850D01*
X142846230Y-77873766D01*
X142852164Y-77873319D01*
X142863632Y-77901074D01*
X143067202Y-78105000D01*
X138303000Y-78105000D01*
X138303000Y-73025000D01*
X151257000Y-73025000D01*
X151257000Y-78105000D01*
X151257000Y-78105000D01*
G37*
X151257000Y-78105000D02*
X146492462Y-78105000D01*
X146695615Y-77902202D01*
X146707615Y-77873302D01*
X146713770Y-77873766D01*
X146760087Y-77746937D01*
X146811867Y-77622236D01*
X146811882Y-77605106D01*
X146817757Y-77589018D01*
X146812014Y-77454140D01*
X146812132Y-77319094D01*
X146805590Y-77303260D01*
X146804861Y-77286150D01*
X146747255Y-77147074D01*
X146760087Y-77111937D01*
X146811867Y-76987236D01*
X146811882Y-76970106D01*
X146817757Y-76954018D01*
X146812014Y-76819140D01*
X146812132Y-76684094D01*
X146805590Y-76668260D01*
X146804861Y-76651150D01*
X146747255Y-76512074D01*
X146760087Y-76476937D01*
X146811867Y-76352236D01*
X146811882Y-76335106D01*
X146817757Y-76319018D01*
X146812014Y-76184140D01*
X146812132Y-76049094D01*
X146805590Y-76033260D01*
X146804861Y-76016150D01*
X146713770Y-75796234D01*
X146707836Y-75796681D01*
X146696368Y-75768926D01*
X146482202Y-75554385D01*
X146453302Y-75542385D01*
X146453766Y-75536230D01*
X146326937Y-75489913D01*
X146202236Y-75438133D01*
X146185106Y-75438118D01*
X146169018Y-75432243D01*
X146034140Y-75437986D01*
X145899094Y-75437868D01*
X145883260Y-75444410D01*
X145866150Y-75445139D01*
X145727074Y-75502745D01*
X145691937Y-75489913D01*
X145567236Y-75438133D01*
X145550106Y-75438118D01*
X145534018Y-75432243D01*
X145399140Y-75437986D01*
X145264094Y-75437868D01*
X145248260Y-75444410D01*
X145231150Y-75445139D01*
X145011234Y-75536230D01*
X145011681Y-75542164D01*
X144983926Y-75553632D01*
X144779832Y-75757370D01*
X144577202Y-75554385D01*
X144548302Y-75542385D01*
X144548766Y-75536230D01*
X144421937Y-75489913D01*
X144297236Y-75438133D01*
X144280106Y-75438118D01*
X144264018Y-75432243D01*
X144129140Y-75437986D01*
X143994094Y-75437868D01*
X143978260Y-75444410D01*
X143961150Y-75445139D01*
X143822074Y-75502745D01*
X143786937Y-75489913D01*
X143662236Y-75438133D01*
X143645106Y-75438118D01*
X143629018Y-75432243D01*
X143494140Y-75437986D01*
X143359094Y-75437868D01*
X143343260Y-75444410D01*
X143326150Y-75445139D01*
X143106234Y-75536230D01*
X143106681Y-75542164D01*
X143078926Y-75553632D01*
X142864385Y-75767798D01*
X142852385Y-75796698D01*
X142846230Y-75796234D01*
X142799913Y-75923063D01*
X142748133Y-76047764D01*
X142748118Y-76064894D01*
X142742243Y-76080982D01*
X142747986Y-76215860D01*
X142747868Y-76350906D01*
X142754410Y-76366740D01*
X142755139Y-76383850D01*
X142812745Y-76522926D01*
X142799913Y-76558063D01*
X142748133Y-76682764D01*
X142748118Y-76699894D01*
X142742243Y-76715982D01*
X142747986Y-76850860D01*
X142747868Y-76985906D01*
X142754410Y-77001740D01*
X142755139Y-77018850D01*
X142812745Y-77157926D01*
X142799913Y-77193063D01*
X142748133Y-77317764D01*
X142748118Y-77334894D01*
X142742243Y-77350982D01*
X142747986Y-77485860D01*
X142747868Y-77620906D01*
X142754410Y-77636740D01*
X142755139Y-77653850D01*
X142846230Y-77873766D01*
X142852164Y-77873319D01*
X142863632Y-77901074D01*
X143067202Y-78105000D01*
X138303000Y-78105000D01*
X138303000Y-73025000D01*
X151257000Y-73025000D01*
X151257000Y-78105000D01*
G36*
X144972201Y-78105000D02*
X144587462Y-78105000D01*
X144780168Y-77912630D01*
X144972201Y-78105000D01*
X144972201Y-78105000D01*
G37*
X144972201Y-78105000D02*
X144587462Y-78105000D01*
X144780168Y-77912630D01*
X144972201Y-78105000D01*
G36*
X165227000Y-78105000D02*
X160462462Y-78105000D01*
X160665615Y-77902202D01*
X160677615Y-77873302D01*
X160683770Y-77873766D01*
X160730087Y-77746937D01*
X160781867Y-77622236D01*
X160781882Y-77605106D01*
X160787757Y-77589018D01*
X160782014Y-77454140D01*
X160782132Y-77319094D01*
X160775590Y-77303260D01*
X160774861Y-77286150D01*
X160717255Y-77147074D01*
X160730087Y-77111937D01*
X160781867Y-76987236D01*
X160781882Y-76970106D01*
X160787757Y-76954018D01*
X160782014Y-76819140D01*
X160782132Y-76684094D01*
X160775590Y-76668260D01*
X160774861Y-76651150D01*
X160717255Y-76512074D01*
X160730087Y-76476937D01*
X160781867Y-76352236D01*
X160781882Y-76335106D01*
X160787757Y-76319018D01*
X160782014Y-76184140D01*
X160782132Y-76049094D01*
X160775590Y-76033260D01*
X160774861Y-76016150D01*
X160683770Y-75796234D01*
X160677836Y-75796681D01*
X160666368Y-75768926D01*
X160452202Y-75554385D01*
X160423302Y-75542385D01*
X160423766Y-75536230D01*
X160296937Y-75489913D01*
X160172236Y-75438133D01*
X160155106Y-75438118D01*
X160139018Y-75432243D01*
X160004140Y-75437986D01*
X159869094Y-75437868D01*
X159853260Y-75444410D01*
X159836150Y-75445139D01*
X159697074Y-75502745D01*
X159661937Y-75489913D01*
X159537236Y-75438133D01*
X159520106Y-75438118D01*
X159504018Y-75432243D01*
X159369140Y-75437986D01*
X159234094Y-75437868D01*
X159218260Y-75444410D01*
X159201150Y-75445139D01*
X158981234Y-75536230D01*
X158981681Y-75542164D01*
X158953926Y-75553632D01*
X158749832Y-75757370D01*
X158547202Y-75554385D01*
X158518302Y-75542385D01*
X158518766Y-75536230D01*
X158391937Y-75489913D01*
X158267236Y-75438133D01*
X158250106Y-75438118D01*
X158234018Y-75432243D01*
X158099140Y-75437986D01*
X157964094Y-75437868D01*
X157948260Y-75444410D01*
X157931150Y-75445139D01*
X157792074Y-75502745D01*
X157756937Y-75489913D01*
X157632236Y-75438133D01*
X157615106Y-75438118D01*
X157599018Y-75432243D01*
X157464140Y-75437986D01*
X157329094Y-75437868D01*
X157313260Y-75444410D01*
X157296150Y-75445139D01*
X157076234Y-75536230D01*
X157076681Y-75542164D01*
X157048926Y-75553632D01*
X156834385Y-75767798D01*
X156822385Y-75796698D01*
X156816230Y-75796234D01*
X156769913Y-75923063D01*
X156718133Y-76047764D01*
X156718118Y-76064894D01*
X156712243Y-76080982D01*
X156717986Y-76215860D01*
X156717868Y-76350906D01*
X156724410Y-76366740D01*
X156725139Y-76383850D01*
X156782745Y-76522926D01*
X156769913Y-76558063D01*
X156718133Y-76682764D01*
X156718118Y-76699894D01*
X156712243Y-76715982D01*
X156717986Y-76850860D01*
X156717868Y-76985906D01*
X156724410Y-77001740D01*
X156725139Y-77018850D01*
X156782745Y-77157926D01*
X156769913Y-77193063D01*
X156718133Y-77317764D01*
X156718118Y-77334894D01*
X156712243Y-77350982D01*
X156717986Y-77485860D01*
X156717868Y-77620906D01*
X156724410Y-77636740D01*
X156725139Y-77653850D01*
X156816230Y-77873766D01*
X156822164Y-77873319D01*
X156833632Y-77901074D01*
X157037202Y-78105000D01*
X152273000Y-78105000D01*
X152273000Y-73025000D01*
X165227000Y-73025000D01*
X165227000Y-78105000D01*
X165227000Y-78105000D01*
G37*
X165227000Y-78105000D02*
X160462462Y-78105000D01*
X160665615Y-77902202D01*
X160677615Y-77873302D01*
X160683770Y-77873766D01*
X160730087Y-77746937D01*
X160781867Y-77622236D01*
X160781882Y-77605106D01*
X160787757Y-77589018D01*
X160782014Y-77454140D01*
X160782132Y-77319094D01*
X160775590Y-77303260D01*
X160774861Y-77286150D01*
X160717255Y-77147074D01*
X160730087Y-77111937D01*
X160781867Y-76987236D01*
X160781882Y-76970106D01*
X160787757Y-76954018D01*
X160782014Y-76819140D01*
X160782132Y-76684094D01*
X160775590Y-76668260D01*
X160774861Y-76651150D01*
X160717255Y-76512074D01*
X160730087Y-76476937D01*
X160781867Y-76352236D01*
X160781882Y-76335106D01*
X160787757Y-76319018D01*
X160782014Y-76184140D01*
X160782132Y-76049094D01*
X160775590Y-76033260D01*
X160774861Y-76016150D01*
X160683770Y-75796234D01*
X160677836Y-75796681D01*
X160666368Y-75768926D01*
X160452202Y-75554385D01*
X160423302Y-75542385D01*
X160423766Y-75536230D01*
X160296937Y-75489913D01*
X160172236Y-75438133D01*
X160155106Y-75438118D01*
X160139018Y-75432243D01*
X160004140Y-75437986D01*
X159869094Y-75437868D01*
X159853260Y-75444410D01*
X159836150Y-75445139D01*
X159697074Y-75502745D01*
X159661937Y-75489913D01*
X159537236Y-75438133D01*
X159520106Y-75438118D01*
X159504018Y-75432243D01*
X159369140Y-75437986D01*
X159234094Y-75437868D01*
X159218260Y-75444410D01*
X159201150Y-75445139D01*
X158981234Y-75536230D01*
X158981681Y-75542164D01*
X158953926Y-75553632D01*
X158749832Y-75757370D01*
X158547202Y-75554385D01*
X158518302Y-75542385D01*
X158518766Y-75536230D01*
X158391937Y-75489913D01*
X158267236Y-75438133D01*
X158250106Y-75438118D01*
X158234018Y-75432243D01*
X158099140Y-75437986D01*
X157964094Y-75437868D01*
X157948260Y-75444410D01*
X157931150Y-75445139D01*
X157792074Y-75502745D01*
X157756937Y-75489913D01*
X157632236Y-75438133D01*
X157615106Y-75438118D01*
X157599018Y-75432243D01*
X157464140Y-75437986D01*
X157329094Y-75437868D01*
X157313260Y-75444410D01*
X157296150Y-75445139D01*
X157076234Y-75536230D01*
X157076681Y-75542164D01*
X157048926Y-75553632D01*
X156834385Y-75767798D01*
X156822385Y-75796698D01*
X156816230Y-75796234D01*
X156769913Y-75923063D01*
X156718133Y-76047764D01*
X156718118Y-76064894D01*
X156712243Y-76080982D01*
X156717986Y-76215860D01*
X156717868Y-76350906D01*
X156724410Y-76366740D01*
X156725139Y-76383850D01*
X156782745Y-76522926D01*
X156769913Y-76558063D01*
X156718133Y-76682764D01*
X156718118Y-76699894D01*
X156712243Y-76715982D01*
X156717986Y-76850860D01*
X156717868Y-76985906D01*
X156724410Y-77001740D01*
X156725139Y-77018850D01*
X156782745Y-77157926D01*
X156769913Y-77193063D01*
X156718133Y-77317764D01*
X156718118Y-77334894D01*
X156712243Y-77350982D01*
X156717986Y-77485860D01*
X156717868Y-77620906D01*
X156724410Y-77636740D01*
X156725139Y-77653850D01*
X156816230Y-77873766D01*
X156822164Y-77873319D01*
X156833632Y-77901074D01*
X157037202Y-78105000D01*
X152273000Y-78105000D01*
X152273000Y-73025000D01*
X165227000Y-73025000D01*
X165227000Y-78105000D01*
G36*
X158942201Y-78105000D02*
X158557462Y-78105000D01*
X158750168Y-77912630D01*
X158942201Y-78105000D01*
X158942201Y-78105000D01*
G37*
X158942201Y-78105000D02*
X158557462Y-78105000D01*
X158750168Y-77912630D01*
X158942201Y-78105000D01*
M02*
