G04 #@! TF.FileFunction,Copper,L1,Top,Signal*
%FSLAX46Y46*%
G04 Gerber Fmt 4.6, Leading zero omitted, Abs format (unit mm)*
G04 Created by KiCad (PCBNEW 4.0.5) date 04/17/17 17:32:54*
%MOMM*%
%LPD*%
G01*
G04 APERTURE LIST*
%ADD10C,0.100000*%
%ADD11R,1.700000X1.700000*%
%ADD12O,1.700000X1.700000*%
%ADD13R,0.900000X1.700000*%
%ADD14C,0.254000*%
%ADD15R,6.000000X5.000000*%
%ADD16R,0.900000X1.910000*%
%ADD17R,0.900000X1.730000*%
%ADD18R,1.440000X2.110000*%
%ADD19C,0.250000*%
%ADD20C,0.254000*%
G04 APERTURE END LIST*
D10*
D11*
X150233380Y-71079360D03*
D12*
X152773380Y-71079360D03*
D11*
X152908000Y-97536000D03*
D12*
X150368000Y-97536000D03*
D13*
X156538000Y-96774000D03*
X159438000Y-96774000D03*
X146738000Y-96774000D03*
X143838000Y-96774000D03*
D14*
X158115000Y-87630000D03*
X157480000Y-87630000D03*
X157480000Y-88265000D03*
X157480000Y-88900000D03*
X159385000Y-87630000D03*
X160020000Y-87630000D03*
X160020000Y-88265000D03*
X160020000Y-88900000D03*
X158115000Y-88265000D03*
X158115000Y-88900000D03*
X159385000Y-88265000D03*
X159385000Y-88900000D03*
D15*
X155550000Y-87211000D03*
X161950000Y-87211000D03*
D14*
X157734000Y-91567000D03*
X157734000Y-90932000D03*
X157734000Y-90297000D03*
X158115000Y-94615000D03*
X157353000Y-94615000D03*
X157353000Y-93980000D03*
X157353000Y-93345000D03*
X157353000Y-92710000D03*
X159385000Y-94615000D03*
X160147000Y-94615000D03*
X160147000Y-93980000D03*
X160147000Y-93345000D03*
X160147000Y-92710000D03*
X159766000Y-91567000D03*
X159766000Y-90932000D03*
X159766000Y-90297000D03*
X158115000Y-93980000D03*
X158115000Y-93345000D03*
X158115000Y-92710000D03*
X159385000Y-93980000D03*
X159385000Y-93345000D03*
X159385000Y-92710000D03*
X159131000Y-92202000D03*
X158369000Y-92202000D03*
X158369000Y-91567000D03*
X159131000Y-91567000D03*
X159131000Y-90932000D03*
D16*
X159400000Y-93196000D03*
D17*
X158100000Y-88846000D03*
D18*
X158750000Y-91186000D03*
D16*
X158100000Y-93196000D03*
D14*
X159131000Y-90297000D03*
X158369000Y-90297000D03*
X158369000Y-90932000D03*
D17*
X159400000Y-88846000D03*
D15*
X161950000Y-92631000D03*
X155550000Y-92631000D03*
D14*
X144145000Y-76200000D03*
X143510000Y-76200000D03*
X143510000Y-76835000D03*
X143510000Y-77470000D03*
X145415000Y-76200000D03*
X146050000Y-76200000D03*
X146050000Y-76835000D03*
X146050000Y-77470000D03*
X144145000Y-76835000D03*
X144145000Y-77470000D03*
X145415000Y-76835000D03*
X145415000Y-77470000D03*
D15*
X141580000Y-75781000D03*
X147980000Y-75781000D03*
D14*
X143764000Y-80137000D03*
X143764000Y-79502000D03*
X143764000Y-78867000D03*
X144145000Y-83185000D03*
X143383000Y-83185000D03*
X143383000Y-82550000D03*
X143383000Y-81915000D03*
X143383000Y-81280000D03*
X145415000Y-83185000D03*
X146177000Y-83185000D03*
X146177000Y-82550000D03*
X146177000Y-81915000D03*
X146177000Y-81280000D03*
X145796000Y-80137000D03*
X145796000Y-79502000D03*
X145796000Y-78867000D03*
X144145000Y-82550000D03*
X144145000Y-81915000D03*
X144145000Y-81280000D03*
X145415000Y-82550000D03*
X145415000Y-81915000D03*
X145415000Y-81280000D03*
X145161000Y-80772000D03*
X144399000Y-80772000D03*
X144399000Y-80137000D03*
X145161000Y-80137000D03*
X145161000Y-79502000D03*
D16*
X145430000Y-81766000D03*
D17*
X144130000Y-77416000D03*
D18*
X144780000Y-79756000D03*
D16*
X144130000Y-81766000D03*
D14*
X145161000Y-78867000D03*
X144399000Y-78867000D03*
X144399000Y-79502000D03*
D17*
X145430000Y-77416000D03*
D15*
X147980000Y-81201000D03*
X141580000Y-81201000D03*
D14*
X144145000Y-87630000D03*
X143510000Y-87630000D03*
X143510000Y-88265000D03*
X143510000Y-88900000D03*
X145415000Y-87630000D03*
X146050000Y-87630000D03*
X146050000Y-88265000D03*
X146050000Y-88900000D03*
X144145000Y-88265000D03*
X144145000Y-88900000D03*
X145415000Y-88265000D03*
X145415000Y-88900000D03*
D15*
X141580000Y-87211000D03*
X147980000Y-87211000D03*
D14*
X143764000Y-91567000D03*
X143764000Y-90932000D03*
X143764000Y-90297000D03*
X144145000Y-94615000D03*
X143383000Y-94615000D03*
X143383000Y-93980000D03*
X143383000Y-93345000D03*
X143383000Y-92710000D03*
X145415000Y-94615000D03*
X146177000Y-94615000D03*
X146177000Y-93980000D03*
X146177000Y-93345000D03*
X146177000Y-92710000D03*
X145796000Y-91567000D03*
X145796000Y-90932000D03*
X145796000Y-90297000D03*
X144145000Y-93980000D03*
X144145000Y-93345000D03*
X144145000Y-92710000D03*
X145415000Y-93980000D03*
X145415000Y-93345000D03*
X145415000Y-92710000D03*
X145161000Y-92202000D03*
X144399000Y-92202000D03*
X144399000Y-91567000D03*
X145161000Y-91567000D03*
X145161000Y-90932000D03*
D16*
X145430000Y-93196000D03*
D17*
X144130000Y-88846000D03*
D18*
X144780000Y-91186000D03*
D16*
X144130000Y-93196000D03*
D14*
X145161000Y-90297000D03*
X144399000Y-90297000D03*
X144399000Y-90932000D03*
D17*
X145430000Y-88846000D03*
D15*
X147980000Y-92631000D03*
X141580000Y-92631000D03*
D14*
X158115000Y-76200000D03*
X157480000Y-76200000D03*
X157480000Y-76835000D03*
X157480000Y-77470000D03*
X159385000Y-76200000D03*
X160020000Y-76200000D03*
X160020000Y-76835000D03*
X160020000Y-77470000D03*
X158115000Y-76835000D03*
X158115000Y-77470000D03*
X159385000Y-76835000D03*
X159385000Y-77470000D03*
D15*
X155550000Y-75781000D03*
X161950000Y-75781000D03*
D14*
X157734000Y-80137000D03*
X157734000Y-79502000D03*
X157734000Y-78867000D03*
X158115000Y-83185000D03*
X157353000Y-83185000D03*
X157353000Y-82550000D03*
X157353000Y-81915000D03*
X157353000Y-81280000D03*
X159385000Y-83185000D03*
X160147000Y-83185000D03*
X160147000Y-82550000D03*
X160147000Y-81915000D03*
X160147000Y-81280000D03*
X159766000Y-80137000D03*
X159766000Y-79502000D03*
X159766000Y-78867000D03*
X158115000Y-82550000D03*
X158115000Y-81915000D03*
X158115000Y-81280000D03*
X159385000Y-82550000D03*
X159385000Y-81915000D03*
X159385000Y-81280000D03*
X159131000Y-80772000D03*
X158369000Y-80772000D03*
X158369000Y-80137000D03*
X159131000Y-80137000D03*
X159131000Y-79502000D03*
D16*
X159400000Y-81766000D03*
D17*
X158100000Y-77416000D03*
D18*
X158750000Y-79756000D03*
D16*
X158100000Y-81766000D03*
D14*
X159131000Y-78867000D03*
X158369000Y-78867000D03*
X158369000Y-79502000D03*
D17*
X159400000Y-77416000D03*
D15*
X161950000Y-81201000D03*
X155550000Y-81201000D03*
D19*
X155550000Y-75867000D02*
X155550000Y-72746000D01*
X155448000Y-72644000D02*
X150098760Y-72644000D01*
X155550000Y-72746000D02*
X155448000Y-72644000D01*
X150233380Y-71079360D02*
X150233380Y-72509380D01*
X147980000Y-72746000D02*
X147980000Y-75740000D01*
X148082000Y-72644000D02*
X147980000Y-72746000D01*
X150098760Y-72644000D02*
X148082000Y-72644000D01*
X150233380Y-72509380D02*
X150098760Y-72644000D01*
X150233380Y-71079360D02*
X148884640Y-71079360D01*
X149098000Y-97536000D02*
X150368000Y-97536000D01*
X148082000Y-98552000D02*
X149098000Y-97536000D01*
X137668000Y-98552000D02*
X148082000Y-98552000D01*
X137668000Y-70358000D02*
X137668000Y-98552000D01*
X148163280Y-70358000D02*
X137668000Y-70358000D01*
X148884640Y-71079360D02*
X148163280Y-70358000D01*
X143838000Y-96774000D02*
X141986000Y-96774000D01*
X141732000Y-96520000D02*
X141732000Y-92783000D01*
X141986000Y-96774000D02*
X141732000Y-96520000D01*
X141732000Y-92783000D02*
X141580000Y-92631000D01*
X142060000Y-90935000D02*
X142580000Y-90415000D01*
X159438000Y-96774000D02*
X161798000Y-96774000D01*
X162052000Y-96520000D02*
X162052000Y-92733000D01*
X161798000Y-96774000D02*
X162052000Y-96520000D01*
X162052000Y-92733000D02*
X161950000Y-92631000D01*
X159946000Y-91419000D02*
X160950000Y-90415000D01*
X152908000Y-95758000D02*
X148336000Y-95758000D01*
X148336000Y-96774000D02*
X146738000Y-96774000D01*
X148336000Y-95758000D02*
X148336000Y-96774000D01*
X152908000Y-97536000D02*
X152908000Y-95758000D01*
X154940000Y-96774000D02*
X156538000Y-96774000D01*
X154940000Y-95758000D02*
X154940000Y-96774000D01*
X152908000Y-95758000D02*
X154940000Y-95758000D01*
X152908000Y-97536000D02*
X154686000Y-97536000D01*
X153924000Y-71120000D02*
X152814020Y-71120000D01*
X154686000Y-70358000D02*
X153924000Y-71120000D01*
X165862000Y-70358000D02*
X154686000Y-70358000D01*
X165862000Y-98552000D02*
X165862000Y-70358000D01*
X155702000Y-98552000D02*
X165862000Y-98552000D01*
X154686000Y-97536000D02*
X155702000Y-98552000D01*
X152814020Y-71120000D02*
X152773380Y-71079360D01*
X147980000Y-87170000D02*
X147980000Y-81201000D01*
X144130000Y-80281000D02*
X142580000Y-78731000D01*
X161950000Y-87170000D02*
X161950000Y-81201000D01*
X159400000Y-79773000D02*
X160442000Y-78731000D01*
D20*
G36*
X148748380Y-70793610D02*
X148907130Y-70952360D01*
X150106380Y-70952360D01*
X150106380Y-70932360D01*
X150360380Y-70932360D01*
X150360380Y-70952360D01*
X150380380Y-70952360D01*
X150380380Y-71206360D01*
X150360380Y-71206360D01*
X150360380Y-72405610D01*
X150519130Y-72564360D01*
X151209690Y-72564360D01*
X151443079Y-72467687D01*
X151621707Y-72289058D01*
X151693977Y-72114583D01*
X151723326Y-72158507D01*
X152205095Y-72480414D01*
X152773380Y-72593453D01*
X153341665Y-72480414D01*
X153823434Y-72158507D01*
X154022636Y-71860380D01*
X154214839Y-71822148D01*
X154461401Y-71657401D01*
X155000802Y-71118000D01*
X165102000Y-71118000D01*
X165102000Y-72656641D01*
X165076310Y-72646000D01*
X162235750Y-72646000D01*
X162077000Y-72804750D01*
X162077000Y-75654000D01*
X162097000Y-75654000D01*
X162097000Y-75908000D01*
X162077000Y-75908000D01*
X162077000Y-75928000D01*
X161823000Y-75928000D01*
X161823000Y-75908000D01*
X161803000Y-75908000D01*
X161803000Y-75654000D01*
X161823000Y-75654000D01*
X161823000Y-72804750D01*
X161664250Y-72646000D01*
X158823690Y-72646000D01*
X158750000Y-72676523D01*
X158676310Y-72646000D01*
X155835750Y-72646000D01*
X155677000Y-72804750D01*
X155677000Y-75654000D01*
X155697000Y-75654000D01*
X155697000Y-75908000D01*
X155677000Y-75908000D01*
X155677000Y-75928000D01*
X155423000Y-75928000D01*
X155423000Y-75908000D01*
X152073750Y-75908000D01*
X151915000Y-76066750D01*
X151915000Y-78407309D01*
X151946590Y-78483574D01*
X151902560Y-78701000D01*
X151902560Y-83701000D01*
X151946838Y-83936317D01*
X152085910Y-84152441D01*
X152163248Y-84205284D01*
X152098559Y-84246910D01*
X151953569Y-84459110D01*
X151902560Y-84711000D01*
X151902560Y-89711000D01*
X151943525Y-89928709D01*
X151902560Y-90131000D01*
X151902560Y-94998000D01*
X151627440Y-94998000D01*
X151627440Y-90131000D01*
X151586475Y-89913291D01*
X151627440Y-89711000D01*
X151627440Y-84711000D01*
X151583162Y-84475683D01*
X151444090Y-84259559D01*
X151366752Y-84206716D01*
X151431441Y-84165090D01*
X151576431Y-83952890D01*
X151627440Y-83701000D01*
X151627440Y-78701000D01*
X151585554Y-78478397D01*
X151615000Y-78407309D01*
X151615000Y-76066750D01*
X151456250Y-75908000D01*
X148107000Y-75908000D01*
X148107000Y-75928000D01*
X147853000Y-75928000D01*
X147853000Y-75908000D01*
X147833000Y-75908000D01*
X147833000Y-75654000D01*
X147853000Y-75654000D01*
X147853000Y-72804750D01*
X148107000Y-72804750D01*
X148107000Y-75654000D01*
X151456250Y-75654000D01*
X151615000Y-75495250D01*
X151615000Y-73154691D01*
X151915000Y-73154691D01*
X151915000Y-75495250D01*
X152073750Y-75654000D01*
X155423000Y-75654000D01*
X155423000Y-72804750D01*
X155264250Y-72646000D01*
X152423690Y-72646000D01*
X152190301Y-72742673D01*
X152011673Y-72921302D01*
X151915000Y-73154691D01*
X151615000Y-73154691D01*
X151518327Y-72921302D01*
X151339699Y-72742673D01*
X151106310Y-72646000D01*
X148265750Y-72646000D01*
X148107000Y-72804750D01*
X147853000Y-72804750D01*
X147694250Y-72646000D01*
X144853690Y-72646000D01*
X144780000Y-72676523D01*
X144706310Y-72646000D01*
X141865750Y-72646000D01*
X141707000Y-72804750D01*
X141707000Y-75654000D01*
X141727000Y-75654000D01*
X141727000Y-75908000D01*
X141707000Y-75908000D01*
X141707000Y-75928000D01*
X141453000Y-75928000D01*
X141453000Y-75908000D01*
X138103750Y-75908000D01*
X137945000Y-76066750D01*
X137945000Y-78407309D01*
X137976590Y-78483574D01*
X137932560Y-78701000D01*
X137932560Y-83701000D01*
X137976838Y-83936317D01*
X138115910Y-84152441D01*
X138193248Y-84205284D01*
X138128559Y-84246910D01*
X137983569Y-84459110D01*
X137932560Y-84711000D01*
X137932560Y-89711000D01*
X137973525Y-89928709D01*
X137932560Y-90131000D01*
X137932560Y-95131000D01*
X137976838Y-95366317D01*
X138115910Y-95582441D01*
X138328110Y-95727431D01*
X138580000Y-95778440D01*
X140972000Y-95778440D01*
X140972000Y-96520000D01*
X141029852Y-96810839D01*
X141194599Y-97057401D01*
X141448599Y-97311401D01*
X141695160Y-97476148D01*
X141986000Y-97534000D01*
X142740560Y-97534000D01*
X142740560Y-97624000D01*
X142784838Y-97859317D01*
X142923910Y-98075441D01*
X143136110Y-98220431D01*
X143388000Y-98271440D01*
X144288000Y-98271440D01*
X144523317Y-98227162D01*
X144739441Y-98088090D01*
X144884431Y-97875890D01*
X144935440Y-97624000D01*
X144935440Y-95924000D01*
X144905201Y-95763293D01*
X144980000Y-95778440D01*
X145670037Y-95778440D01*
X145640560Y-95924000D01*
X145640560Y-97624000D01*
X145684838Y-97859317D01*
X145823910Y-98075441D01*
X146036110Y-98220431D01*
X146288000Y-98271440D01*
X147188000Y-98271440D01*
X147423317Y-98227162D01*
X147639441Y-98088090D01*
X147784431Y-97875890D01*
X147835440Y-97624000D01*
X147835440Y-97534000D01*
X148336000Y-97534000D01*
X148626839Y-97476148D01*
X148873401Y-97311401D01*
X148942036Y-97208681D01*
X149047181Y-97409000D01*
X150241000Y-97409000D01*
X150241000Y-97389000D01*
X150495000Y-97389000D01*
X150495000Y-97409000D01*
X150515000Y-97409000D01*
X150515000Y-97663000D01*
X150495000Y-97663000D01*
X150495000Y-97683000D01*
X150241000Y-97683000D01*
X150241000Y-97663000D01*
X149047181Y-97663000D01*
X148926514Y-97892892D01*
X149141184Y-98350000D01*
X137870000Y-98350000D01*
X137870000Y-73154691D01*
X137945000Y-73154691D01*
X137945000Y-75495250D01*
X138103750Y-75654000D01*
X141453000Y-75654000D01*
X141453000Y-72804750D01*
X141294250Y-72646000D01*
X138453690Y-72646000D01*
X138220301Y-72742673D01*
X138041673Y-72921302D01*
X137945000Y-73154691D01*
X137870000Y-73154691D01*
X137870000Y-71365110D01*
X148748380Y-71365110D01*
X148748380Y-72055669D01*
X148845053Y-72289058D01*
X149023681Y-72467687D01*
X149257070Y-72564360D01*
X149947630Y-72564360D01*
X150106380Y-72405610D01*
X150106380Y-71206360D01*
X148907130Y-71206360D01*
X148748380Y-71365110D01*
X137870000Y-71365110D01*
X137870000Y-70560000D01*
X148748380Y-70560000D01*
X148748380Y-70793610D01*
X148748380Y-70793610D01*
G37*
X148748380Y-70793610D02*
X148907130Y-70952360D01*
X150106380Y-70952360D01*
X150106380Y-70932360D01*
X150360380Y-70932360D01*
X150360380Y-70952360D01*
X150380380Y-70952360D01*
X150380380Y-71206360D01*
X150360380Y-71206360D01*
X150360380Y-72405610D01*
X150519130Y-72564360D01*
X151209690Y-72564360D01*
X151443079Y-72467687D01*
X151621707Y-72289058D01*
X151693977Y-72114583D01*
X151723326Y-72158507D01*
X152205095Y-72480414D01*
X152773380Y-72593453D01*
X153341665Y-72480414D01*
X153823434Y-72158507D01*
X154022636Y-71860380D01*
X154214839Y-71822148D01*
X154461401Y-71657401D01*
X155000802Y-71118000D01*
X165102000Y-71118000D01*
X165102000Y-72656641D01*
X165076310Y-72646000D01*
X162235750Y-72646000D01*
X162077000Y-72804750D01*
X162077000Y-75654000D01*
X162097000Y-75654000D01*
X162097000Y-75908000D01*
X162077000Y-75908000D01*
X162077000Y-75928000D01*
X161823000Y-75928000D01*
X161823000Y-75908000D01*
X161803000Y-75908000D01*
X161803000Y-75654000D01*
X161823000Y-75654000D01*
X161823000Y-72804750D01*
X161664250Y-72646000D01*
X158823690Y-72646000D01*
X158750000Y-72676523D01*
X158676310Y-72646000D01*
X155835750Y-72646000D01*
X155677000Y-72804750D01*
X155677000Y-75654000D01*
X155697000Y-75654000D01*
X155697000Y-75908000D01*
X155677000Y-75908000D01*
X155677000Y-75928000D01*
X155423000Y-75928000D01*
X155423000Y-75908000D01*
X152073750Y-75908000D01*
X151915000Y-76066750D01*
X151915000Y-78407309D01*
X151946590Y-78483574D01*
X151902560Y-78701000D01*
X151902560Y-83701000D01*
X151946838Y-83936317D01*
X152085910Y-84152441D01*
X152163248Y-84205284D01*
X152098559Y-84246910D01*
X151953569Y-84459110D01*
X151902560Y-84711000D01*
X151902560Y-89711000D01*
X151943525Y-89928709D01*
X151902560Y-90131000D01*
X151902560Y-94998000D01*
X151627440Y-94998000D01*
X151627440Y-90131000D01*
X151586475Y-89913291D01*
X151627440Y-89711000D01*
X151627440Y-84711000D01*
X151583162Y-84475683D01*
X151444090Y-84259559D01*
X151366752Y-84206716D01*
X151431441Y-84165090D01*
X151576431Y-83952890D01*
X151627440Y-83701000D01*
X151627440Y-78701000D01*
X151585554Y-78478397D01*
X151615000Y-78407309D01*
X151615000Y-76066750D01*
X151456250Y-75908000D01*
X148107000Y-75908000D01*
X148107000Y-75928000D01*
X147853000Y-75928000D01*
X147853000Y-75908000D01*
X147833000Y-75908000D01*
X147833000Y-75654000D01*
X147853000Y-75654000D01*
X147853000Y-72804750D01*
X148107000Y-72804750D01*
X148107000Y-75654000D01*
X151456250Y-75654000D01*
X151615000Y-75495250D01*
X151615000Y-73154691D01*
X151915000Y-73154691D01*
X151915000Y-75495250D01*
X152073750Y-75654000D01*
X155423000Y-75654000D01*
X155423000Y-72804750D01*
X155264250Y-72646000D01*
X152423690Y-72646000D01*
X152190301Y-72742673D01*
X152011673Y-72921302D01*
X151915000Y-73154691D01*
X151615000Y-73154691D01*
X151518327Y-72921302D01*
X151339699Y-72742673D01*
X151106310Y-72646000D01*
X148265750Y-72646000D01*
X148107000Y-72804750D01*
X147853000Y-72804750D01*
X147694250Y-72646000D01*
X144853690Y-72646000D01*
X144780000Y-72676523D01*
X144706310Y-72646000D01*
X141865750Y-72646000D01*
X141707000Y-72804750D01*
X141707000Y-75654000D01*
X141727000Y-75654000D01*
X141727000Y-75908000D01*
X141707000Y-75908000D01*
X141707000Y-75928000D01*
X141453000Y-75928000D01*
X141453000Y-75908000D01*
X138103750Y-75908000D01*
X137945000Y-76066750D01*
X137945000Y-78407309D01*
X137976590Y-78483574D01*
X137932560Y-78701000D01*
X137932560Y-83701000D01*
X137976838Y-83936317D01*
X138115910Y-84152441D01*
X138193248Y-84205284D01*
X138128559Y-84246910D01*
X137983569Y-84459110D01*
X137932560Y-84711000D01*
X137932560Y-89711000D01*
X137973525Y-89928709D01*
X137932560Y-90131000D01*
X137932560Y-95131000D01*
X137976838Y-95366317D01*
X138115910Y-95582441D01*
X138328110Y-95727431D01*
X138580000Y-95778440D01*
X140972000Y-95778440D01*
X140972000Y-96520000D01*
X141029852Y-96810839D01*
X141194599Y-97057401D01*
X141448599Y-97311401D01*
X141695160Y-97476148D01*
X141986000Y-97534000D01*
X142740560Y-97534000D01*
X142740560Y-97624000D01*
X142784838Y-97859317D01*
X142923910Y-98075441D01*
X143136110Y-98220431D01*
X143388000Y-98271440D01*
X144288000Y-98271440D01*
X144523317Y-98227162D01*
X144739441Y-98088090D01*
X144884431Y-97875890D01*
X144935440Y-97624000D01*
X144935440Y-95924000D01*
X144905201Y-95763293D01*
X144980000Y-95778440D01*
X145670037Y-95778440D01*
X145640560Y-95924000D01*
X145640560Y-97624000D01*
X145684838Y-97859317D01*
X145823910Y-98075441D01*
X146036110Y-98220431D01*
X146288000Y-98271440D01*
X147188000Y-98271440D01*
X147423317Y-98227162D01*
X147639441Y-98088090D01*
X147784431Y-97875890D01*
X147835440Y-97624000D01*
X147835440Y-97534000D01*
X148336000Y-97534000D01*
X148626839Y-97476148D01*
X148873401Y-97311401D01*
X148942036Y-97208681D01*
X149047181Y-97409000D01*
X150241000Y-97409000D01*
X150241000Y-97389000D01*
X150495000Y-97389000D01*
X150495000Y-97409000D01*
X150515000Y-97409000D01*
X150515000Y-97663000D01*
X150495000Y-97663000D01*
X150495000Y-97683000D01*
X150241000Y-97683000D01*
X150241000Y-97663000D01*
X149047181Y-97663000D01*
X148926514Y-97892892D01*
X149141184Y-98350000D01*
X137870000Y-98350000D01*
X137870000Y-73154691D01*
X137945000Y-73154691D01*
X137945000Y-75495250D01*
X138103750Y-75654000D01*
X141453000Y-75654000D01*
X141453000Y-72804750D01*
X141294250Y-72646000D01*
X138453690Y-72646000D01*
X138220301Y-72742673D01*
X138041673Y-72921302D01*
X137945000Y-73154691D01*
X137870000Y-73154691D01*
X137870000Y-71365110D01*
X148748380Y-71365110D01*
X148748380Y-72055669D01*
X148845053Y-72289058D01*
X149023681Y-72467687D01*
X149257070Y-72564360D01*
X149947630Y-72564360D01*
X150106380Y-72405610D01*
X150106380Y-71206360D01*
X148907130Y-71206360D01*
X148748380Y-71365110D01*
X137870000Y-71365110D01*
X137870000Y-70560000D01*
X148748380Y-70560000D01*
X148748380Y-70793610D01*
M02*
